<?xml version="1.0" encoding="UTF-8" standalone="no"?>
<svg
   xmlns:dc="http://purl.org/dc/elements/1.1/"
   xmlns:cc="http://creativecommons.org/ns#"
   xmlns:rdf="http://www.w3.org/1999/02/22-rdf-syntax-ns#"
   xmlns:svg="http://www.w3.org/2000/svg"
   xmlns="http://www.w3.org/2000/svg"
   xmlns:sodipodi="http://sodipodi.sourceforge.net/DTD/sodipodi-0.dtd"
   xmlns:inkscape="http://www.inkscape.org/namespaces/inkscape"
   id="图层_1"
   data-name="图层 1"
   viewBox="0 0 484.83 484.83"
   version="1.1"
   sodipodi:docname="medal-3.svg"
   inkscape:version="1.0.2 (e86c8708, 2021-01-15)">
  <metadata
     id="metadata919">
    <rdf:RDF>
      <cc:Work
         rdf:about="">
        <dc:format>image/svg+xml</dc:format>
        <dc:type
           rdf:resource="http://purl.org/dc/dcmitype/StillImage" />
      </cc:Work>
    </rdf:RDF>
  </metadata>
  <sodipodi:namedview
     pagecolor="#ffffff"
     bordercolor="#666666"
     borderopacity="1"
     objecttolerance="10"
     gridtolerance="10"
     guidetolerance="10"
     inkscape:pageopacity="0"
     inkscape:pageshadow="2"
     inkscape:window-width="1635"
     inkscape:window-height="930"
     id="namedview917"
     showgrid="false"
     inkscape:zoom="0.90170163"
     inkscape:cx="23.055772"
     inkscape:cy="159.67925"
     inkscape:window-x="0"
     inkscape:window-y="25"
     inkscape:window-maximized="0"
     inkscape:current-layer="图层_1" />
  <defs
     id="defs884">
    <style
       id="style875">.cls-1,.cls-4,.cls-6{fill:none;}.cls-1,.cls-4{stroke-miterlimit:10;}.cls-1{stroke-width:43px;stroke:url(#未命名的渐变_8);}.cls-2{fill:#213859;}.cls-3{opacity:0.19;}.cls-4{stroke:#80b1da;stroke-width:3px;}.cls-5{fill:#3f84c6;}.cls-6{stroke:#64bee7;stroke-linecap:round;stroke-linejoin:round;stroke-width:4.21px;stroke-dasharray:12.73 12.73;}.cls-7{fill:#ecc32a;}</style>
    <linearGradient
       id="未命名的渐变_8"
       x1="48.19"
       y1="242.41"
       x2="451.61"
       y2="242.41"
       gradientUnits="userSpaceOnUse">
      <stop
         offset="0"
         stop-color="#eec71f"
         id="stop877" />
      <stop
         offset="0.48"
         stop-color="#e9ce1f"
         id="stop879" />
      <stop
         offset="1"
         stop-color="#f3e126"
         id="stop881" />
    </linearGradient>
  </defs>
  <path
     class="cls-1"
     d="M 441.20014,340.29169 V 145.60955 c 0.001,-8.9215 -4.86442,-17.16582 -12.76406,-21.62657 L 256.01145,26.582814 c -7.89903,-4.457851 -17.62908,-4.457851 -25.52812,0 L 58.025744,123.95075 c -7.89964,4.46075 -12.765459,12.70507 -12.764058,21.62657 v 194.71437 c 8.64e-4,8.92091 4.866076,17.16421 12.764058,21.62658 L 230.48333,459.2862 c 7.89904,4.45785 17.62909,4.45785 25.52812,0 l 172.45759,-97.36793 c 7.8853,-4.47055 12.73704,-12.71231 12.7311,-21.62658 z"
     id="path886"
     sodipodi:nodetypes="ccccccccccccc" />
  <path
     class="cls-2"
     d="M 441.20014,340.29169 V 145.60955 c 0.001,-8.9215 -4.86442,-17.16582 -12.76406,-21.62657 L 256.01145,26.582814 c -7.89903,-4.457851 -17.62908,-4.457851 -25.52812,0 L 58.025744,123.95075 c -7.89964,4.46075 -12.765459,12.70507 -12.764058,21.62657 v 194.71437 c 8.64e-4,8.92091 4.866076,17.16421 12.764058,21.62658 L 230.48333,459.2862 c 7.89904,4.45785 17.62909,4.45785 25.52812,0 l 172.45759,-97.36793 c 7.8853,-4.47055 12.73704,-12.71231 12.7311,-21.62658 z"
     id="path888"
     sodipodi:nodetypes="ccccccccccccc" />
  <g
     class="cls-3"
     id="g902">
    <circle
       class="cls-4"
       cx="250.9"
       cy="242.47"
       r="30.04"
       id="circle890" />
    <circle
       class="cls-4"
       cx="250.9"
       cy="242.47"
       r="48.04"
       id="circle892" />
    <circle
       class="cls-4"
       cx="250.9"
       cy="242.47"
       r="71.04"
       id="circle894" />
    <circle
       class="cls-4"
       cx="250.9"
       cy="242.47"
       r="104.14"
       id="circle896" />
    <circle
       class="cls-4"
       cx="250.9"
       cy="242.47"
       r="134.04"
       id="circle898" />
    <circle
       class="cls-4"
       cx="250.9"
       cy="242.47"
       r="172.04"
       id="circle900" />
  </g>
  <path
     class="cls-5"
     d="m 414.266,329.0433 c 1.53784,-2.70735 3.00245,-5.45052 4.39383,-8.22949 -46.26784,-33.87329 -105.55114,-45.84549 -161.75257,-32.66575 -56.20143,13.17974 -103.48794,50.14351 -129.01972,100.85446 8.91895,6.5339 18.39287,12.30986 28.3182,17.26473 15.62004,-21.76624 101.20075,-127.6215 258.06026,-77.22395 z"
     id="path904"
     sodipodi:nodetypes="ccsccc" />
  <path
     class="cls-5"
     d="m 227.39667,426.23933 c 5.5948,0.47272 11.24453,0.71265 16.94918,0.71981 66.85922,0.0355 129.03046,-33.58675 164.5487,-88.98803 -27.65912,1.66523 -120.59948,13.06404 -181.49788,88.26822 z"
     id="path906"
     sodipodi:nodetypes="cccc" />
  <path
     class="cls-5"
     d="m 160.56661,408.37297 c 18.66551,8.74726 38.64971,14.49702 59.18481,17.02837 31.16319,-42.07137 88.66736,-89.26736 189.4507,-87.9674 1.71359,-2.67154 3.35761,-5.38964 4.93207,-8.15429 -26.47279,-6.58573 -162.90102,-33.70221 -253.56758,79.09332 z"
     id="path908"
     sodipodi:nodetypes="ccccc" />
  <path
     class="cls-6"
     d="M 414.61751,325.39052 V 160.5537 c -0.0215,-7.53587 -4.13831,-14.49213 -10.80881,-18.26388 L 257.85686,59.823063 c -6.6873,-3.781292 -14.93032,-3.781292 -21.61762,0 L 90.276412,142.23611 c -6.670497,3.77174 -10.787309,10.728 -10.808807,18.26387 v 164.89054 c 0.01474,7.53765 4.133364,14.49697 10.808807,18.26388 l 145.962828,82.42378 c 6.69033,3.77022 14.92729,3.77022 21.61762,0 L 403.8087,343.6544 c 6.67544,-3.76691 10.79407,-10.72623 10.80881,-18.26388 z"
     id="path910"
     sodipodi:nodetypes="ccccccccccccc" />
  <path
     class="cls-7"
     d="m 255.44025,243.34276 c -2.4166,-1.57929 -4.84419,-1.57929 -8.07365,-1.57929 0.81286,-0.79502 0.81286,-1.57929 1.61473,-2.3743 33.89835,-9.46499 54.07699,-38.67644 48.43093,-71.03573 -4.8442,-25.25786 -20.17864,-42.63002 -46.00334,-48.94718 -25.8247,-7.10142 -48.43093,0 -66.18197,20.53075 -16.94918,20.51999 -19.36578,42.61928 -8.07366,66.3086 8.88651,19.72498 25.8247,29.98498 46.8162,34.72284 v 0.79502 c -50.84753,3.15858 -93.6214,46.57288 -96.04899,97.0886 0,5.25355 0.73596,6.94027 5.64606,6.44607 0.54357,-0.059 1.08982,-0.0912 1.6367,-0.0967 h 110.53763 c 1.6038,0 3.21847,0.78428 4.8332,-0.79501 -28.2413,-33.14356 -23.39711,-74.98932 4.84419,-100.98848 z"
     id="path912"
     sodipodi:nodetypes="ccccccccccccsccc" />
  <path
     class="cls-7"
     d="m 314.33946,225.97059 c -39.54441,0 -71.82803,30.79074 -71.82803,69.46718 0,38.67644 32.28362,70.25145 71.01517,71.04647 40.35728,0 72.6409,-30.79074 72.6409,-70.25145 -0.0846,-38.76624 -32.19182,-70.17356 -71.82804,-70.2622 z m 41.15915,59.99145 c -17.75105,18.15644 -36.31496,35.52861 -54.07699,53.71728 -13.71972,-13.41858 -25.8247,-26.05288 -38.73156,-37.89217 -1.61473,-1.57929 -2.42759,-3.15857 0,-4.73786 l 0.80187,-0.78427 c 4.8442,-3.95359 8.87553,-12.63431 14.53258,-12.63431 4.03133,0 8.87552,7.10143 12.90686,11.8178 3.22946,3.15858 6.45892,8.68072 10.49025,8.68072 3.22946,0 7.27178,-5.52214 10.49025,-8.68072 l 37.12782,-36.31287 c 2.42758,-2.36356 4.04231,-3.15858 6.45892,0 4.03133,4.73786 12.08301,8.68071 12.08301,13.41857 0,4.73787 -8.07365,9.47573 -12.08301,13.41858 z"
     id="path914"
     sodipodi:nodetypes="csccccccccscscccscc" />
</svg>
