<?xml version="1.0" encoding="UTF-8" standalone="no"?>
<svg
   xmlns:dc="http://purl.org/dc/elements/1.1/"
   xmlns:cc="http://creativecommons.org/ns#"
   xmlns:rdf="http://www.w3.org/1999/02/22-rdf-syntax-ns#"
   xmlns:svg="http://www.w3.org/2000/svg"
   xmlns="http://www.w3.org/2000/svg"
   xmlns:sodipodi="http://sodipodi.sourceforge.net/DTD/sodipodi-0.dtd"
   xmlns:inkscape="http://www.inkscape.org/namespaces/inkscape"
   id="图层_1"
   data-name="图层 1"
   viewBox="0 0 484.83 484.83"
   version="1.1"
   sodipodi:docname="medal-1.svg"
   inkscape:version="1.0.2 (e86c8708, 2021-01-15)">
  <metadata
     id="metadata862">
    <rdf:RDF>
      <cc:Work
         rdf:about="">
        <dc:format>image/svg+xml</dc:format>
        <dc:type
           rdf:resource="http://purl.org/dc/dcmitype/StillImage" />
      </cc:Work>
    </rdf:RDF>
  </metadata>
  <sodipodi:namedview
     pagecolor="#ffffff"
     bordercolor="#666666"
     borderopacity="1"
     objecttolerance="10"
     gridtolerance="10"
     guidetolerance="10"
     inkscape:pageopacity="0"
     inkscape:pageshadow="2"
     inkscape:window-width="1749"
     inkscape:window-height="950"
     id="namedview860"
     showgrid="false"
     inkscape:zoom="1.4933069"
     inkscape:cx="242.415"
     inkscape:cy="242.415"
     inkscape:window-x="0"
     inkscape:window-y="25"
     inkscape:window-maximized="0"
     inkscape:current-layer="图层_1" />
  <defs
     id="defs849">
    <style
       id="style833">.cls-1,.cls-3{fill:none;}.cls-1,.cls-4{stroke-miterlimit:10;}.cls-1{stroke-width:43px;stroke:url(#未命名的渐变_4);}.cls-2{fill:#1b2f4e;}.cls-3{stroke:#64bee7;stroke-linecap:round;stroke-linejoin:round;stroke-width:4.21px;stroke-dasharray:12.73 12.73;}.cls-4{fill:#fff;stroke:url(#未命名的渐变_6);}</style>
    <linearGradient
       id="未命名的渐变_4"
       x1="40.7"
       y1="242.41"
       x2="444.13"
       y2="242.41"
       gradientUnits="userSpaceOnUse">
      <stop
         offset="0"
         stop-color="#6ba8dc"
         id="stop835" />
      <stop
         offset="0.48"
         stop-color="#6599d1"
         id="stop837" />
      <stop
         offset="1"
         stop-color="#83b9e5"
         id="stop839" />
    </linearGradient>
    <linearGradient
       id="未命名的渐变_6"
       x1="152.84"
       y1="232.93"
       x2="336.74"
       y2="232.93"
       gradientUnits="userSpaceOnUse">
      <stop
         offset="0"
         stop-color="#6fc8e0"
         id="stop842" />
      <stop
         offset="0.46"
         stop-color="#528fcc"
         id="stop844" />
      <stop
         offset="1"
         stop-color="#558dcb"
         id="stop846" />
    </linearGradient>
  </defs>
  <path
     class="cls-1"
     d="M 439.41619,339.81367 V 145.64813 c 0.004,-8.90122 -4.81028,-17.12624 -12.62396,-21.56918 L 256.37424,26.937251 c -7.80957,-4.445729 -17.42749,-4.445729 -25.23706,0 L 60.719191,124.0468 c -7.787061,4.4737 -12.565838,12.70748 -12.537119,21.60133 v 194.16554 c 8.54e-4,8.89723 4.808527,17.11865 12.613102,21.56918 L 231.21316,458.4924 c 7.80958,4.44573 17.42749,4.44573 25.23706,0 l 170.41799,-97.10955 c 7.78116,-4.46522 12.56282,-12.6846 12.54798,-21.56918 z"
     id="path851"
     sodipodi:nodetypes="ccccccccccccc" />
  <path
     class="cls-2"
     d="M 439.41619,339.81367 V 145.64813 c 0.004,-8.90122 -4.81028,-17.12624 -12.62396,-21.56918 L 256.37424,26.937251 c -7.80957,-4.445729 -17.42749,-4.445729 -25.23706,0 L 60.719191,124.0468 c -7.787061,4.4737 -12.565838,12.70748 -12.537119,21.60133 v 194.16554 c 8.54e-4,8.89723 4.808527,17.11865 12.613102,21.56918 L 231.21316,458.4924 c 7.80958,4.44573 17.42749,4.44573 25.23706,0 l 170.41799,-97.10955 c 7.78116,-4.46522 12.56282,-12.6846 12.54798,-21.56918 z"
     id="path853"
     sodipodi:nodetypes="ccccccccccccc" />
  <path
     class="cls-3"
     d="M 411.97564,324.95204 V 160.55262 c -0.0213,-7.51586 -4.08937,-14.45367 -10.68098,-18.2154 L 257.05808,60.089293 c -6.6082,-3.771258 -14.75374,-3.771258 -21.36195,0 L 91.470412,142.28364 c -6.591607,3.76174 -10.65973,10.69954 -10.680974,18.21541 v 164.45299 c 0.01457,7.51764 4.08448,14.4585 10.680974,18.2154 l 144.279998,82.24793 c 6.6112,3.76021 14.75074,3.76021 21.36195,0 L 401.34893,343.2103 c 6.58903,-3.77816 10.63884,-10.73634 10.62671,-18.25826 z"
     id="path855"
     sodipodi:nodetypes="ccccccccccccc" />
  <path
     class="cls-4"
     d="m 245.23737,240.30396 c -25.31979,0.004 -48.14906,-15.0484 -57.84102,-38.13811 -9.69194,-23.08967 -4.3376,-49.66845 13.56457,-67.34328 17.90217,-17.67483 44.82656,-22.96486 68.21896,-13.40167 23.39244,9.56322 38.6454,32.09605 38.6454,57.08997 -0.0359,34.10852 -28.03469,61.75175 -62.58791,61.79309 z m 61.35048,108.14595 H 178.2859 c -19.16931,-1.07149 -30.39302,-13.42583 -31.1637,-33.94495 -0.18453,-5.01459 2.31204,-12.94365 3.62545,-15.61167 17.668,-35.92837 54.62853,-58.68557 95.08673,-58.54647 42.85415,0 81.31217,24.04434 95.70544,59.83226 5.61185,13.92943 5.42732,25.33013 -0.39077,33.85923 -9.4544,13.71513 -30.44729,14.4116 -34.5612,14.4116 z"
     id="path857"
     sodipodi:nodetypes="csssccsccccccs" />
</svg>
