<?xml version="1.0" encoding="UTF-8" standalone="no"?>
<svg
   xmlns:dc="http://purl.org/dc/elements/1.1/"
   xmlns:cc="http://creativecommons.org/ns#"
   xmlns:rdf="http://www.w3.org/1999/02/22-rdf-syntax-ns#"
   xmlns:svg="http://www.w3.org/2000/svg"
   xmlns="http://www.w3.org/2000/svg"
   xmlns:sodipodi="http://sodipodi.sourceforge.net/DTD/sodipodi-0.dtd"
   xmlns:inkscape="http://www.inkscape.org/namespaces/inkscape"
   id="图层_1"
   data-name="图层 1"
   viewBox="0 0 484.83 484.83"
   version="1.1"
   sodipodi:docname="medal-6.svg"
   inkscape:version="1.0.2 (e86c8708, 2021-01-15)">
  <metadata
     id="metadata2695">
    <rdf:RDF>
      <cc:Work
         rdf:about="">
        <dc:format>image/svg+xml</dc:format>
        <dc:type
           rdf:resource="http://purl.org/dc/dcmitype/StillImage" />
      </cc:Work>
    </rdf:RDF>
  </metadata>
  <sodipodi:namedview
     pagecolor="#ffffff"
     bordercolor="#666666"
     borderopacity="1"
     objecttolerance="10"
     gridtolerance="10"
     guidetolerance="10"
     inkscape:pageopacity="0"
     inkscape:pageshadow="2"
     inkscape:window-width="1423"
     inkscape:window-height="801"
     id="namedview2693"
     showgrid="false"
     inkscape:zoom="0.87453337"
     inkscape:cx="77.239995"
     inkscape:cy="141.54343"
     inkscape:window-x="0"
     inkscape:window-y="25"
     inkscape:window-maximized="0"
     inkscape:current-layer="图层_1" />
  <defs
     id="defs2680">
    <style
       id="style2678">.cls-1,.cls-3,.cls-5{fill:none;}.cls-1{stroke:#73be66;stroke-width:43px;}.cls-1,.cls-3{stroke-miterlimit:10;}.cls-2{fill:#249d3a;}.cls-3{stroke:#fff;stroke-linecap:round;stroke-width:4.2px;stroke-dasharray:12.73 12.73;}.cls-4{fill:#fff;}</style>
  </defs>
  <path
     class="cls-1"
     d="m 438.92547,339.88904 v -194.0006 c 0.004,-8.89366 -4.82519,-17.11169 -12.66309,-21.55086 L 255.31603,27.278397 c -7.83378,-4.441953 -17.48152,-4.441953 -25.3153,0 L 59.054386,124.30546 c -7.811204,4.46989 -12.604798,12.69668 -12.575989,21.58298 v 194.0006 c 8.56e-4,8.88967 4.823435,17.10411 12.652207,21.55086 l 170.946346,97.02706 c 7.83378,4.44195 17.48152,4.44195 25.3153,0 L 426.33859,361.4399 c 7.80528,-4.46143 12.60176,-12.67383 12.58688,-21.55086 z"
     id="path2682"
     sodipodi:nodetypes="ccccccccccccc" />
  <path
     class="cls-2"
     d="M 438.92547,342.27644 V 148.25443 c 0.0114,-8.90131 -4.81844,-17.12929 -12.66309,-21.57227 L 255.31603,29.655094 c -7.83378,-4.441953 -17.48152,-4.441953 -25.3153,0 L 59.054386,126.68216 c -7.80783,4.46797 -12.600905,12.68979 -12.575989,21.57227 v 194.02201 c -0.0014,8.89027 4.821791,17.10573 12.652207,21.55086 l 170.946346,97.02706 c 7.81244,4.41652 17.42277,4.42059 25.23908,0.0107 l 170.94635,-97.02706 c 7.84127,-4.44108 12.67063,-12.66408 12.66309,-21.56157 z"
     id="path2684"
     sodipodi:nodetypes="ccccccccccccc" />
  <path
     class="cls-3"
     d="M 411.39984,325.04003 V 160.78027 c -0.0213,-7.50948 -4.10204,-14.4414 -10.71409,-18.19994 L 256.00199,60.402277 c -6.62869,-3.768054 -14.79948,-3.768054 -21.42817,0 L 89.900946,142.52681 c -6.612043,3.75853 -10.692779,10.69045 -10.71409,18.19993 v 164.31329 c 0.01461,7.51126 4.097144,14.44622 10.71409,18.19993 l 144.727314,82.17806 c 6.6317,3.75702 14.79647,3.75702 21.42818,0 L 400.7402,343.28279 c 6.60945,-3.77496 10.67182,-10.72723 10.65964,-18.24276 z"
     id="path2686"
     sodipodi:nodetypes="ccccccccccccc" />
  <path
     class="cls-4"
     d="m 318.25042,265.65471 c 1.82923,0 3.65847,0 5.44415,1.79859 1.78568,1.79858 1.82923,3.59716 1.82923,5.35292 0,1.75576 0,3.59716 -1.82923,5.35292 -1.82924,1.75576 -3.65847,1.79858 -5.44415,1.79858 H 213.94048 c -1.84011,0 -3.66935,0 -5.49859,-1.79858 0,-1.79858 -1.82923,-3.59716 -1.82923,-5.35292 0,-1.75576 0,-3.59717 1.82923,-5.35292 1.82924,0 3.65848,-1.79859 5.49859,-1.79859 z m 0,-52.16957 c 1.82923,0 3.65847,0 5.44415,1.79858 1.78568,1.79858 1.82923,3.59716 1.82923,5.35292 0,1.75576 0,3.59716 -1.82923,5.35292 -1.82924,1.75576 -3.65847,1.79859 -5.44415,1.79859 H 213.94048 c -1.84011,0 -3.66935,0 -5.49859,-1.79859 0,0 -1.82923,-3.59716 -1.82923,-5.35292 0,-1.75576 0,-3.59716 1.82923,-5.35292 1.82924,0 3.65848,-1.79858 5.49859,-1.79858 z m 43.91252,88.15192 V 191.89145 c 0.0364,-8.95893 -7.36241,-16.22895 -16.474,-16.18724 H 186.51285 c -9.11159,-0.0417 -16.5104,7.22831 -16.474,16.18724 V 307.0328 c 1.82923,7.19433 9.15706,10.79149 16.474,10.79149 h 43.91252 l 31.10788,30.62942 c 1.82924,1.79858 3.65847,1.79858 5.44415,1.79858 h 1.82924 l 34.76635,-34.18376 h 42.11595 c 7.31694,3.60787 16.46311,-3.59716 16.46311,-14.38865 z m -47.57099,-140.3322 c -1.82924,-5.35293 -7.31694,-7.19433 -12.80464,-7.19433 H 151.7465 c -9.11335,-0.0358 -16.51036,7.2373 -16.474,16.19794 v 111.54419 c -0.0303,8.95646 7.36492,16.22294 16.474,16.18723 h 3.65847 V 191.89145 c 0,-7.19433 1.84029,-12.60094 7.31694,-17.98582 l 5.44415,-5.35292 c 5.48388,-3.40634 11.81743,-5.25863 18.30324,-5.35292 h 128.12265 z m -5.44415,172.71737 -29.27865,28.78802 c -3.62998,3.56915 -7.2879,5.35292 -10.97541,5.35292 -5.44415,0 -10.9754,-1.79858 -16.474,-7.19433 l -27.43852,-26.98943 h -36.63913 c -14.64477,0 -27.44941,-8.99291 -31.10788,-23.39227 h -5.44415 c -18.23634,0 -31.10788,-12.58982 -31.10788,-30.58659 V 168.50989 c -0.15291,-16.95439 13.86453,-30.73694 31.10788,-30.5866 h 150.0408 c 14.63386,0 25.60929,8.99291 29.27864,23.38157 h 14.57944 c 16.46311,0 32.93711,12.60054 32.93711,30.58659 v 111.59772 c 0,17.98581 -14.64476,30.58659 -32.93711,30.58659 z"
     id="path2688"
     sodipodi:nodetypes="sssssscscsssssssscscssccccccsccsccccccscccccsscccccssccscssccscssscc" />
  <rect
     class="cls-5"
     x="126.32"
     y="150.11"
     width="236.95"
     height="215.6"
     id="rect2690" />
</svg>
