<?xml version="1.0" encoding="UTF-8" standalone="no"?>
<svg
   xmlns:dc="http://purl.org/dc/elements/1.1/"
   xmlns:cc="http://creativecommons.org/ns#"
   xmlns:rdf="http://www.w3.org/1999/02/22-rdf-syntax-ns#"
   xmlns:svg="http://www.w3.org/2000/svg"
   xmlns="http://www.w3.org/2000/svg"
   xmlns:sodipodi="http://sodipodi.sourceforge.net/DTD/sodipodi-0.dtd"
   xmlns:inkscape="http://www.inkscape.org/namespaces/inkscape"
   id="图层_1"
   data-name="图层 1"
   viewBox="0 0 484.83 484.83"
   version="1.1"
   sodipodi:docname="medal-8.svg"
   inkscape:version="1.0.2 (e86c8708, 2021-01-15)">
  <metadata
     id="metadata3873">
    <rdf:RDF>
      <cc:Work
         rdf:about="">
        <dc:format>image/svg+xml</dc:format>
        <dc:type
           rdf:resource="http://purl.org/dc/dcmitype/StillImage" />
      </cc:Work>
    </rdf:RDF>
  </metadata>
  <sodipodi:namedview
     pagecolor="#ffffff"
     bordercolor="#666666"
     borderopacity="1"
     objecttolerance="10"
     gridtolerance="10"
     guidetolerance="10"
     inkscape:pageopacity="0"
     inkscape:pageshadow="2"
     inkscape:window-width="1229"
     inkscape:window-height="784"
     id="namedview3871"
     showgrid="false"
     inkscape:zoom="0.61838847"
     inkscape:cx="17.821422"
     inkscape:cy="132.44218"
     inkscape:window-x="0"
     inkscape:window-y="25"
     inkscape:window-maximized="0"
     inkscape:current-layer="图层_1" />
  <defs
     id="defs3858">
    <style
       id="style3849">.cls-1,.cls-3,.cls-4{fill:none;}.cls-1,.cls-3{stroke-miterlimit:10;}.cls-1{stroke-width:43px;stroke:url(#未命名的渐变_4);}.cls-2{fill:#1b2f4e;}.cls-3{stroke:#fff;stroke-linecap:round;stroke-width:4.2px;stroke-dasharray:12.73 12.73;}.cls-5{fill:#fff;}</style>
    <linearGradient
       id="未命名的渐变_4"
       x1="40.7"
       y1="242.41"
       x2="444.13"
       y2="242.41"
       gradientUnits="userSpaceOnUse">
      <stop
         offset="0"
         stop-color="#6ba8dc"
         id="stop3851" />
      <stop
         offset="0.48"
         stop-color="#6599d1"
         id="stop3853" />
      <stop
         offset="1"
         stop-color="#83b9e5"
         id="stop3855" />
    </linearGradient>
  </defs>
  <path
     class="cls-1"
     d="M 437.18396,339.54921 V 145.24296 c 0.004,-8.90768 -4.78943,-17.13865 -12.56923,-21.58482 L 254.93559,26.446042 c -7.77571,-4.448951 -17.35193,-4.448951 -25.12764,0 L 60.128807,123.62597 c -7.753301,4.47694 -12.51136,12.71669 -12.482765,21.61699 v 194.30625 c 8.5e-4,8.90368 4.78768,17.13106 12.558418,21.58482 l 169.67914,97.17993 c 7.77571,4.44895 17.35193,4.44895 25.12764,0 l 169.67915,-97.17993 c 7.74741,-4.46846 12.50834,-12.6938 12.49357,-21.58482 z"
     id="path3860"
     sodipodi:nodetypes="ccccccccccccc" />
  <path
     class="cls-2"
     d="M 437.18396,339.54921 V 145.24296 c 0.004,-8.90768 -4.78943,-17.13865 -12.56923,-21.58482 L 254.93559,26.446042 c -7.77571,-4.448951 -17.35193,-4.448951 -25.12764,0 L 60.128807,123.62597 c -7.753301,4.47694 -12.51136,12.71669 -12.482765,21.61699 v 194.30625 c 8.5e-4,8.90368 4.78768,17.13106 12.558418,21.58482 l 169.67914,97.17993 c 7.77571,4.44895 17.35193,4.44895 25.12764,0 l 169.67915,-97.17993 c 7.74741,-4.46846 12.50834,-12.6938 12.49357,-21.58482 z"
     id="path3862"
     sodipodi:nodetypes="ccccccccccccc" />
  <path
     class="cls-3"
     d="M 409.86237,324.67681 V 160.15825 c -0.0211,-7.52131 -4.07163,-14.46415 -10.63466,-18.22861 L 255.61647,59.62211 c -6.57956,-3.773991 -14.68978,-3.773991 -21.26933,0 L 90.746705,141.87603 c -6.563029,3.76446 -10.613515,10.70729 -10.634667,18.22861 v 164.57217 c 0.0145,7.52309 4.066772,14.46898 10.634667,18.22861 l 143.654465,82.30753 c 6.58255,3.76294 14.6868,3.76294 21.26934,0 l 143.61123,-82.26464 c 6.56047,-3.78091 10.59272,-10.74413 10.58063,-18.2715 z"
     id="path3864"
     sodipodi:nodetypes="ccccccccccccc" />
  <rect
     class="cls-4"
     x="20.53"
     y="67.69"
     width="305.96"
     height="306.36"
     id="rect3866" />
  <path
     class="cls-5"
     d="m 339.10509,313.87904 c 0,7.90585 -6.45969,14.31482 -14.42813,14.31482 h -96.76034 c -7.96857,0 -14.42813,-6.40896 -14.42813,-14.31482 0,-7.90586 6.45963,-14.31482 14.42813,-14.31482 h 96.78196 c 7.95858,0.0236 14.40439,6.41874 14.42813,14.31482 z m 0,-40.48896 c -0.006,7.90167 -6.46391,14.3041 -14.42813,14.3041 H 269.7636 c -8.12006,0.22055 -14.82297,-6.25016 -14.82297,-14.30946 0,-8.0593 6.70291,-14.53001 14.82297,-14.30946 h 54.91336 c 7.95858,0.0236 14.40439,6.41874 14.42813,14.31482 z m -57.59364,-71.91722 -94.18813,105.08257 -39.82597,8.1707 c -2.09824,0.49337 -4.01462,-1.31715 -3.62054,-3.42054 l 5.80368,-39.82415 93.26949,-104.0103 c 2.16151,-2.38044 5.63075,-2.79863 7.78146,-0.87926 l 30.78001,27.12846 c 2.16152,1.85503 2.16152,5.36135 0,7.70963 z m 27.15947,-30.27022 -14.42813,16.08407 c -1.16536,1.28804 -3.16123,1.39832 -4.46353,0.24662 L 255.89747,157.6813 c -1.29824,-1.1562 -1.40939,-3.1364 -0.24858,-4.42848 l 14.46056,-16.08406 c 5.23231,-5.83805 14.24619,-6.35677 20.12373,-1.15806 l 17.29214,15.25842 c 5.83532,5.22682 6.31828,14.14887 1.08076,19.96569 z"
     id="path3868"
     sodipodi:nodetypes="cssssccccscsccccccccccccccccccccccc" />
</svg>
