<?xml version="1.0" encoding="UTF-8" standalone="no"?>
<svg
   xmlns:dc="http://purl.org/dc/elements/1.1/"
   xmlns:cc="http://creativecommons.org/ns#"
   xmlns:rdf="http://www.w3.org/1999/02/22-rdf-syntax-ns#"
   xmlns:svg="http://www.w3.org/2000/svg"
   xmlns="http://www.w3.org/2000/svg"
   xmlns:sodipodi="http://sodipodi.sourceforge.net/DTD/sodipodi-0.dtd"
   xmlns:inkscape="http://www.inkscape.org/namespaces/inkscape"
   id="图层_1"
   data-name="图层 1"
   viewBox="0 0 484.83 484.83"
   version="1.1"
   sodipodi:docname="medal-7.svg"
   inkscape:version="1.0.2 (e86c8708, 2021-01-15)">
  <metadata
     id="metadata3286">
    <rdf:RDF>
      <cc:Work
         rdf:about="">
        <dc:format>image/svg+xml</dc:format>
        <dc:type
           rdf:resource="http://purl.org/dc/dcmitype/StillImage" />
      </cc:Work>
    </rdf:RDF>
  </metadata>
  <sodipodi:namedview
     pagecolor="#ffffff"
     bordercolor="#666666"
     borderopacity="1"
     objecttolerance="10"
     gridtolerance="10"
     guidetolerance="10"
     inkscape:pageopacity="0"
     inkscape:pageshadow="2"
     inkscape:window-width="1745"
     inkscape:window-height="873"
     id="namedview3284"
     showgrid="false"
     inkscape:zoom="0.87453337"
     inkscape:cx="-5.4836925"
     inkscape:cy="161.35911"
     inkscape:window-x="0"
     inkscape:window-y="25"
     inkscape:window-maximized="0"
     inkscape:current-layer="图层_1" />
  <defs
     id="defs3265">
    <style
       id="style3258">.cls-1,.cls-3,.cls-6{fill:none;}.cls-1,.cls-3{stroke-miterlimit:10;}.cls-1{stroke-width:43px;stroke:url(#未命名的渐变_26);}.cls-2{fill:#1b2f4e;}.cls-3{stroke:#fff;stroke-linecap:round;stroke-width:4.2px;stroke-dasharray:12.73 12.73;}.cls-4{fill:#63bce3;}.cls-5{fill:#fff;}</style>
    <linearGradient
       id="未命名的渐变_26"
       x1="40.7"
       y1="242.41"
       x2="444.13"
       y2="242.41"
       gradientUnits="userSpaceOnUse">
      <stop
         offset="0"
         stop-color="#5eb8e9"
         id="stop3260" />
      <stop
         offset="1"
         stop-color="#3a80c3"
         id="stop3262" />
    </linearGradient>
  </defs>
  <path
     class="cls-1"
     d="M 441.3722,341.50934 V 146.50321 c 0.004,-8.93976 -4.86581,-17.20038 -12.76969,-21.66256 L 256.2173,27.278397 c -7.89972,-4.464976 -17.62866,-4.464976 -25.52838,0 L 58.303706,124.80836 c -7.876952,4.49307 -12.710893,12.7625 -12.681842,21.69485 v 195.00613 c 8.63e-4,8.93576 4.864034,17.19277 12.758701,21.66257 l 172.385215,97.52997 c 7.89972,4.46497 17.62866,4.46497 25.52838,0 l 172.38521,-97.52997 c 7.87098,-4.48456 12.70783,-12.73952 12.69283,-21.66257 z"
     id="path3267"
     sodipodi:nodetypes="ccccccccccccc" />
  <path
     class="cls-2"
     d="M 441.3722,344.49023 V 149.44106 c 7.9e-4,-8.94182 -4.86739,-17.20434 -12.76969,-21.67333 L 256.2173,30.248525 c -7.89972,-4.464976 -17.62866,-4.464976 -25.52838,0 L 58.303706,127.76773 c -7.866834,4.49244 -12.698528,12.74982 -12.681842,21.67333 v 195.04917 c 8.63e-4,8.93576 4.864034,17.19277 12.758701,21.66257 L 230.76578,463.672 c 7.89668,4.47608 17.6317,4.47608 25.52838,0 l 172.30835,-97.5192 c 7.90056,-4.46544 12.76882,-12.724 12.76969,-21.66257 z"
     id="path3269"
     sodipodi:nodetypes="ccccccccccccc" />
  <path
     class="cls-3"
     d="M 413.61488,326.58337 V 161.47223 c -0.0215,-7.54841 -4.13657,-14.51625 -10.80427,-18.29427 L 256.90904,60.573963 c -6.68449,-3.787584 -14.92405,-3.787584 -21.60854,0 L 89.409904,143.12415 c -6.667698,3.77802 -10.782781,10.74587 -10.804271,18.29427 v 165.16495 c 0.01474,7.5502 4.131629,14.5211 10.804271,18.29427 l 145.945496,82.604 c 6.68752,3.77649 14.92102,3.77649 21.60854,0 l 145.90157,-82.56095 c 6.66509,-3.79453 10.76165,-10.78283 10.74937,-18.33732 z"
     id="path3271"
     sodipodi:nodetypes="ccccccccccccc" />
  <path
     class="cls-4"
     d="m 292.91229,166.87442 h -93.65897 c -9.13279,0.0237 -16.52868,7.27712 -16.54678,16.22809 v 127.56485 c 0.0181,8.95097 7.41399,16.20441 16.54678,16.22809 h 93.65897 c 9.14492,-0.0296 16.54573,-7.2975 16.55777,-16.26037 V 183.10251 c -0.0241,-8.95271 -7.42318,-16.20444 -16.55777,-16.22809 z m 0.23058,83.1313 h -94.02131 c -3.5993,0.14695 -6.59912,-2.67321 -6.59912,-6.20391 0,-3.53069 2.99982,-6.35086 6.59912,-6.20391 h 93.98837 c 3.39346,0.13855 6.07174,2.87514 6.07174,6.20391 0,3.32877 -2.67828,6.06536 -6.07174,6.20391 z m 0,-37.97674 h -94.02131 c -3.4929,0 -6.32445,-2.77518 -6.32445,-6.19853 0,-3.42336 2.83155,-6.19853 6.32445,-6.19853 h 93.98837 c 3.49298,0 6.32445,2.77517 6.32445,6.19853 0,3.42335 -2.83155,6.19853 -6.32445,6.19853 z"
     id="path3273"
     sodipodi:nodetypes="cccccccccccsccscccssssscc" />
  <path
     class="cls-5"
     d="m 341.57543,298.94827 c -3.49396,-0.0118 -6.32338,-2.7849 -6.33543,-6.20929 V 165.40012 c 0,-10.69689 -9.6404,-19.37041 -21.48776,-19.37041 h -7.91654 c -8.09566,-0.33053 -8.09566,-12.07728 0,-12.40781 h 7.91654 c 18.88755,0 34.14764,14.25853 34.14764,31.76745 v 127.34963 c -0.012,3.42021 -2.83478,6.19159 -6.32445,6.20929 z M 235.6848,360.13721 h -57.2275 c -18.79927,0 -34.14765,-14.25864 -34.14765,-31.76746 V 165.55077 c 0,-17.50869 15.23587,-31.76745 34.14765,-31.76745 h 9.34393 c 3.39346,0.13855 6.07174,2.87514 6.07174,6.20391 0,3.32877 -2.67828,6.06536 -6.07174,6.2039 h -9.34393 c -11.84737,0 -21.48776,8.66282 -21.48776,19.37041 v 162.81898 c 0,10.70752 9.63955,19.3704 21.48776,19.3704 h 57.2275 c 3.39345,0.13855 6.07173,2.87514 6.07173,6.20391 0,3.32877 -2.67828,6.06536 -6.07173,6.2039 z"
     id="path3275"
     sodipodi:nodetypes="ccssccsscccsssscscsssscscc" />
  <path
     class="cls-5"
     d="m 280.06575,360.13721 c -1.88824,0.0388 -3.7622,-0.32856 -5.48997,-1.07613 -5.93358,-2.25932 -9.83248,-7.86927 -9.8051,-14.10811 v -46.65038 c 0.042,-10.58332 8.77899,-19.15591 19.57725,-19.20898 h 49.6184 c 12.31603,0.0406 18.5443,14.55762 9.95881,23.21219 l -52.7916,53.19328 c -2.91018,2.93263 -6.89399,4.60599 -11.06779,4.64889 z m 4.28218,-68.64655 c -3.82119,0.0408 -6.90873,3.06681 -6.9503,6.81193 v 46.62886 c 0.0324,1.12953 0.70023,2.14863 1.73483,2.64729 0.98088,0.4572 2.15291,0.20979 2.85478,-0.60264 l 52.94532,-53.29012 c 0.31775,-0.39462 0.43127,-0.91115 0.30744,-1.39898 -0.13249,-0.48342 -0.58757,-0.81347 -1.09799,-0.79634 z M 220.785,152.38966 c -3.47254,-0.0352 -6.2737,-2.79499 -6.29151,-6.19853 v -12.21411 c -0.14994,-3.52764 2.72752,-6.46772 6.32994,-6.46772 3.60242,0 6.47988,2.94008 6.32994,6.46772 v 12.2464 c -0.0181,3.41494 -2.85106,6.16624 -6.33543,6.16624 z m 51.25441,0 c -3.4897,-0.0118 -6.31737,-2.77834 -6.33543,-6.19853 v -12.21411 c -0.14994,-3.52764 2.72752,-6.46772 6.32994,-6.46772 3.60242,0 6.47988,2.94008 6.32994,6.46772 v 12.2464 c -0.0476,3.39856 -2.85665,6.13731 -6.32445,6.16624 z"
     id="path3277"
     sodipodi:nodetypes="ccccccccccccccccccccccsccsccccsccc" />
  <rect
     class="cls-6"
     x="152.08"
     y="134.2"
     width="185.43"
     height="216.43"
     id="rect3279" />
  <path
     class="cls-5"
     d="m 327.48816,291.49066 h -14.39472 c -3.4929,0 -6.32445,-2.77517 -6.32445,-6.19852 0,-3.42336 2.82993,-6.19853 6.32445,-6.19853 h 14.39472 c 4.283,-0.006 7.75184,-3.40704 7.75184,-7.60827 v -13.61308 c 0.33725,-7.93447 12.32264,-7.93447 12.65988,0 v 13.80679 c -0.10246,10.97537 -9.21292,19.81798 -20.41172,19.81161 z"
     id="path3281"
     sodipodi:nodetypes="cssscscccc" />
</svg>
