<?xml version="1.0" encoding="UTF-8" standalone="no"?>
<svg
   xmlns:dc="http://purl.org/dc/elements/1.1/"
   xmlns:cc="http://creativecommons.org/ns#"
   xmlns:rdf="http://www.w3.org/1999/02/22-rdf-syntax-ns#"
   xmlns:svg="http://www.w3.org/2000/svg"
   xmlns="http://www.w3.org/2000/svg"
   xmlns:xlink="http://www.w3.org/1999/xlink"
   xmlns:sodipodi="http://sodipodi.sourceforge.net/DTD/sodipodi-0.dtd"
   xmlns:inkscape="http://www.inkscape.org/namespaces/inkscape"
   id="图层_1"
   data-name="图层 1"
   viewBox="0 0 484.83 484.83"
   version="1.1"
   sodipodi:docname="medal-2.svg"
   inkscape:version="1.0.2 (e86c8708, 2021-01-15)">
  <metadata
     id="metadata873">
    <rdf:RDF>
      <cc:Work
         rdf:about="">
        <dc:format>image/svg+xml</dc:format>
        <dc:type
           rdf:resource="http://purl.org/dc/dcmitype/StillImage" />
      </cc:Work>
    </rdf:RDF>
  </metadata>
  <sodipodi:namedview
     pagecolor="#ffffff"
     bordercolor="#666666"
     borderopacity="1"
     objecttolerance="10"
     gridtolerance="10"
     guidetolerance="10"
     inkscape:pageopacity="0"
     inkscape:pageshadow="2"
     inkscape:window-width="1637"
     inkscape:window-height="952"
     id="namedview871"
     showgrid="false"
     inkscape:zoom="1.4933069"
     inkscape:cx="242.415"
     inkscape:cy="242.415"
     inkscape:window-x="0"
     inkscape:window-y="25"
     inkscape:window-maximized="0"
     inkscape:current-layer="图层_1" />
  <defs
     id="defs846">
    <style
       id="style833">.cls-1,.cls-3,.cls-5{fill:none;stroke-miterlimit:10;}.cls-1{stroke-width:43px;stroke:url(#未命名的渐变_64);}.cls-2{fill:url(#未命名的渐变_7);}.cls-3{stroke-width:6px;stroke-dasharray:19.34 19.34;stroke:url(#未命名的渐变_64-2);}.cls-4{opacity:0.19;}.cls-5{stroke:#80b1da;}.cls-6{fill:#ecc32a;}</style>
    <linearGradient
       id="未命名的渐变_64"
       x1="40.7"
       y1="242.41"
       x2="444.13"
       y2="242.41"
       gradientUnits="userSpaceOnUse">
      <stop
         offset="0"
         stop-color="#bbe2f1"
         id="stop835" />
      <stop
         offset="1"
         stop-color="#4ea9e0"
         id="stop837" />
    </linearGradient>
    <linearGradient
       id="未命名的渐变_7"
       x1="60.55"
       y1="244.8"
       x2="420.97"
       y2="244.8"
       gradientUnits="userSpaceOnUse">
      <stop
         offset="0"
         stop-color="#458bca"
         id="stop840" />
      <stop
         offset="1"
         stop-color="#213859"
         id="stop842" />
    </linearGradient>
    <linearGradient
       id="未命名的渐变_64-2"
       x1="89.24"
       y1="242.41"
       x2="400.35"
       y2="242.41"
       xlink:href="#未命名的渐变_64" />
  </defs>
  <path
     class="cls-1"
     d="m 444.05895,339.31433 v -194.6868 c 0.004,-8.92513 -4.93965,-17.17222 -12.96347,-21.6271 L 256.09427,25.597942 c -8.0196,-4.457664 -17.89618,-4.457664 -25.91578,0 L 55.177277,122.9682 c -7.996487,4.48571 -12.903785,12.7416 -12.874293,21.65933 v 194.6868 c 8.77e-4,8.92112 4.937847,17.16461 12.952319,21.62709 l 175.001207,97.37026 c 8.01961,4.45767 17.89619,4.45767 25.91579,0 l 175.00121,-97.37026 c 7.99042,-4.47721 12.90068,-12.71865 12.88544,-21.62709 z"
     id="path848"
     sodipodi:nodetypes="ccccccccccccc" />
  <path
     class="cls-2"
     d="M 442.24206,341.92505 V 147.19527 c 0.001,-8.92171 -4.93617,-17.16623 -12.95232,-21.62709 L 254.28853,28.19792 c -8.01554,-4.457957 -17.8891,-4.457957 -25.90464,0 L 53.382678,125.56818 c -8.016154,4.46086 -12.953741,12.70538 -12.952319,21.62709 v 194.72978 c 8.77e-4,8.92112 4.937848,17.16461 12.952319,21.62709 L 228.38389,460.9224 c 8.01554,4.45796 17.8891,4.45796 25.90464,0 l 175.00121,-97.37026 c 8.01447,-4.46248 12.95144,-12.70597 12.95232,-21.62709 z"
     id="path850"
     sodipodi:nodetypes="ccccccccccccc" />
  <path
     class="cls-3"
     d="M 415.88041,324.4128 V 159.57203 c -0.0218,-7.53605 -4.19935,-14.49248 -10.96823,-18.26431 L 256.79651,58.838987 c -6.78593,-3.781383 -15.15053,-3.781383 -21.93646,0 L 86.755521,141.254 c -6.768882,3.77183 -10.946413,10.72827 -10.968229,18.26431 V 324.4128 c 0.01496,7.53783 4.194328,14.49732 10.968229,18.26431 l 148.160259,82.46873 c 6.78901,3.77031 15.14745,3.77031 21.93646,0 l 148.11568,-82.42575 c 6.76623,-3.78831 10.92495,-10.76517 10.91249,-18.30729 z"
     id="path852"
     sodipodi:nodetypes="ccccccccccccc" />
  <g
     class="cls-4"
     id="g866">
    <circle
       class="cls-5"
       cx="242.41"
       cy="242.63"
       r="30.04"
       id="circle854" />
    <circle
       class="cls-5"
       cx="242.41"
       cy="242.63"
       r="48.04"
       id="circle856" />
    <circle
       class="cls-5"
       cx="242.41"
       cy="242.63"
       r="71.04"
       id="circle858" />
    <circle
       class="cls-5"
       cx="242.41"
       cy="242.63"
       r="104.14"
       id="circle860" />
    <circle
       class="cls-5"
       cx="242.41"
       cy="242.63"
       r="134.04"
       id="circle862" />
    <circle
       class="cls-5"
       cx="242.41"
       cy="242.63"
       r="172.04"
       id="circle864" />
  </g>
  <path
     class="cls-6"
     d="m 377.11263,287.86269 -33.33941,-0.65536 c -0.4751,-0.003 -0.89575,-0.2967 -1.04777,-0.73058 l -10.95709,-30.21131 c -0.29797,-1.05683 -1.85331,-1.05683 -2.15128,0 l -10.95709,30.21131 c -0.15202,0.43388 -0.57267,0.72717 -1.04778,0.73058 l -33.3394,0.65536 c -1.1128,-0.0415 -1.59395,1.34215 -0.67994,1.95536 l 26.58458,19.33868 c 0.38619,0.27768 0.54356,0.76308 0.39013,1.2033 l -9.64179,30.61957 c -0.37004,1.01935 0.87637,1.86872 1.75002,1.19256 l 27.39827,-18.26431 c 0.38697,-0.26557 0.90604,-0.26557 1.29301,0 l 27.39828,18.26431 c 0.87364,0.67616 2.12005,-0.17321 1.75001,-1.19256 l -9.67523,-30.67329 c -0.13008,-0.44019 0.0232,-0.91282 0.39013,-1.2033 l 26.58458,-19.33868 c 0.94809,-0.62733 0.40922,-2.05959 -0.73567,-1.95536 z m -47.40638,46.19796 -14.23418,9.50819 h 30.4413 l -14.23418,-9.50819 c -0.59686,-0.38543 -1.37608,-0.38543 -1.97294,0 z m -93.79842,-92.39592 c 26.00524,-0.15189 49.36233,-15.36843 59.20351,-38.56953 9.84115,-23.20105 4.23358,-49.82996 -14.21221,-67.49893 -18.44579,-17.66897 -46.10752,-22.90829 -70.11694,-13.27882 -24.00946,9.62949 -39.65113,32.23653 -39.6471,57.30235 0.18423,34.32465 29.16068,62.02792 64.77274,61.92675 z m 64.0928,70.3928 -39.80442,-28.90058 c -1.30257,-0.93283 -0.63062,-2.92678 0.99205,-2.94378 l 49.91436,-0.97768 c 0.70281,-0.0215 1.32504,-0.4438 1.58281,-1.07437 l 4.22455,-11.65693 c -10.93961,-12.35114 -24.66559,-22.12656 -40.12767,-28.57827 -24.74924,15.89926 -56.98858,15.89926 -81.73782,0 -34.94451,14.4288 -61.08323,46.78886 -67.70429,86.06788 -1.69334,10.3053 6.57481,19.62752 17.3998,19.61801 h 146.46598 l 9.38542,-29.78157 c 0.20095,-0.64857 -0.034,-1.34941 -0.59077,-1.76196 z"
     id="path868"
     sodipodi:nodetypes="ccccccccccccccccccccccccccccsssccccccccccccccccc" />
</svg>
