<?xml version="1.0" encoding="UTF-8" standalone="no"?>
<svg
   xmlns:dc="http://purl.org/dc/elements/1.1/"
   xmlns:cc="http://creativecommons.org/ns#"
   xmlns:rdf="http://www.w3.org/1999/02/22-rdf-syntax-ns#"
   xmlns:svg="http://www.w3.org/2000/svg"
   xmlns="http://www.w3.org/2000/svg"
   xmlns:sodipodi="http://sodipodi.sourceforge.net/DTD/sodipodi-0.dtd"
   xmlns:inkscape="http://www.inkscape.org/namespaces/inkscape"
   id="图层_1"
   data-name="图层 1"
   viewBox="0 0 484.83 484.83"
   version="1.1"
   sodipodi:docname="medal-4.svg"
   inkscape:version="1.0.2 (e86c8708, 2021-01-15)">
  <metadata
     id="metadata1506">
    <rdf:RDF>
      <cc:Work
         rdf:about="">
        <dc:format>image/svg+xml</dc:format>
        <dc:type
           rdf:resource="http://purl.org/dc/dcmitype/StillImage" />
      </cc:Work>
    </rdf:RDF>
  </metadata>
  <sodipodi:namedview
     pagecolor="#ffffff"
     bordercolor="#666666"
     borderopacity="1"
     objecttolerance="10"
     gridtolerance="10"
     guidetolerance="10"
     inkscape:pageopacity="0"
     inkscape:pageshadow="2"
     inkscape:window-width="1701"
     inkscape:window-height="929"
     id="namedview1504"
     showgrid="false"
     inkscape:zoom="1.2367769"
     inkscape:cx="137.50384"
     inkscape:cy="267.96883"
     inkscape:window-x="0"
     inkscape:window-y="25"
     inkscape:window-maximized="0"
     inkscape:current-layer="图层_1" />
  <defs
     id="defs1491">
    <style
       id="style1482">.cls-1,.cls-3{fill:none;}.cls-1,.cls-3,.cls-4{stroke-miterlimit:10;}.cls-1{stroke-width:43px;stroke:url(#未命名的渐变_4);}.cls-2{fill:#1b2f4e;}.cls-3{stroke:#fff;stroke-linecap:round;stroke-width:4.2px;stroke-dasharray:12.73 12.73;}.cls-4{fill:#fff;stroke:#f7f7f7;stroke-width:0.71px;}</style>
    <linearGradient
       id="未命名的渐变_4"
       x1="40.7"
       y1="242.41"
       x2="444.13"
       y2="242.41"
       gradientUnits="userSpaceOnUse">
      <stop
         offset="0"
         stop-color="#6ba8dc"
         id="stop1484" />
      <stop
         offset="0.48"
         stop-color="#6599d1"
         id="stop1486" />
      <stop
         offset="1"
         stop-color="#83b9e5"
         id="stop1488" />
    </linearGradient>
  </defs>
  <path
     class="cls-1"
     d="M 444.46094,339.54921 V 145.24296 c 0.004,-8.90768 -4.95843,-17.13865 -13.01275,-21.58482 L 255.78168,26.446042 c -8.05009,-4.448951 -17.96422,-4.448951 -26.01431,0 L 54.100853,123.62597 c -8.026887,4.47694 -12.952841,12.71669 -12.923237,21.61699 v 194.30625 c 8.8e-4,8.90368 4.95662,17.13106 13.00156,21.58482 l 175.666514,97.17993 c 8.05009,4.44895 17.96422,4.44895 26.01431,0 l 175.66651,-97.17993 c 8.0208,-4.46846 12.94972,-12.6938 12.93443,-21.58482 z"
     id="path1493"
     sodipodi:nodetypes="ccccccccccccc" />
  <path
     class="cls-2"
     d="M 444.46094,339.54921 V 145.24296 c 0.004,-8.90768 -4.95843,-17.13865 -13.01275,-21.58482 L 255.78168,26.446042 c -8.05009,-4.448951 -17.96422,-4.448951 -26.01431,0 L 54.100853,123.62597 c -8.026887,4.47694 -12.952841,12.71669 -12.923237,21.61699 v 194.30625 c 8.8e-4,8.90368 4.95662,17.13106 13.00156,21.58482 l 175.666514,97.17993 c 8.05009,4.44895 17.96422,4.44895 26.01431,0 l 175.66651,-97.17993 c 8.0208,-4.46846 12.94972,-12.6938 12.93443,-21.58482 z"
     id="path1495"
     sodipodi:nodetypes="ccccccccccccc" />
  <path
     class="cls-3"
     d="M 416.17527,324.67681 V 160.15825 c -0.0219,-7.52131 -4.21531,-14.46415 -11.00992,-18.22861 L 256.48658,59.62211 c -6.81173,-3.773991 -15.20813,-3.773991 -22.01985,0 L 85.799148,141.87603 c -6.794615,3.76446 -10.988028,10.70729 -11.009927,18.22861 v 164.57217 c 0.01502,7.52309 4.210274,14.46898 11.009927,18.22861 l 148.723522,82.30753 c 6.81482,3.76294 15.20504,3.76294 22.01985,0 l 148.67877,-82.26464 c 6.79196,-3.78091 10.96649,-10.74413 10.95398,-18.2715 z"
     id="path1497"
     sodipodi:nodetypes="ccccccccccccc" />
  <path
     class="cls-4"
     d="M 335.5477,172.27491 V 323.69032 H 143.69077 V 172.27491 H 335.5477 m 0,-21.6277 H 143.69077 c -12.46402,0 -22.56811,9.68305 -22.56811,21.6277 v 151.41541 c 0,11.94525 10.10409,21.62771 22.56811,21.62771 H 335.5477 c 12.46401,0 22.56811,-9.68157 22.56811,-21.62771 V 172.27491 c -0.006,-11.9422 -10.10665,-21.62179 -22.56811,-21.6277 z"
     id="path1499"
     sodipodi:nodetypes="ccccccsssssscc" />
  <path
     class="cls-4"
     d="m 230.96458,300.94745 v 0 c 0,0 -8.47981,-1.65115 -11.51343,-4.61077 l -34.79763,-33.73365 c -4.3998,-4.24607 -4.37474,-11.10629 0.056,-15.32275 4.43069,-4.21645 11.58921,-4.19246 15.989,0.0536 l 30.21017,29.32662 58.10422,-56.3264 c 4.38126,-4.26384 11.53977,-4.31664 15.989,-0.11795 4.44923,4.19869 4.50434,11.05891 0.12308,15.32275 l -62.65812,60.73344 c -3.0182,2.98266 -11.50224,4.6751 -11.50224,4.6751 z m 59.15598,-110.15441 c -6.23329,0.006 -11.28965,-4.83494 -11.28965,-10.8085 v -43.30903 c 0.19191,-5.8398 5.18731,-10.47865 11.28406,-10.47865 6.09674,0 11.09214,4.63885 11.28405,10.47865 v 43.26614 c 0,5.97588 -5.04954,10.8085 -11.27846,10.8085 z m -102.41246,0 c -6.23329,0.006 -11.28965,-4.83494 -11.28965,-10.8085 v -43.30903 c 0.19191,-5.8398 5.18731,-10.47865 11.28406,-10.47865 6.09675,0 11.09214,4.63885 11.28406,10.47865 v 43.26614 c 0,5.96937 -5.04954,10.8085 -11.27847,10.8085 z"
     id="path1501"
     sodipodi:nodetypes="ssccscccsccscscscscccscscscc" />
</svg>
