<?xml version="1.0" encoding="UTF-8" standalone="no"?>
<svg
   xmlns:dc="http://purl.org/dc/elements/1.1/"
   xmlns:cc="http://creativecommons.org/ns#"
   xmlns:rdf="http://www.w3.org/1999/02/22-rdf-syntax-ns#"
   xmlns:svg="http://www.w3.org/2000/svg"
   xmlns="http://www.w3.org/2000/svg"
   xmlns:xlink="http://www.w3.org/1999/xlink"
   xmlns:sodipodi="http://sodipodi.sourceforge.net/DTD/sodipodi-0.dtd"
   xmlns:inkscape="http://www.inkscape.org/namespaces/inkscape"
   id="图层_1"
   data-name="图层 1"
   viewBox="0 0 484.83 484.83"
   version="1.1"
   sodipodi:docname="medal-5.svg"
   inkscape:version="1.0.2 (e86c8708, 2021-01-15)">
  <metadata
     id="metadata2115">
    <rdf:RDF>
      <cc:Work
         rdf:about="">
        <dc:format>image/svg+xml</dc:format>
        <dc:type
           rdf:resource="http://purl.org/dc/dcmitype/StillImage" />
      </cc:Work>
    </rdf:RDF>
  </metadata>
  <sodipodi:namedview
     pagecolor="#ffffff"
     bordercolor="#666666"
     borderopacity="1"
     objecttolerance="10"
     gridtolerance="10"
     guidetolerance="10"
     inkscape:pageopacity="0"
     inkscape:pageshadow="2"
     inkscape:window-width="1705"
     inkscape:window-height="815"
     id="namedview2113"
     showgrid="false"
     inkscape:zoom="1.2367769"
     inkscape:cx="134.42518"
     inkscape:cy="249.3222"
     inkscape:window-x="0"
     inkscape:window-y="25"
     inkscape:window-maximized="0"
     inkscape:current-layer="图层_1" />
  <defs
     id="defs2080">
    <style
       id="style2069">.cls-1,.cls-3,.cls-5{fill:none;stroke-miterlimit:10;}.cls-1{stroke-width:43px;stroke:url(#未命名的渐变_3);}.cls-2{fill:#1b2f4e;}.cls-3{stroke-linecap:round;stroke-width:4.2px;stroke-dasharray:12.73 12.73;stroke:url(#未命名的渐变_3-2);}.cls-4{opacity:0.19;}.cls-5{stroke:#80b1da;stroke-width:2px;}.cls-6{fill:#e39452;}.cls-7{fill:url(#未命名的渐变_3-3);}.cls-8{fill:url(#未命名的渐变_3-4);}.cls-9{fill:url(#未命名的渐变_3-5);}</style>
    <linearGradient
       id="未命名的渐变_3"
       x1="44.54"
       y1="239.41"
       x2="447.96"
       y2="239.41"
       gradientUnits="userSpaceOnUse">
      <stop
         offset="0"
         stop-color="#ec9953"
         id="stop2071" />
      <stop
         offset="1"
         stop-color="#ed7333"
         id="stop2073" />
    </linearGradient>
    <linearGradient
       id="未命名的渐变_3-2"
       x1="95.14"
       y1="242.41"
       x2="404.45"
       y2="242.41"
       xlink:href="#未命名的渐变_3" />
    <linearGradient
       id="未命名的渐变_3-3"
       x1="273.51"
       y1="389.66"
       x2="314.35"
       y2="389.66"
       xlink:href="#未命名的渐变_3" />
    <linearGradient
       id="未命名的渐变_3-4"
       x1="120.36"
       y1="198.92"
       x2="161.2"
       y2="198.92"
       gradientTransform="translate(343.27 176.26) rotate(120)"
       xlink:href="#未命名的渐变_3" />
    <linearGradient
       id="未命名的渐变_3-5"
       x1="-26.48"
       y1="-34.08"
       x2="14.37"
       y2="-34.08"
       gradientTransform="translate(397.4 117.16) rotate(-120)"
       xlink:href="#未命名的渐变_3" />
  </defs>
  <path
     class="cls-1"
     d="M 442.22286,339.78342 V 145.47717 c 0.001,-8.90427 -4.88034,-17.13268 -12.80583,-21.58482 L 256.42811,26.680255 c -7.92488,-4.449244 -17.68678,-4.449244 -25.61166,0 L 57.794467,123.86019 c -7.939975,4.45515 -12.827811,12.699 -12.816851,21.61698 v 194.30625 c 8.67e-4,8.90369 4.882002,17.13106 12.805831,21.58482 l 173.021983,97.17993 c 7.92488,4.44924 17.68678,4.44924 25.61166,0 l 173.02198,-97.17993 c 7.91535,-4.4592 12.78747,-12.68555 12.78379,-21.58482 z"
     id="path2082"
     sodipodi:nodetypes="ccccccccccccc" />
  <path
     class="cls-2"
     d="M 446.63106,339.78342 V 145.47717 c 0.001,-8.90427 -4.88033,-17.13268 -12.80583,-21.58482 L 260.83631,26.680255 c -7.92488,-4.449244 -17.68677,-4.449244 -25.61166,0 L 62.202671,123.86019 c -7.939976,4.45515 -12.827812,12.699 -12.816852,21.61698 v 194.30625 c 8.67e-4,8.90369 4.882002,17.13106 12.805831,21.58482 l 173.02198,97.17993 c 7.92489,4.44924 17.68678,4.44924 25.61166,0 l 173.02198,-97.17993 c 7.91535,-4.4592 12.78748,-12.68555 12.78379,-21.58482 z"
     id="path2084"
     sodipodi:nodetypes="ccccccccccccc" />
  <path
     class="cls-3"
     d="M 415.65242,328.12783 V 163.60928 c -0.0216,-7.52132 -4.15186,-14.46415 -10.84418,-18.22861 L 258.36772,63.073137 c -6.70918,-3.773992 -14.97918,-3.773992 -21.68836,0 L 90.249864,145.32705 c -6.692326,3.76446 -10.822611,10.7073 -10.84418,18.22861 v 164.57217 c 0.01479,7.5231 4.146891,14.46899 10.84418,18.22861 l 146.484596,82.30754 c 6.71223,3.76293 14.97614,3.76293 21.68836,0 l 146.44052,-82.26465 c 6.68971,-3.7809 10.8014,-10.74412 10.78908,-18.2715 z"
     id="path2086"
     sodipodi:nodetypes="ccccccccccccc" />
  <g
     class="cls-4"
     id="g2100">
    <circle
       class="cls-5"
       cx="248.5"
       cy="240.41"
       r="30.04"
       id="circle2088" />
    <circle
       class="cls-5"
       cx="248.5"
       cy="240.41"
       r="48.04"
       id="circle2090" />
    <circle
       class="cls-5"
       cx="248.5"
       cy="240.41"
       r="71.04"
       id="circle2092" />
    <circle
       class="cls-5"
       cx="248.5"
       cy="240.41"
       r="104.14"
       id="circle2094" />
    <circle
       class="cls-5"
       cx="248.5"
       cy="240.41"
       r="134.04"
       id="circle2096" />
    <circle
       class="cls-5"
       cx="248.5"
       cy="240.41"
       r="172.04"
       id="circle2098" />
  </g>
  <path
     class="cls-6"
     d="M 339.80928,180.41177 V 331.81645 H 150.84062 V 180.41177 h 188.96866 m 0,-21.62771 H 150.84062 c -12.27637,0 -22.22837,9.68287 -22.22837,21.62771 v 151.40468 c 0,11.94465 9.95198,21.62771 22.22837,21.62771 h 188.96866 c 12.27638,0 22.22836,-9.68302 22.22836,-21.62771 V 180.41177 c 0,-11.94466 -9.95198,-21.62771 -22.22836,-21.62771 z"
     id="path2102"
     sodipodi:nodetypes="cccccsssssssss" />
  <path
     class="cls-6"
     d="m 236.80058,309.04141 v 0 c 0,0 -8.35984,-1.66841 -11.3401,-4.64294 L 191.1867,270.66483 c -4.59186,-4.19459 -4.68467,-11.26071 -0.2045,-15.5681 4.48017,-4.3074 11.74092,-4.13278 15.99689,0.38474 l 29.81047,29.33733 57.25155,-56.3264 c 4.34548,-4.07694 11.24039,-4.0359 15.53428,0.0925 4.29389,4.12837 4.41824,10.83599 0.28015,15.11234 l -61.71485,60.73343 c -2.98456,2.95799 -7.0688,4.61077 -11.32908,4.61077 z M 295.06601,198.887 c -6.14123,0 -11.11969,-4.84355 -11.11969,-10.81922 v -43.25542 c -0.19763,-6.10572 4.83578,-11.15977 11.11418,-11.15977 6.2784,0 11.31181,5.05405 11.11419,11.15977 v 43.25542 c 0.006,5.97355 -4.96922,10.81922 -11.10868,10.81922 z m -100.87071,0 c -6.14124,0 -11.11969,-4.84393 -11.11969,-10.81922 v -43.25542 c -0.19763,-6.10572 4.83578,-11.15977 11.11418,-11.15977 6.2784,0 11.31181,5.05405 11.11418,11.15977 v 43.25542 c 0.006,5.97355 -4.96921,10.81922 -11.10867,10.81922 z"
     id="path2104"
     sodipodi:nodetypes="csccscccsccscsscsccssscsccs" />
  <path
     class="cls-7"
     d="m 276.89319,421.35109 c -6.99115,-11.25312 -3.11854,-25.89838 8.58629,-32.47135 11.70483,-6.57297 26.67534,-2.50926 33.19246,9.01005"
     id="path2106"
     sodipodi:nodetypes="csc" />
  <path
     class="cls-8"
     d="m 77.091377,173.97814 c 13.119348,0.27288 23.608303,10.69891 23.608303,23.46665 0,12.76775 -10.488955,23.19378 -23.608303,23.46666"
     id="path2108"
     sodipodi:nodetypes="csc" />
  <path
     class="cls-9"
     d="m 406.30702,142.90372 c -6.36156,11.82833 -21.56786,16.11951 -33.44684,9.43865 -11.87898,-6.68086 -15.64697,-21.64339 -8.28782,-32.91066"
     id="path2110"
     sodipodi:nodetypes="csc" />
</svg>
