<svg xmlns="http://www.w3.org/2000/svg" xmlns:xlink="http://www.w3.org/1999/xlink" viewBox="0 0 400 240"><defs><style>.cls-1{fill:#fff;}.cls-2,.cls-46{fill:none;}.cls-3,.cls-42,.cls-43{isolation:isolate;}.cls-4{fill:url(#未命名的渐变_3);}.cls-10,.cls-18,.cls-24,.cls-5,.cls-6,.cls-7,.cls-8,.cls-9{mix-blend-mode:multiply;}.cls-5{fill:url(#radial-gradient);}.cls-6{opacity:0.38;fill:url(#radial-gradient-2);}.cls-7{fill:url(#radial-gradient-3);}.cls-8{opacity:0.3;fill:url(#radial-gradient-4);}.cls-9{opacity:0.18;fill:url(#radial-gradient-5);}.cls-10{opacity:0.36;fill:url(#radial-gradient-6);}.cls-11{fill:url(#linear-gradient);}.cls-12{fill:url(#未命名的渐变_75);}.cls-13{fill:url(#未命名的渐变_75-2);}.cls-14{fill:url(#linear-gradient-2);}.cls-15{fill:url(#未命名的渐变_5);}.cls-16{fill:url(#未命名的渐变_5-2);}.cls-17{fill:url(#未命名的渐变_7);}.cls-18{fill:url(#linear-gradient-3);}.cls-19{fill:url(#未命名的渐变_75-3);}.cls-20{fill:url(#linear-gradient-4);}.cls-21{fill:url(#linear-gradient-5);}.cls-22{fill:url(#未命名的渐变_75-4);}.cls-23{fill:url(#未命名的渐变_51);}.cls-24{fill:url(#linear-gradient-6);}.cls-25{fill:url(#linear-gradient-7);}.cls-26{fill:url(#未命名的渐变_75-5);}.cls-27{fill:url(#未命名的渐变_75-6);}.cls-28{fill:url(#未命名的渐变_75-7);}.cls-29{fill:url(#未命名的渐变_75-8);}.cls-30{fill:url(#未命名的渐变_75-9);}.cls-31{fill:url(#未命名的渐变_7-2);}.cls-32{fill:url(#未命名的渐变_13);}.cls-33{fill:url(#未命名的渐变_13-2);}.cls-34{fill:url(#未命名的渐变_15);}.cls-35{fill:url(#未命名的渐变_15-2);}.cls-36{fill:url(#未命名的渐变_11);}.cls-37{fill:url(#未命名的渐变_11-2);}.cls-38{fill:url(#未命名的渐变_10);}.cls-39{fill:url(#未命名的渐变_13-3);}.cls-40{fill:#fddcbd;}.cls-41{fill:url(#未命名的渐变_12);}.cls-42{opacity:0.84;fill:url(#未命名的渐变_2);}.cls-43{opacity:0.66;fill:url(#未命名的渐变_16);}.cls-44{clip-path:url(#clip-path);}.cls-45{clip-path:url(#clip-path-2);}.cls-46{stroke-miterlimit:10;stroke-width:13.68px;stroke:url(#未命名的渐变_63);}</style><linearGradient id="未命名的渐变_3" x1="356.6" y1="-1514.49" x2="356.6" y2="-1514.99" gradientTransform="matrix(390, 0, 0, -196, -138873, -296716)" gradientUnits="userSpaceOnUse"><stop offset="0" stop-color="#a9a9a9" stop-opacity="0.15"/><stop offset="1" stop-color="#a9a9a9" stop-opacity="0"/></linearGradient><radialGradient id="radial-gradient" cx="195.38" cy="8871.9" r="38.96" gradientTransform="translate(-83.1 -1387.47) scale(1.17 0.17)" gradientUnits="userSpaceOnUse"><stop offset="0" stop-color="#808184"/><stop offset="0.07" stop-color="#9a9a9d"/><stop offset="0.17" stop-color="#b9b9bb"/><stop offset="0.28" stop-color="#d2d3d4"/><stop offset="0.4" stop-color="#e6e7e7"/><stop offset="0.53" stop-color="#f4f4f5"/><stop offset="0.7" stop-color="#fdfdfd"/><stop offset="0.99" stop-color="#fff"/></radialGradient><radialGradient id="radial-gradient-2" cx="184.53" cy="8862.64" r="38.96" xlink:href="#radial-gradient"/><radialGradient id="radial-gradient-3" cx="298.25" cy="8882.59" r="38.96" xlink:href="#radial-gradient"/><radialGradient id="radial-gradient-4" cx="314.15" cy="7674.44" r="38.96" gradientTransform="translate(-83.1 -1349.05) scale(1.17 0.2)" xlink:href="#radial-gradient"/><radialGradient id="radial-gradient-5" cx="432.86" cy="7675.7" r="38.96" gradientTransform="translate(-1310.4 -1349.05) scale(3.5 0.2)" xlink:href="#radial-gradient"/><radialGradient id="radial-gradient-6" cx="320.89" cy="8877.84" r="38.96" gradientTransform="translate(-331.83 -1387.47) scale(1.64 0.17)" xlink:href="#radial-gradient"/><linearGradient id="linear-gradient" x1="146.4" y1="111.36" x2="172.14" y2="111.36" gradientUnits="userSpaceOnUse"><stop offset="0" stop-color="#e5e6e7"/><stop offset="1" stop-color="#929497"/></linearGradient><linearGradient id="未命名的渐变_75" x1="124.59" y1="138.61" x2="140" y2="138.61" gradientUnits="userSpaceOnUse"><stop offset="0" stop-color="#eee"/><stop offset="0.03" stop-color="#ddd"/><stop offset="1" stop-color="#d8d8d8"/></linearGradient><linearGradient id="未命名的渐变_75-2" x1="124.59" y1="103.6" x2="140" y2="103.6" xlink:href="#未命名的渐变_75"/><linearGradient id="linear-gradient-2" x1="117.44" y1="111.47" x2="140" y2="111.47" xlink:href="#linear-gradient"/><linearGradient id="未命名的渐变_5" x1="92.61" y1="122.54" x2="105.53" y2="122.54" gradientUnits="userSpaceOnUse"><stop offset="0" stop-color="#eee"/><stop offset="1" stop-color="#d8d8d8"/></linearGradient><linearGradient id="未命名的渐变_5-2" x1="92.61" y1="88.45" x2="126.47" y2="88.45" xlink:href="#未命名的渐变_5"/><linearGradient id="未命名的渐变_7" x1="105.53" y1="105.51" x2="172.14" y2="105.51" gradientUnits="userSpaceOnUse"><stop offset="0" stop-color="#dedede"/><stop offset="1" stop-color="#fdfdfd"/></linearGradient><linearGradient id="linear-gradient-3" x1="159.74" y1="121.44" x2="183.25" y2="118.98" gradientUnits="userSpaceOnUse"><stop offset="0" stop-color="#fff"/><stop offset="0.08" stop-color="#f4f4f4"/><stop offset="0.51" stop-color="#bfc0c2"/><stop offset="0.83" stop-color="#9ea0a3"/><stop offset="1" stop-color="#929497"/></linearGradient><linearGradient id="未命名的渐变_75-3" x1="188.02" y1="105.7" x2="206" y2="105.7" xlink:href="#未命名的渐变_75"/><linearGradient id="linear-gradient-4" x1="229.25" y1="106" x2="235.68" y2="106" xlink:href="#linear-gradient"/><linearGradient id="linear-gradient-5" x1="228.49" y1="114.21" x2="235.55" y2="114.21" xlink:href="#linear-gradient"/><linearGradient id="未命名的渐变_75-4" x1="209.8" y1="105.7" x2="235.68" y2="105.7" xlink:href="#未命名的渐变_75"/><linearGradient id="未命名的渐变_51" x1="162.6" y1="105.69" x2="229.4" y2="105.69" xlink:href="#未命名的渐变_7"/><linearGradient id="linear-gradient-6" x1="217.9" y1="120.79" x2="252.42" y2="137.68" gradientUnits="userSpaceOnUse"><stop offset="0" stop-color="#fff"/><stop offset="0.26" stop-color="#dbdbdc"/><stop offset="0.58" stop-color="#b3b5b7"/><stop offset="0.84" stop-color="#9b9da0"/><stop offset="1" stop-color="#929497"/></linearGradient><linearGradient id="linear-gradient-7" x1="268.56" y1="111.78" x2="253.08" y2="114.43" xlink:href="#linear-gradient"/><linearGradient id="未命名的渐变_75-5" x1="280.86" y1="63.58" x2="245.02" y2="121.94" xlink:href="#未命名的渐变_75"/><linearGradient id="未命名的渐变_75-6" x1="289.51" y1="151.94" x2="284.41" y2="130.07" xlink:href="#未命名的渐变_75"/><linearGradient id="未命名的渐变_75-7" x1="283.05" y1="105.55" x2="290.84" y2="105.55" xlink:href="#未命名的渐变_75"/><linearGradient id="未命名的渐变_75-8" x1="292.66" y1="123.56" x2="299.68" y2="123.56" xlink:href="#未命名的渐变_75"/><linearGradient id="未命名的渐变_75-9" x1="283.05" y1="113.5" x2="299.68" y2="113.5" xlink:href="#未命名的渐变_75"/><linearGradient id="未命名的渐变_7-2" x1="223.44" y1="107.78" x2="292.67" y2="107.78" xlink:href="#未命名的渐变_7"/><linearGradient id="未命名的渐变_13" x1="84.78" y1="184.25" x2="100.3" y2="184.25" gradientUnits="userSpaceOnUse"><stop offset="0" stop-color="#8caefb"/><stop offset="1" stop-color="#6894f9"/></linearGradient><linearGradient id="未命名的渐变_13-2" x1="89.67" y1="184.09" x2="108.49" y2="184.09" xlink:href="#未命名的渐变_13"/><linearGradient id="未命名的渐变_15" x1="103.1" y1="215.06" x2="114.99" y2="215.06" gradientUnits="userSpaceOnUse"><stop offset="0" stop-color="#1f1e4a"/><stop offset="1" stop-color="#424677"/></linearGradient><linearGradient id="未命名的渐变_15-2" x1="85.03" y1="215.13" x2="97" y2="215.13" xlink:href="#未命名的渐变_15"/><linearGradient id="未命名的渐变_11" x1="89.74" y1="117.01" x2="102.71" y2="117.01" gradientUnits="userSpaceOnUse"><stop offset="0" stop-color="#494983"/><stop offset="1" stop-color="#272557"/></linearGradient><linearGradient id="未命名的渐变_11-2" x1="89.91" y1="117.13" x2="102.42" y2="117.13" xlink:href="#未命名的渐变_11"/><linearGradient id="未命名的渐变_10" x1="93.68" y1="120.55" x2="102.38" y2="120.55" gradientUnits="userSpaceOnUse"><stop offset="0" stop-color="#fff7ed"/><stop offset="1" stop-color="#ffebd6"/></linearGradient><linearGradient id="未命名的渐变_13-3" x1="70" y1="109.66" x2="87" y2="109.66" xlink:href="#未命名的渐变_13"/><linearGradient id="未命名的渐变_12" x1="78" y1="141.23" x2="117.24" y2="141.23" gradientUnits="userSpaceOnUse"><stop offset="0" stop-color="#fda457"/><stop offset="1" stop-color="#f96252"/></linearGradient><radialGradient id="未命名的渐变_2" cx="455.78" cy="-1522.33" r="1.3" gradientTransform="matrix(0, 21, 22.62, 0, 34680.5, -9364.95)" gradientUnits="userSpaceOnUse"><stop offset="0" stop-color="#fff"/><stop offset="1" stop-color="#c2c2c2"/></radialGradient><radialGradient id="未命名的渐变_16" cx="480.37" cy="-1513.98" r="0.94" gradientTransform="matrix(0, 16, 17.23, 0, 26408.57, -7558.25)" gradientUnits="userSpaceOnUse"><stop offset="0" stop-color="#fff"/><stop offset="1" stop-color="#d8d8d8"/></radialGradient><clipPath id="clip-path"><path class="cls-1" d="M730.34,1078.72H726a1.32,1.32,0,0,1-1.32-1.32v-6.15a1.32,1.32,0,0,1,2.64,0v4.83h3.07a1.32,1.32,0,1,1,0,2.64Z"/></clipPath><clipPath id="clip-path-2"><rect class="cls-2" x="-513" y="-28" width="400" height="359"/></clipPath><linearGradient id="未命名的渐变_63" x1="-196.69" y1="105.53" x2="133.15" y2="105.53" gradientUnits="userSpaceOnUse"><stop offset="0" stop-color="#dedede"/><stop offset="0.03" stop-color="#e5e5e5" stop-opacity="0.78"/><stop offset="0.06" stop-color="#ebebeb" stop-opacity="0.58"/><stop offset="0.09" stop-color="#f0f0f0" stop-opacity="0.41"/><stop offset="0.13" stop-color="#f5f5f5" stop-opacity="0.28"/><stop offset="0.16" stop-color="#f8f8f8" stop-opacity="0.17"/><stop offset="0.2" stop-color="#fafafa" stop-opacity="0.1"/><stop offset="0.24" stop-color="#fcfcfc" stop-opacity="0.05"/><stop offset="0.3" stop-color="#fcfcfc" stop-opacity="0.04"/><stop offset="1" stop-color="#fdfdfd" stop-opacity="0"/></linearGradient></defs><title>404</title><g class="cls-3"><g id="图层_1" data-name="图层 1"><ellipse id="背景" class="cls-4" cx="200" cy="222.36" rx="195" ry="98"/><ellipse class="cls-5" cx="145.67" cy="147.37" rx="45.62" ry="6.74"/><ellipse class="cls-6" cx="132.97" cy="145.76" rx="45.62" ry="6.74"/><ellipse class="cls-7" cx="266.12" cy="149.22" rx="45.62" ry="6.74"/><ellipse class="cls-8" cx="284.73" cy="148.23" rx="45.62" ry="7.6"/><ellipse class="cls-9" cx="202.81" cy="148.48" rx="136.19" ry="7.6"/><ellipse class="cls-10" cx="194.53" cy="148.39" rx="63.9" ry="6.74"/><g class="cls-3"><polygon class="cls-11" points="163.44 111.6 146.4 111.14 154.51 111.11 172.14 111.57 163.44 111.6"/><polygon class="cls-12" points="140 131.48 140 147.79 124.59 144.43 124.59 129.43 140 131.48"/><polygon class="cls-13" points="140 111.69 124.59 111.21 124.59 96.32 140 95.5 140 111.69"/><polygon class="cls-14" points="132.3 111.72 117.44 111.24 124.59 111.21 140 111.69 132.3 111.72"/><polygon class="cls-15" points="105.53 132.06 92.61 129.91 92.61 113.02 105.53 113.66 105.53 132.06"/><polygon class="cls-16" points="105.53 113.66 92.61 113.02 112.02 66.65 126.47 63.23 105.53 113.66"/><polygon class="cls-17" points="172.14 111.57 172.14 130.95 163.44 131.1 163.44 147.15 160.43 147.23 140 147.79 140 131.48 124.59 131.74 105.53 132.06 105.53 113.66 126.47 63.23 151.09 63.9 132.29 111.72 140 111.7 140 95.5 157.13 95.62 163.44 95.66 163.44 111.6 172.14 111.57"/></g><path class="cls-18" d="M172.14,111.57V131l-8.7.15v16.05l-3,.08a89.32,89.32,0,0,1-3.3-51.61l6.31,0V111.6Z"/><g class="cls-3"><path class="cls-19" d="M205.65,127.78l-.28,0h-.06l-.29,0h-.36a5.48,5.48,0,0,1-1.85-.3h0a4.38,4.38,0,0,1-.79-.37h0a4.44,4.44,0,0,1-.72-.53h0a5.1,5.1,0,0,1-.59-.63l-.12-.16c-.17-.23-.33-.47-.49-.73l0-.05c-.15-.28-.3-.59-.44-.92,0-.08-.07-.15-.1-.23-.13-.34-.26-.69-.38-1.08,0,0,0-.08,0-.12-.11-.37-.21-.76-.3-1.16a2.68,2.68,0,0,1-.07-.27c-.09-.43-.18-.88-.26-1.36,0-.19-.06-.38-.09-.57-.06-.36-.11-.73-.16-1.12,0-.22-.05-.46-.08-.69s-.08-.78-.12-1.18-.06-.69-.09-1.05c0-.09,0-.17,0-.26,0-.55-.07-1.12-.1-1.7,0-.13,0-.26,0-.4,0-.4,0-.81-.05-1.23,0-.11,0-.22,0-.33,0-.52,0-1.06-.05-1.61v-.42c0-.44,0-.89,0-1.35,0-.17,0-.33,0-.5,0-.6,0-1.2,0-1.83s0-1.37,0-2c0-.16,0-.31,0-.47,0-.64,0-1.27,0-1.88v-.22c0-.56,0-1.09,0-1.61,0-.13,0-.26,0-.38,0-.56.05-1.11.08-1.64,0-.11,0-.22,0-.33,0-.36,0-.71.07-1l0-.4c0-.2,0-.38.05-.57,0-.52.09-1,.15-1.51,0-.11,0-.22,0-.33.07-.58.14-1.13.23-1.65l0-.14q.13-.81.3-1.53v0c.11-.49.23-.94.36-1.37v0c.14-.42.28-.82.43-1.19h0a9.7,9.7,0,0,1,.49-1l0,0a5.84,5.84,0,0,1,.56-.84v0a7.17,7.17,0,0,1,.59-.63l.12-.1a4.11,4.11,0,0,1,.65-.47h0a4.11,4.11,0,0,1,.6-.28,4.6,4.6,0,0,1,.66-.2l.31-.08a6.07,6.07,0,0,1,1.07-.1H205l.34,0,.33,0,.32.06-8.89-2-.35-.06-.36-.05-.37,0h-.38a5.67,5.67,0,0,0-.94.08l-.18,0-.14,0a5,5,0,0,0-.69.19l-.15.06-.28.1-.49.25h0a5.25,5.25,0,0,0-.49.33l-.21.19-.08,0,0,.06a4.62,4.62,0,0,0-.53.55l-.12.14h0l0,0a1.33,1.33,0,0,0-.14.19,1.43,1.43,0,0,0-.14.2l-.14.21-.12.21-.05.08v0l-.07.12-.12.23-.12.23-.12.28a2.72,2.72,0,0,0-.11.25h0v0L190,86c0,.1-.08.21-.11.31l-.14.38-.09.31v.1a4.21,4.21,0,0,0-.12.42,1.09,1.09,0,0,0-.05.17.5.5,0,0,1,0,.13l0,.13-.12.52,0,.1h0c-.05.22-.1.44-.14.67a.29.29,0,0,0,0,.09c0,.08,0,.15-.05.23s0,.25-.07.38l0,.21c0,.1,0,.2,0,.3s0,.15,0,.22l0,.21-.12.91a1.66,1.66,0,0,0,0,.22s0,.07,0,.1c-.05.42-.1.85-.14,1.29v.05c0,.06,0,.12,0,.19,0,.27-.05.54-.08.83,0,.1,0,.22,0,.33s0,.12,0,.19,0,.17,0,.25c0,.37-.06.75-.08,1.14,0,.09,0,.17,0,.26v.1c0,.58-.06,1.17-.09,1.78v.16a2.26,2.26,0,0,0,0,.26q0,.85-.06,1.77v.21c0,.67,0,1.36,0,2.07v.5c0,.72,0,1.46,0,2.22s0,1.35,0,2v.53c0,.51,0,1,0,1.49,0,.1,0,.21,0,.32v.12c0,.6,0,1.19.05,1.77V112c0,.09,0,.17,0,.26q0,.69.06,1.35a2.35,2.35,0,0,0,0,.26,1,1,0,0,0,0,.17c0,.64.07,1.26.11,1.85a.37.37,0,0,0,0,.11c0,.06,0,.12,0,.18,0,.23,0,.47,0,.7s.06.69.1,1V118c.06.56.12,1.09.19,1.6,0,.06,0,.12,0,.18a.44.44,0,0,0,0,.1c.06.49.14,1,.21,1.41,0,0,0,.08,0,.12s0,.13,0,.2c0,.24.09.47.13.69a1.55,1.55,0,0,1,0,.21l0,.12c.06.25.11.49.17.72a1,1,0,0,1,0,.17v0c.08.28.15.55.23.81v0s0,0,0,.06c.09.29.19.58.29.85,0,.09.07.17.11.26l.1.25.12.28a7.86,7.86,0,0,0,.36.71h0l0,.06c.11.19.22.38.34.56l.19.23.13.18.1.14.18.2.18.18.18.17h0l.19.16.13.1.13.1.14.09.13.09,0,0h0l.06,0,.12.06.12.07.12.06.11,0,.12.05.12.05.09,0h0l.13,0,.12,0,.13,0,.13,0,.14,0,.14,0,.15,0,.14,0,.18,0,.18,0h1.39l.21,0h.07l.12,0,.2,0,8.89-2-.29.06Z"/><g class="cls-3"><path class="cls-20" d="M229.28,101.19l6.3.38c0,.33,0,.67,0,1s0,.68,0,1,0,.69,0,1,0,.7,0,1,0,.8,0,1.2,0,.79,0,1.18,0,.78,0,1.17l-.06,1.14-6.3.43c0-.41.05-.83.06-1.25s0-.84.05-1.27,0-.86,0-1.29,0-.87,0-1.31v-1.15c0-.38,0-.75,0-1.13s0-.75,0-1.12,0-.73-.05-1.1"/><path class="cls-21" d="M229.25,110.81l6.3-.43c0,.58-.07,1.15-.12,1.72s-.1,1.12-.16,1.67-.12,1.1-.19,1.64-.15,1.06-.23,1.59l-6.36,1c.09-.57.17-1.15.25-1.74s.15-1.18.21-1.78.12-1.21.17-1.83.09-1.24.13-1.87"/><path class="cls-22" d="M235.68,105.69c0-1.41,0-2.78-.11-4.12h0c0-.74-.08-1.47-.14-2.18,0-.14,0-.27,0-.4l-.06-.61c0-.37-.06-.75-.1-1.11s-.12-1-.19-1.44c0-.14,0-.28-.05-.42l0-.19c-.09-.67-.2-1.33-.32-2l-.09-.46-.06-.33c0-.18-.08-.34-.11-.51-.07-.33-.13-.67-.2-1s-.15-.6-.23-.91-.13-.54-.2-.81l-.12-.46c-.16-.58-.33-1.15-.51-1.7,0-.11-.06-.22-.1-.33a.25.25,0,0,0,0-.07c-.22-.68-.46-1.34-.71-2l-.09-.22c-.22-.55-.46-1.07-.69-1.6-.12-.27-.23-.55-.35-.81l-.07-.12-.06-.14c-.28-.57-.58-1.1-.88-1.64-.1-.17-.19-.36-.29-.53a.08.08,0,0,0,0,0c-.44-.75-.91-1.47-1.4-2.16l0,0c-.11-.16-.24-.3-.36-.46-.38-.5-.75-1-1.15-1.47l-.09-.1q-.4-.48-.84-.93c-.15-.16-.31-.31-.47-.46l-.12-.13-.09-.08-.2-.2c-.3-.29-.6-.56-.92-.83-.13-.12-.26-.22-.4-.33a2.43,2.43,0,0,0-.25-.2l-.3-.25c-.21-.17-.43-.33-.65-.49l-.67-.47-.09-.06-.08,0c-.17-.11-.34-.23-.51-.33l-.7-.43-.61-.34-.1-.06-.06,0-.46-.24c-.21-.11-.42-.22-.64-.32l-.65-.29-.08,0-.08,0-.09,0-.08,0-7.88-3.36c.78.33,1.53.7,2.26,1.09l.07,0c.72.39,1.41.81,2.09,1.25l.08.06a23.11,23.11,0,0,1,1.87,1.38l.27.22c.57.47,1.12,1,1.66,1.48a2.5,2.5,0,0,0,.23.23c.52.52,1,1.06,1.51,1.63s.85,1,1.26,1.6c.14.19.29.36.42.55.54.75,1,1.54,1.53,2.35.11.2.21.41.33.61.35.64.7,1.28,1,2,.16.33.3.68.45,1,.26.57.52,1.14.75,1.74q.48,1.22.9,2.49c0,.12.07.24.11.35.24.77.47,1.56.68,2.37.08.29.15.59.22.89.17.67.32,1.36.47,2.06l.18.92c.18.94.34,1.89.48,2.87l.06.46c.12.91.23,1.84.31,2.78,0,.22,0,.44.07.67q.3,3.5.3,7.31a75.91,75.91,0,0,1-1.25,14.3l-.06.3c-.2,1-.42,2-.66,2.93a.83.83,0,0,1,0,.15c-.25,1-.52,1.92-.82,2.85a1.72,1.72,0,0,1-.07.21q-.45,1.36-1,2.67a1.17,1.17,0,0,0-.05.11c-.36.89-.73,1.74-1.14,2.57h0c-.4.83-.83,1.62-1.28,2.38l-.06.11c-.44.75-.91,1.46-1.39,2.15l-.13.17c-.47.66-1,1.3-1.47,1.9l-.11.13c-.49.58-1,1.13-1.55,1.67l-.34.33c-.54.52-1.09,1-1.66,1.49l-.19.15c-.54.44-1.1.85-1.68,1.24l-.33.23c-.61.4-1.24.78-1.88,1.13l-.41.22c-.67.35-1.35.69-2.06,1l7.88-3.36c.65-.27,1.27-.58,1.89-.91l.37-.2.32-.16c.48-.28,1-.57,1.41-.88l.31-.21.67-.46c.29-.21.58-.44.87-.67l.18-.14c.39-.32.78-.66,1.15-1l.37-.37a1.22,1.22,0,0,0,.17-.15l.15-.16c.45-.45.9-.91,1.32-1.4a1.13,1.13,0,0,0,.1-.13.52.52,0,0,0,.1-.11l.43-.52c.21-.26.41-.52.61-.79s.21-.29.32-.44l.11-.16c.05-.07.11-.14.16-.22.19-.28.38-.56.56-.85l.48-.76.07-.13.06-.1c.11-.19.22-.37.32-.56s.3-.53.44-.8l.42-.83h0c.14-.28.27-.56.4-.85s.26-.57.38-.86l.27-.64s0-.07,0-.11l.06-.14.34-.9c.12-.33.24-.66.35-1,.05-.14.09-.28.14-.42l.06-.19c0-.13.09-.26.13-.4.11-.34.21-.68.31-1s.19-.7.29-1l0-.13,0-.13c.08-.32.16-.63.23-1s.19-.82.28-1.23l.09-.5a.79.79,0,0,0,0-.13l0-.14.09-.5c.08-.43.16-.86.23-1.3h0A72.37,72.37,0,0,0,235.68,105.69Z"/></g><path class="cls-23" d="M228,90.88c-.26-1.3-.56-2.55-.89-3.76a37.64,37.64,0,0,0-6.57-13.53A27.11,27.11,0,0,0,210,65.4a34.4,34.4,0,0,0-14.32-2.61,34.93,34.93,0,0,0-14.3,3A27.54,27.54,0,0,0,171,74.16a38.29,38.29,0,0,0-6.3,13.37,70.51,70.51,0,0,0-2.13,18.16,70.59,70.59,0,0,0,2.13,18.17,38.29,38.29,0,0,0,6.3,13.37,27.54,27.54,0,0,0,10.33,8.35,35.09,35.09,0,0,0,14.3,3,38.81,38.81,0,0,0,6.85-.47A30.63,30.63,0,0,0,210,146a27.2,27.2,0,0,0,10.6-8.19,37.72,37.72,0,0,0,6.57-13.53,69.79,69.79,0,0,0,2.25-18.58A74.89,74.89,0,0,0,228,90.88ZM201.6,124.44a8.91,8.91,0,0,1-2.34,4.15,5.05,5.05,0,0,1-3.6,1.26,5.37,5.37,0,0,1-3.68-1.32,9.1,9.1,0,0,1-2.35-4.17,36.62,36.62,0,0,1-1.24-7.47c-.26-3.08-.37-6.79-.37-11.2s.11-8.16.37-11.24A36.26,36.26,0,0,1,189.63,87,8.83,8.83,0,0,1,192,82.85a5.32,5.32,0,0,1,3.68-1.31,5,5,0,0,1,3.6,1.25,8.74,8.74,0,0,1,2.34,4.12,36.85,36.85,0,0,1,1.25,7.48c.25,3.1.36,6.84.36,11.3s-.11,8.16-.36,11.26A37.21,37.21,0,0,1,201.6,124.44Z"/></g><path class="cls-24" d="M229.4,105.69a69.79,69.79,0,0,1-2.25,18.58,37.72,37.72,0,0,1-6.57,13.53A27.2,27.2,0,0,1,210,146a30.63,30.63,0,0,1-7.47,2.14L228,90.88A74.89,74.89,0,0,1,229.4,105.69Z"/><g class="cls-3"><polygon class="cls-25" points="250.09 113.66 260.5 113.17 267.82 113.18 258.04 113.68 250.09 113.66"/><polygon class="cls-26" points="269.71 65.29 278.57 68.8 260.5 113.17 250.09 113.66 269.71 65.29"/><polygon class="cls-27" points="290.84 131.59 290.84 146.72 283.05 150.27 283.05 133.77 290.84 131.59"/><polygon class="cls-28" points="283.05 97.35 290.84 98.21 290.84 113.23 283.05 113.74 283.05 97.35"/><polygon class="cls-29" points="292.66 113.76 299.68 113.25 299.68 131.68 292.66 133.86 292.66 113.76"/><polygon class="cls-30" points="283.05 113.74 290.84 113.23 299.68 113.25 292.66 113.76 283.05 113.74"/><polygon class="cls-31" points="292.67 113.76 292.67 133.87 290.84 133.85 283.05 133.77 283.05 150.27 258.04 149.85 258.04 133.51 223.44 133.16 223.44 115.38 244.16 65.72 269.72 65.29 250.09 113.66 258.04 113.68 258.04 97.45 283.05 97.36 283.05 113.74 292.67 113.76"/></g><path class="cls-32" d="M86.49,155.85A58.91,58.91,0,0,0,85.27,169c.22,6-.49,45.1-.49,45.1h4.78s6.81-30.66,7.07-33.08,3.67-26.63,3.67-26.63Z"/><path class="cls-33" d="M89.67,154.07a101.82,101.82,0,0,0,3,14.3c1.87,5.95,11.06,45.74,11.06,45.74h4.78s-.88-30.66-1.21-33.08-2.75-26.63-2.75-26.63Z"/><path class="cls-34" d="M103.1,213v4.12h11.24a.64.64,0,0,0,.36-1.18A17.84,17.84,0,0,0,108,213Z"/><path class="cls-35" d="M85,213.06v4.15H96.35a.65.65,0,0,0,.36-1.19,18.05,18.05,0,0,0-6.77-3Z"/><path class="cls-36" d="M101.45,115.16s3.13-4.76-.47-5.22c-2.75-.36-3.89.47-3.89.47s-3.18-.35-4.92,1.15c-1.19,1-5.56,9,1.51,12S99.25,119,99.25,119Z"/><path class="cls-37" d="M101,109.94c-3,.06-4,.06-4,.06s-3.09.06-4.83,1.56c-1.19,1-5.17,8.44,1.51,12,3.18,1.67,4.75.44,5.33-.91-6.71,1.88-7.43-6.2-6.33-8.51s3.83-1.25,3.83-1.25c1-2.66,4.49-2.37,5.91-2.17A1.65,1.65,0,0,0,101,109.94Z"/><path class="cls-38" d="M97,117.48s-.92-.93-1.62,0-.23,3,.93,3.13c0,0-.35,3-2.67,2.9v2.43h5.45v-1.85s3.36-1.4,3.25-4.18a15.46,15.46,0,0,0-.93-4.75A7.59,7.59,0,0,1,97,117.48Z"/><path class="cls-39" d="M87,115.79l-1.24-2.21a8.32,8.32,0,1,0-1.44,2Z"/><path class="cls-1" d="M72,107.94h.47v1.7c0,.52.15.74.52.74s.48-.14.75-.47v-2h.46v2.78h-.38l0-.44h0a1.16,1.16,0,0,1-.91.51c-.59,0-.85-.38-.85-1.09Z"/><path class="cls-1" d="M76.2,111v.94h-.47v-4h.39l0,.32h0a1.46,1.46,0,0,1,.89-.38c.71,0,1.1.55,1.1,1.41s-.57,1.5-1.2,1.5a1.26,1.26,0,0,1-.77-.32Zm.68-.56c.45,0,.79-.41.79-1.1s-.21-1-.73-1a1.15,1.15,0,0,0-.74.38v1.45A1.09,1.09,0,0,0,76.88,110.39Z"/><path class="cls-1" d="M79.39,110.09a1.28,1.28,0,0,0,.82.33c.36,0,.55-.19.55-.43s-.34-.41-.64-.53-.83-.33-.83-.8.36-.78,1-.78a1.38,1.38,0,0,1,.86.31l-.22.3a1,1,0,0,0-.64-.25c-.34,0-.5.19-.5.4s.3.36.61.48.85.31.85.84-.36.83-1,.83a1.65,1.65,0,0,1-1-.39Z"/><path class="cls-1" d="M82.67,110.07a.34.34,0,0,1,.34.36.35.35,0,0,1-.34.36.34.34,0,0,1-.34-.36A.34.34,0,0,1,82.67,110.07Z"/><path class="cls-1" d="M84.66,110.07a.34.34,0,0,1,.34.36.34.34,0,1,1-.68,0A.34.34,0,0,1,84.66,110.07Z"/><polygon class="cls-2" points="85.24 150.34 86.2 152.43 86.34 150.45 87.25 138 82.19 143.67 85.24 150.34"/><path class="cls-40" d="M106,124l6,3,6-4c1-1,1.53-2.43,1.16-2.89C115,115,99,113,99,113s-3-1-3,0,2.36,1.28,2.36,1.28-1.45.35-1.36.72.75,0,1,0c3.43.22,15.88,5.23,15,6Z"/><path class="cls-40" d="M79.08,139.08S75.78,143.35,76,145c.48,3.69,10,11,10,11l.61-4.29S81,146,81,145c0-1.25,3-4,3-4Z"/><polygon class="cls-2" points="84 145 84 147.63 85.24 150.34 86.2 152.43 86.34 150.45 87.25 138 82.19 143.67 83 145.44 83 145 84 145"/><path class="cls-41" d="M85.73,158.77v.12l1,.09c3.16.3,13.28,1.1,18.64,0l.15,0-.26-23.7A62.63,62.63,0,0,0,113,128a5.44,5.44,0,0,0-3-3,17.82,17.82,0,0,1-3.27-2.08c-2.07,1-4.48,2.08-5.66,2.62a3.57,3.57,0,0,1-1.52.31l-6.76,0a10.66,10.66,0,0,0-8.71,3.83A67.84,67.84,0,0,0,78,138l2,2a8.41,8.41,0,0,0,4,2h0l3.25-4-.91,12.45"/><circle class="cls-42" cx="249.57" cy="210.43" r="14.43"/><circle id="椭圆形" class="cls-43" cx="319.5" cy="129.86" r="8"/><path class="cls-1" d="M730.34,1078.72H726a1.32,1.32,0,0,1-1.32-1.32v-6.15a1.32,1.32,0,0,1,2.64,0v4.83h3.07a1.32,1.32,0,1,1,0,2.64Z"/><g class="cls-44"><rect class="cls-1" x="322.5" y="-7.54" width="528.54" height="1604.98"/></g><g class="cls-45"><path class="cls-46" d="M-196.69,105.46c30,0,58.79,19.07,87.69,16.87s80.14-28,119.65-22.91S84.75,121.29,129,87.12"/></g></g></g></svg>