<?xml version="1.0" encoding="UTF-8" standalone="no"?>
<svg xmlns:svg="http://www.w3.org/2000/svg" xmlns="http://www.w3.org/2000/svg" class="icon" viewBox="0 0 1024 1024">
   <path d="m 518.84514,265.7039 192.17496,51.48663 c 26.45857,7.08957 47.1243,27.75734 54.21121,54.21659 l 51.49236,192.17209 c 7.08799,26.45546 -0.47586,54.6827 -19.84247,74.04931 L 656.20355,778.33249 c -19.36711,19.3671 -47.59523,26.93081 -74.05118,19.84197 L 389.97243,746.6693 c -26.45526,-7.08864 -47.11937,-27.75223 -54.20872,-54.20732 l -51.49235,-192.1721 c -7.08799,-26.45544 0.47586,-54.68268 19.84245,-74.04929 L 444.79147,285.53662 c 19.36709,-19.3671 47.59525,-26.93081 74.05118,-19.84196 z m 47.0437,317.11838 c -1.78531,-0.35692 -3.5754,0.59125 -4.28314,2.26874 l -0.22689,0.74534 -5.93722,29.82594 -27.94334,12.0114 c -2.59891,1.11591 -3.13559,4.56587 -0.9985,6.41854 l 0.63758,0.45418 26.53356,14.86534 2.7875,30.28588 c 0.25778,2.82162 3.38207,4.39803 5.80482,2.92892 l 0.6198,-0.46374 22.33793,-20.63869 29.67379,6.7022 c 2.75102,0.61448 5.202,-1.85067 4.57169,-4.59812 l -0.24969,-0.74661 -12.72889,-27.62212 15.54604,-26.14052 c 1.44998,-2.43208 -0.1467,-5.54269 -2.96806,-5.78232 l -0.78087,0.0109 -30.19608,3.56703 -20.06401,-22.85894 c -0.5567,-0.63521 -1.30763,-1.06875 -2.13606,-1.23327 z m 134.55007,-16.21063 c -1.78533,-0.3569 -3.57541,0.59126 -4.28315,2.26875 l -0.22688,0.74531 -3.45768,17.34572 -16.2449,6.98186 c -2.59894,1.11593 -3.13564,4.5659 -0.99853,6.41855 l 0.63761,0.4542 15.43151,8.64335 1.62604,17.62048 c 0.26643,2.80968 3.37514,4.37775 5.79306,2.92213 l 0.61983,-0.46372 12.99443,-12.00397 17.25548,3.89853 c 2.75592,0.62359 5.21632,-1.84736 4.58097,-4.60061 l -0.25889,-0.74415 -7.39956,-16.06356 9.04241,-15.20111 c 1.44996,-2.43208 -0.14671,-5.5427 -2.96806,-5.78233 l -0.78088,0.0109 -17.55944,2.07599 -11.66728,-13.29299 c -0.5567,-0.63521 -1.30763,-1.06875 -2.13606,-1.23326 z M 441.25975,636.0585 c -1.7853,-0.35691 -3.57539,0.59125 -4.28313,2.26874 l -0.22689,0.74534 -3.45769,17.34569 -16.2449,6.98187 c -2.5989,1.1159 -3.1356,4.56588 -0.99851,6.41856 l 0.63759,0.45415 15.43151,8.64339 1.62606,17.62046 c 0.26644,2.80969 3.37513,4.37775 5.79307,2.92213 l 0.61981,-0.46372 12.99442,-12.00396 17.25551,3.89854 c 2.75589,0.62356 5.21632,-1.84738 4.58095,-4.60063 l -0.25888,-0.74415 -7.39955,-16.06355 9.04239,-15.20113 c 1.44997,-2.43207 -0.14672,-5.54269 -2.96805,-5.7823 l -0.78088,0.0108 -17.55942,2.07599 -11.6673,-13.29299 c -0.5567,-0.6352 -1.30761,-1.06872 -2.13607,-1.23325 z m -49.89686,-184.10721 -26.4733,7.09348 10.16353,12.75341 -14.25486,3.81957 4.86129,18.14255 28.87997,-7.73836 -17.29095,66.54 23.14101,-6.20062 11.50832,42.94969 23.51126,-6.29983 -16.36961,-61.09223 14.43927,26.4892 20.73434,-5.55575 -24.3256,-44.87264 -14.06972,3.76998 10.88598,-43.79132 -24.99228,6.69664 z m 290.6872,-78.48468 -110.52139,29.61411 4.9109,18.32768 42.94967,-11.50834 15.07989,56.2789 -47.02251,12.59964 4.91088,18.32767 47.02251,-12.59964 10.91307,40.72815 25.54765,-6.84548 -10.91306,-40.72814 46.09686,-12.35161 -4.91088,-18.32768 -46.09687,12.35161 -15.07988,-56.2789 42.02405,-11.26031 z m -111.63191,71.38135 -36.47019,9.77217 4.91088,18.32767 10.92254,-2.92669 15.0799,56.27891 c 1.40443,5.42628 4.93414,10.05873 9.79327,12.85261 4.33255,2.49225 9.41182,3.35792 14.32529,2.44153 l 1.70205,-0.3866 14.81023,-3.96839 2.90437,-18.04071 -10.92255,2.92668 c -1.54929,0.43678 -3.20873,0.23889 -4.61183,-0.55004 -1.12547,-0.58395 -2.01745,-1.53516 -2.52794,-2.69578 l -0.32208,-0.90577 z m -87.66499,-18.37675 -21.10459,5.65495 2.57947,9.62666 -33.1379,8.87929 28.77085,107.3742 33.13788,-8.87927 4.51404,16.84662 21.10458,-5.65494 -4.51404,-16.84664 12.77384,-3.42274 c 5.42631,-1.40433 10.05874,-4.93415 12.85262,-9.79327 2.49224,-4.33257 3.3579,-9.41182 2.44153,-14.32531 l -0.3866,-1.70205 -23.31428,-87.01012 -33.13792,8.87928 z m -2.25472,76.00358 7.68875,28.69484 -9.62665,2.57946 -7.68876,-28.69485 z m 30.73125,-8.23441 6.10138,22.77074 c 0.46382,1.73094 0.28791,3.29598 -0.52523,4.70439 -0.82943,1.4209 -2.20849,2.43653 -3.8115,2.80705 l -3.70255,0.99212 -7.68876,-28.69485 z m 181.98668,-95.3918 -26.84354,7.19274 -1.13354,43.16232 26.84356,-7.19269 z m -89.64798,26.799 -26.84354,7.1927 22.05349,34.17154 26.84357,-7.19274 z m -134.47909,34.24778 6.54786,24.43688 -9.62665,2.57946 -6.54786,-24.43691 z m 30.73125,-8.2344 6.54785,24.43687 -9.62666,2.57946 -6.54785,-24.4369 z m 54.12098,-43.86778 -30.17587,8.08561 21.05428,24.51829 30.17585,-8.08561 z M 799.73151,296.49588 997.87649,243.4031 c 13.48401,-3.61518 26.18211,7.93656 23.86161,21.70256 l -10.5091,62.3417 c -1.2473,7.39901 -6.7019,13.3835 -13.94958,15.3255 l -172.74546,46.28701 c -10.22434,2.7396 -20.73369,-3.32797 -23.47329,-13.5523 l -14.88146,-55.5384 c -2.7396,-10.22433 3.32797,-20.7337 13.5523,-23.47329 z M 216.9352,452.65568 18.790229,505.74848 c -13.4851117,3.61116 -18.70597404,19.96419 -9.81333,30.72567 l 40.271763,48.73508 c 4.779667,5.78413 12.495831,8.23946 19.743566,6.29744 L 241.73762,545.21966 c 10.22435,-2.73961 16.29194,-13.24892 13.55233,-23.47328 L 240.40849,466.208 c -2.73961,-10.22433 -13.24897,-16.29191 -23.47329,-13.55232 z m 29.76292,111.07676 -125.4452,33.61297 c -13.12765,3.5179 -18.52738,19.20503 -10.34069,30.05347 l 37.36525,49.51387 c 4.70429,6.2338 12.71813,8.99342 20.26167,6.97214 l 102.96142,-27.58845 c 10.22433,-2.73961 16.29191,-13.24895 13.55231,-23.47328 l -14.88146,-55.53839 c -2.73961,-10.22435 -13.24897,-16.2919 -23.4733,-13.55233 z M 829.49444,407.57266 954.93965,373.95971 c 13.12783,-3.51723 25.64768,7.36834 23.98202,20.85673 l -7.6023,61.5629 c -0.95713,7.75078 -6.51753,14.14758 -14.06106,16.16887 l -102.96142,27.58844 c -10.22433,2.7396 -20.73368,-3.32797 -23.47329,-13.55232 l -14.88148,-55.53838 c -2.73957,-10.22432 3.328,-20.7337 13.55232,-23.47329 z m 29.76294,111.07678 70.26782,-18.82821 c 13.02966,-3.49021 25.49566,7.21474 24.00828,20.6215 l -6.80626,61.34961 c -0.87024,7.84406 -6.45478,14.35894 -14.07806,16.40159 l -48.58932,13.01949 c -10.22436,2.73962 -20.73369,-3.32798 -23.4733,-13.55231 l -14.88147,-55.53838 c -2.73962,-10.22434 3.32798,-20.7337 13.55231,-23.47329 z m -582.79632,156.1598 -70.26784,18.82821 c -13.02909,3.49223 -18.47252,18.99599 -10.48104,29.86289 l 36.56922,49.72717 c 4.67568,6.35804 12.76948,9.20783 20.39276,7.16518 l 48.58934,-13.01948 c 10.22433,-2.7396 16.29191,-13.24893 13.5523,-23.47328 0,0 -3.21404,-40.33308 -14.88147,-55.53837 -5.50008,-7.16785 -13.24893,-16.29192 -23.47327,-13.55232 z" fill="rgba(255, 91, 108, 0.5)" />
</svg>