<?xml version="1.0" standalone="no"?>
<svg viewBox="0 0 1046 1024" version="1.1" xmlns="http://www.w3.org/2000/svg">
    <path d="M525.444604 41.438849C265.576978 41.438849 52.857554 254.158273 52.857554 514.025899c0 259.867626 212.719424 472.58705 472.58705 472.587051 259.867626 0 472.58705-212.719424 472.587051-472.587051 0-259.867626-212.719424-472.58705-472.587051-472.58705z" fill="#65B165" p-id="15343"></path>
    <path d="M387.130935 454.538129l-56.72518-163.176978 53.410072-21.548201 123.579856 141.076259z" fill="#3CA64D" p-id="15344"></path>
    <path d="M457.300719 361.346763l-54.146762 72.195683 30.020144 162.62446-24.86331 44.93813 16.023022 92.270504 27.810072 30.388489 279.574101 175.884892c158.020144-76.615827 267.78705-238.871942 267.78705-425.623022 0-1.841727-0.184173-3.867626-0.184173-5.709352l-223.769784-146.417266-318.25036-0.552518z" fill="#3CA64D" p-id="15345"></path>
    <path d="M747.004317 590.825899H451.223022l-67.407195-321.012949-21.916546-0.184173c-100.742446-1.105036-105.530935-0.184173-108.846044 0.552518-14.54964 2.946763-23.942446 16.207194-20.81151 29.835971 2.946763 12.892086 16.023022 21.548201 30.020144 19.706475 6.630216-0.368345 41.070504-0.368345 77.168345 0L407.021583 641.105036h340.351079c14.917986 0 27.073381-11.234532 27.073381-25.231655s-12.523741-25.047482-27.441726-25.047482zM658.601439 668.546763c-27.441727 0-49.542446 22.100719-49.542446 49.542446s22.100719 49.542446 49.542446 49.542446 49.542446-22.100719 49.542446-49.542446-22.100719-49.542446-49.542446-49.542446zM469.82446 668.546763c-27.441727 0-49.542446 22.100719-49.542446 49.542446s22.100719 49.542446 49.542446 49.542446 49.542446-22.100719 49.542446-49.542446-22.100719-49.542446-49.542446-49.542446z" fill="#FFFFFF" p-id="15346"></path>
    <path d="M759.71223 357.847482H469.271942c-15.838849 0-27.810072 13.260432-24.863309 27.441727l33.151079 155.994244c2.394245 10.866187 12.707914 18.785612 24.86331 18.785612h224.138129c12.155396 0 22.469065-7.919424 24.863309-18.785612l33.15108-155.994244c3.130935-14.181295-8.840288-27.441727-24.86331-27.441727z" fill="#FFFFFF" p-id="15347"></path>
</svg>