<?xml version="1.0" encoding="UTF-8" standalone="no"?>
<svg xmlns="http://www.w3.org/2000/svg" viewBox="0 0 1024 1024">
   <rect y="1.0263261e-06" x="-47.760109" height="1030.2538" width="1088.2482" id="rect2914" style="fill:#fff1e5;fill-opacity:1;stroke:#dfd79f;stroke-width:0;stroke-linecap:round;stroke-linejoin:round;stroke-miterlimit:4;stroke-dasharray:none" />
   <defs id="defs4">
      <style id="style2" type="text/css" />
   </defs>
   <path id="path8" p-id="16996" fill="#FFE18D" d="M514.09659889 696.80437127c0 80.95041242 65.63228489 146.5826973 146.5826973 146.5826973 80.95041242 0 146.5826973-65.63228489 146.5826973-146.5826973s-65.63228489-146.5826973-146.5826973-146.58269729c-80.95041242 0-146.5826973 65.63228489-146.5826973 146.58269729z m0 0" />
   <path id="path10" p-id="16997" fill="#FFAC5A" d="M646.12707502 228.24641646c-11.00253968-35.27588023-34.95184291-51.44828795-71.83318073-48.22264377-36.89606678 3.24037312-37.54414141-0.97211193-2.26826118-11.97465161 35.27588023-11.00253968 51.44828795-34.95184291 48.22264377-71.83318075-3.24037312-36.89606678 0.97211193-37.85344976 11.97465161-2.59229851 11.00253968 35.27588023 34.95184291 51.44828795 71.83318074 48.20791482 36.89606678-2.91633582 37.54414141 0.97211193 2.2682612 11.97465163-35.27588023 11.00253968-51.44828795 34.95184291-48.22264379 71.83318073 3.22564417 36.89606678-0.97211193 37.86817874-11.97465162 2.60702746z m0 0" />
   <path id="path12" p-id="16998" fill="#F79A23" d="M150.70348117 504.91536602c-7.11409191-22.97719129-22.65315397-33.65569365-46.92649453-31.38743246-24.27334055 2.26826119-24.59737787-0.64807461-1.62018656-7.76216656 22.97719129-7.11409191 33.65569365-22.65315397 31.38743246-46.92649454-2.26826119-24.27334055 0.64807461-24.59737787 7.76216655-1.62018656 7.11409191 22.97719129 22.65315397 33.65569365 46.92649454 31.38743249 24.27334055-2.26826119 24.59737787 0.64807461 1.62018655 7.76216653-22.97719129 7.11409191-33.65569365 22.65315397-31.71146977 46.92649454 2.26826119 24.27334055-0.32403731 24.59737787-7.43812924 1.62018656z m0 0" />
   <path style="stroke:none;stroke-opacity:1;fill-opacity:1;fill:#f77d21;stroke-width:3.5584;stroke-miterlimit:4;stroke-dasharray:none;opacity:1;image-rendering:auto" id="path14" p-id="16999" fill="#F79A23" d="M381.09401081 568.66234289l47.89860647 200.62328374c5.81794267 23.94930324-5.18459701 43.68612141-27.18967636 48.85598944l-36.55730051 8.73427849c-22.00507936 5.18459701-40.44574827-7.43812923-46.27841991-31.38743246l-57.28095958-240.43568635c-5.81794267-23.94930324 5.18459701-43.68612141 27.18967637-48.85598946l73.4533673-17.46855696c44.01015871-10.35446506 77.66585237-48.22264379 81.86360847-95.78248398l11.00253968-99.99496903c6.15670894-22.65315397 21.68104205-39.14959901 42.06593484-35.27588023l23.94930323 2.91633581c32.03550709 5.16986804 58.25307152 32.68358173 59.54922078 70.53703149l3.56441044 79.61007626c-0.64807461 12.94676356 8.41024117 19.08874354 20.38489279 20.70893009l117.13948871-28.14705934c22.00507936-5.16986804 40.44574827 7.43812923 46.2784199 31.38743249l1.94422387 8.08620385 2.59229852 253.69175825c0.32403731 16.82048235-10.67850237 36.55730051-29.11917128 40.76978559l-190.592856 45.63034527c-11.00253968 2.59229851-20.3848928-3.56441043-22.9771913-15.53906206-2.59229851-11.97465162 2.59229851-21.68104205 13.59483818-24.27334055l190.592856-45.63034527-2.26826119-220.05079356-0.3240373-33.97973099-135.5948866 32.35954442c-22.00507936 5.18459701-40.44574827-7.43812923-46.2784199-31.38743247l-1.94422387-8.08620385-1.94422389-105.4888744c0.64807461-12.94676356-10.35446506-27.17494739-25.87879815-27.82302203-11.97465162-1.29614927-24.59737787 10.03042774-25.5694898 22.97719129l-9.3823531 74.42547924c-7.76216655 65.36716345-53.06847451 118.75967525-111.64558336 132.67855076-0.97211193-0.63334567 7.76216655 35.61464651 7.76216655 35.61464651z m-77.98988968-2.59229851l47.89860647 200.62328374c2.91633582 11.97465162 11.97465162 18.44066892 22.9771913 15.53906207 11.00253968-2.59229851 16.51117401-12.29868893 13.59483818-24.27334056l-47.89860647-200.62328373c-2.91633582-11.97465162-11.97465162-18.44066892-22.9771913-15.53906205-7.43812923 1.62018657-16.49644503 12.29868893-13.59483818 24.27334053z m0 0" />
</svg>