<?xml version="1.0" encoding="UTF-8" standalone="no"?>
<svg xmlns="http://www.w3.org/2000/svg" viewBox="0 0 1024 1024">
   <path style="fill:#3a9dff;fill-opacity:1" id="path6" p-id="3296" fill="#3882F5" d="M512 512m-512 0a512 512 0 1 0 1024 0 512 512 0 1 0-1024 0Z" />
   <path id="path8" p-id="3297" fill="#FFFFFF" d="M563.52 324.6464c-0.9472-24.576-21.824-43.776-46.7456-43.008-24.9984-0.8704-45.9904 18.368-46.9376 43.008v6.2976c-68.5056 25.024-114.3552 88.9728-115.4048 160.9728v57.344s0 86.2208-21.9136 86.2208a23.936 23.936 0 0 0-25.024 21.6064 20.864 20.864 0 0 0 6.2464 15.4496c4.1344 4.096 9.8048 6.3104 15.6672 6.144H695.424a21.7216 21.7216 0 0 0 19.8528-21.504c0-11.136-8.6016-20.4544-19.8528-21.504-21.9136 0-21.9136-86.2208-21.9136-86.2208v-61.5552c3.0848-70.4768-41.408-134.5152-109.1968-157.1328v-6.1184h-0.7808z" />
   <path style="fill:#bed7ff;fill-opacity:1" id="path10" p-id="3298" fill="#9BC0FA" d="M585.6256 703.36a65.3312 65.3312 0 0 1-20.6336 46.4384 67.264 67.264 0 0 1-48.0256 18.176 67.2768 67.2768 0 0 1-48.1536-18.112 65.3312 65.3312 0 0 1-20.6976-46.5152h137.5104z" />
</svg>