<?xml version="1.0" encoding="UTF-8" standalone="no"?>
<svg xmlns="http://www.w3.org/2000/svg" viewBox="0 0 1024 1024">
   <path d="M 512,512 M 2.713574e-8,512 A 512,511.99627 0 1 0 1024,512 512,511.99627 0 1 0 2.713574e-8,512 Z" fill="#ff8e29" style="stroke-width:1.16292" />
   <path d="m 951.71624,336.05524 c 0,-34.23628 -3.03663,-67.81762 -8.81218,-100.38676 C 851.86463,94.019552 692.94755,0.06326479 512,0.06326479 229.23596,0.06326479 2.713574e-8,229.29757 2.713574e-8,512.05954 2.713574e-8,638.76358 46.144901,754.6311 122.35842,844.0027 c 77.76159,39.77364 165.88347,62.22074 259.18548,62.22074 314.91661,-0.0595 570.17234,-255.31342 570.17234,-570.1682 z" fill="#ff9f3e" style="stroke-width:1.16292" />
   <path d="m 0.05954186,512 c 0,28.40123 2.44121404,56.20705 6.84730784,83.35792 72.3432963,41.50034 156.1186103,65.31688 245.4908803,65.31688 272.93963,0 494.19699,-221.25573 494.19699,-494.19339 0,-40.19042 -4.94198,-79.190033 -13.93279,-116.582015 C 665.85602,17.925676 591.07153,0.00372339 512.05954,0.00372339 229.23596,0.06326479 0.05954186,229.23802 0.05954186,512 Z" fill="#ffbc65" style="stroke-width:1.16292" />
   <path d="m 14.290034,392.14322 c 36.618211,11.43194 75.618095,17.62424 116.046976,17.62424 214.4696,0 388.39121,-173.86082 388.39121,-388.388384 0,-7.085423 -0.23817,-14.1708463 -0.59541,-21.19672851 -2.02443,0 -4.04885,-0.1786241 -6.13281,-0.1786241 C 270.55797,0.06326479 68.294454,167.25546 14.290034,392.14322 Z" fill="#ffd07f" />
   <path d="m 247.66799,551.23923 c 30.16273,25.26494 51.06373,77.17876 46.91192,116.14073 l 0.60323,-5.53556 c -4.1518,39.10389 24.16567,67.77533 63.23529,64.33338 l -5.57122,0.46128 c 39.17607,-3.44199 90.66564,18.48742 115.29261,48.96857 l -3.51307,-4.36461 c 24.73344,30.62311 65.04506,30.83606 90.20435,0.78052 l -3.58408,4.29362 c 25.26573,-30.16182 77.18112,-51.06214 116.14425,-46.91047 l -5.57118,-0.60317 c 39.14055,4.15165 67.81293,-24.16498 64.33531,-63.19789 l 0.49674,5.57106 c -3.44205,-39.21023 18.48803,-90.69824 48.97017,-115.32445 l -4.36476,3.51296 c 30.58858,-24.73268 30.83695,-65.04305 0.78084,-90.20156 l 4.29376,3.58392 C 746.16926,447.48262 725.26825,395.6043 729.42008,356.60685 l -0.60319,5.57107 c 4.15174,-39.13939 -24.16576,-67.77537 -63.23536,-64.33337 l 5.57122,-0.49679 c -39.17606,3.47749 -90.66558,-18.45193 -115.2926,-48.9331 l 3.51309,4.3291 C 534.63979,222.15614 494.3282,221.90775 469.1689,251.96311 l 3.58404,-4.29362 c -25.26572,30.16181 -77.18111,51.06217 -116.14425,46.94597 l 5.57122,0.56775 c -39.14058,-4.15167 -67.77744,24.20042 -64.33533,63.23336 l -0.4968,-5.57106 c 3.4421,39.17485 -18.48798,90.66285 -48.97008,115.32457 l 4.36472,-3.54847 c -30.58855,24.76818 -30.83695,65.04306 -0.78067,90.20158 z" fill="#0066ff" style="fill:none;stroke:#ffffff;stroke-width:47.294;stroke-miterlimit:4;stroke-dasharray:none;stroke-opacity:1" />
   <path d="m 485.30654,620.90881 c -4.79303,5.46528 -11.30433,8.08927 -18.07184,8.08927 -6.82782,0 -13.32404,-2.67422 -18.11706,-8.15611 l -65.33901,-74.7085 a 26.678209,29.582566 0 0 1 0.10557,-41.098 25.06546,27.794242 0 0 1 36.12862,0.16659 l 47.28222,54.25129 136.7371,-155.9185 a 25.050388,27.777528 0 0 1 36.12861,0 c 9.99304,11.38177 9.99304,29.84998 0,41.21505 L 485.32162,620.90881 Z" fill-rule="evenodd" style="fill:#ffffff;stroke-width:15.8719" />
</svg>