<?xml version="1.0" encoding="UTF-8" standalone="no"?>
<svg
   xmlns:dc="http://purl.org/dc/elements/1.1/"
   xmlns:cc="http://creativecommons.org/ns#"
   xmlns:rdf="http://www.w3.org/1999/02/22-rdf-syntax-ns#"
   xmlns:svg="http://www.w3.org/2000/svg"
   xmlns="http://www.w3.org/2000/svg"
   xmlns:sodipodi="http://sodipodi.sourceforge.net/DTD/sodipodi-0.dtd"
   xmlns:inkscape="http://www.inkscape.org/namespaces/inkscape"
   t="1605107863868"
   viewBox="0 0 1024 1024"
   version="1.1"
   id="svg847"
   sodipodi:docname="msg-private.svg"
   inkscape:version="1.0.2 (e86c8708, 2021-01-15)">
  <metadata
     id="metadata853">
    <rdf:RDF>
      <cc:Work
         rdf:about="">
        <dc:format>image/svg+xml</dc:format>
        <dc:type
           rdf:resource="http://purl.org/dc/dcmitype/StillImage" />
      </cc:Work>
    </rdf:RDF>
  </metadata>
  <defs
     id="defs851" />
  <sodipodi:namedview
     pagecolor="#ffffff"
     bordercolor="#666666"
     borderopacity="1"
     objecttolerance="10"
     gridtolerance="10"
     guidetolerance="10"
     inkscape:pageopacity="0"
     inkscape:pageshadow="2"
     inkscape:window-width="1920"
     inkscape:window-height="965"
     id="namedview849"
     showgrid="false"
     inkscape:zoom="0.34472656"
     inkscape:cx="-149.38185"
     inkscape:cy="435.25787"
     inkscape:window-x="0"
     inkscape:window-y="25"
     inkscape:window-maximized="0"
     inkscape:current-layer="svg847" />
  <path
     d="M204.8 0h614.4Q1024 0 1024 204.8v614.4q0 204.8-204.8 204.8H204.8Q0 1024 0 819.2V204.8Q0 0 204.8 0z"
     fill="#95EFC2"
     p-id="52371"
     id="path833" />
  <path
     d="M819.2 0H534.272A756.48 756.48 0 0 0 0 483.584V819.2A204.8 204.8 0 0 0 204.8 1024h614.4A204.8 204.8 0 0 0 1024 819.2V204.8A204.8 204.8 0 0 0 819.2 0z"
     fill="#88EDBF"
     p-id="52372"
     id="path835" />
  <path
     d="M819.2 0h-3.84a755.2 755.2 0 0 0-539.392 1024H819.2A204.8 204.8 0 0 0 1024 819.2V204.8A204.8 204.8 0 0 0 819.2 0z"
     fill="#79E8B8"
     p-id="52373"
     id="path837" />
  <path
     d="M497.152 721.152A752.384 752.384 0 0 0 560.384 1024H819.2A204.8 204.8 0 0 0 1024 819.2V204.8a204.8 204.8 0 0 0-89.088-168.96 755.2 755.2 0 0 0-437.76 685.312z"
     fill="#69E2B3"
     p-id="52374"
     id="path839" />
  <path
     d="M 525.07404,242.51105 A 276.72086,275.29065 0 0 0 340.59346,722.66383 v 47.48763 a 23.060072,22.940888 0 0 0 23.06008,22.94089 h 161.4205 a 276.72086,275.29065 0 0 0 0,-550.5813 z"
     fill="#d7ffe9"
     p-id="52375"
     id="path841"
     style="stroke-width:0.898453" />
  <path
     d="M 732.61469,517.8017 A 276.72086,275.29065 0 0 0 490.48394,244.80514 276.72086,275.29065 0 0 0 340.59346,722.66383 v 47.48763 a 23.060072,22.940888 0 0 0 23.06008,22.94089 h 92.24028 A 276.72086,275.29065 0 0 0 732.61469,517.8017 Z"
     fill="#ffffff"
     p-id="52376"
     id="path843"
     style="stroke-width:0.898453" />
  <path
     d="M512 473.6q25.6 0 25.6 25.6v25.6q0 25.6-25.6 25.6t-25.6-25.6v-25.6q0-25.6 25.6-25.6zM409.6 473.6q25.6 0 25.6 25.6v25.6q0 25.6-25.6 25.6T384 524.8v-25.6q0-25.6 25.6-25.6zM614.4 473.6q25.6 0 25.6 25.6v25.6q0 25.6-25.6 25.6t-25.6-25.6v-25.6q0-25.6 25.6-25.6z"
     fill="#79E8B8"
     p-id="52377"
     id="path845" />
</svg>
