<?xml version="1.0" standalone="no"?>
<svg viewBox="0 0 1024 1024" version="1.1" xmlns="http://www.w3.org/2000/svg">
    <path d="M512 512m-512 0a512 512 0 1 0 1024 0 512 512 0 1 0-1024 0Z" fill="#8BBF75"></path>
    <path d="M1007.908571 639.268571L702.171429 345.234286l-58.514286 7.314285-119.954286-118.491428-264.777143 256V512l92.16 102.4 8.777143 8.777143L258.925714 775.314286l272.091429 248.685714c231.131429-8.777143 422.765714-169.691429 476.891428-384.731429z" fill="#72AD59" p-id="78457"></path>
    <path d="M494.445714 446.171429c0 2.925714 0 5.851429-2.925714 8.777142-1.462857 2.925714-2.925714 4.388571-4.388571 5.851429L468.114286 440.32c2.925714-1.462857 5.851429-2.925714 7.314285-2.925714 4.388571-1.462857 7.314286-1.462857 10.24-1.462857 2.925714 0 4.388571 1.462857 7.314286 2.925714 0 2.925714 1.462857 5.851429 1.462857 7.314286z m-46.811428-7.314286c-5.851429 2.925714-8.777143 4.388571-11.702857 4.388571-2.925714 0-5.851429-1.462857-7.314286-2.925714-2.925714-2.925714-2.925714-5.851429-2.925714-10.24 0-2.925714 2.925714-5.851429 5.851428-8.777143l16.091429 17.554286z m40.96-14.628572c-4.388571-1.462857-8.777143 0-14.628572 1.462858-2.925714 1.462857-7.314286 2.925714-14.628571 5.851428l-19.017143-20.48c2.925714-1.462857 5.851429-2.925714 10.24-2.925714 4.388571 0 8.777143 1.462857 13.165714 4.388571l8.777143-8.777143c-2.925714-4.388571-7.314286-5.851429-13.165714-7.314285-4.388571-1.462857-10.24-1.462857-16.091429 1.462857-2.925714 1.462857-7.314286 2.925714-10.24 5.851428l-2.925714-4.388571-10.24 8.777143 2.925714 4.388571c-2.925714 2.925714-5.851429 5.851429-7.314285 8.777143-2.925714 4.388571-2.925714 10.24-2.925715 14.628572 0 4.388571 2.925714 8.777143 5.851429 11.702857 2.925714 2.925714 5.851429 4.388571 10.24 5.851428 4.388571 1.462857 8.777143 1.462857 13.165714 0 2.925714-1.462857 7.314286-2.925714 13.165714-5.851428l20.48 23.405714c-1.462857 1.462857-2.925714 1.462857-5.851428 2.925714-4.388571 1.462857-8.777143 1.462857-11.702857 1.462857-2.925714-1.462857-7.314286-2.925714-10.24-5.851428l-8.777143 8.777143c4.388571 4.388571 8.777143 7.314286 14.628571 8.777143 5.851429 1.462857 11.702857 1.462857 17.554286-1.462858 2.925714-1.462857 7.314286-2.925714 10.24-5.851428l2.925714 4.388571 10.24-8.777143-2.925714-2.925714c2.925714-2.925714 7.314286-7.314286 8.777143-11.702857 2.925714-5.851429 2.925714-10.24 2.925714-14.628571 0-4.388571-2.925714-8.777143-5.851428-13.165715 0-5.851429-4.388571-7.314286-8.777143-8.777143z" fill="#FFFFFF" p-id="78458"></path>
    <path d="M763.611429 613.376c-4.388571-11.702857-17.554286-19.017143-29.257143-19.017143-4.388571 0-8.777143 0-11.702857 2.925714l-70.217143 45.348572c0 2.925714 2.925714 16.091429-4.388572 30.72-5.851429 11.702857-20.48 19.017143-36.571428 19.017143H526.628571c-5.851429 0-13.165714 0-13.165714-5.851429s7.314286-7.314286 13.165714-7.314286h84.845715c17.554286 0 27.794286-10.24 27.794285-27.794285 0-13.165714-10.24-26.331429-27.794285-26.331429H354.011429c-4.388571 0-8.777143 1.462857-11.702858 2.925714l-84.845714 43.885715c-4.388571 2.925714-8.777143 8.777143-8.777143 14.628571V761.124571c0 13.165714 14.628571 21.942857 26.331429 14.628572l70.217143-40.96 146.285714 62.902857c4.388571 1.462857 8.777143 2.925714 14.628571 2.925714 4.388571 0 7.314286 0 11.702858-2.925714L746.057143 652.873143c16.091429-5.851429 24.868571-24.868571 17.554286-39.497143" fill="#FFFFFF" p-id="78459"></path>
    <path d="M351.085714 517.851429c0-1.462857 1.462857-1.462857 1.462857-2.925715v-1.462857c0-1.462857 1.462857-1.462857 1.462858-2.925714v-1.462857c1.462857-1.462857 1.462857-1.462857 1.462857-2.925715 0 0 0-1.462857 1.462857-1.462857l2.925714-2.925714c8.777143-8.777143 24.868571-8.777143 33.645714 0l1.462858 1.462857s0 1.462857 1.462857 1.462857l1.462857 1.462857s0 1.462857 1.462857 1.462858c0 1.462857 1.462857 1.462857 1.462857 1.462857v1.462857c0 1.462857 1.462857 1.462857 1.462857 1.462857v1.462857c0 1.462857 0 1.462857 1.462857 1.462857v7.314286c0 5.851429-2.925714 11.702857-7.314285 16.091429-7.314286 7.314286-19.017143 8.777143-27.794286 4.388571-2.925714-1.462857-4.388571-2.925714-7.314286-4.388571-1.462857-1.462857-2.925714-4.388571-4.388571-7.314286-1.462857-1.462857-1.462857-1.462857-1.462857-2.925714-2.925714 0-4.388571-1.462857-4.388572-1.462858v-8.777142z m43.885715-92.16c1.462857-4.388571 2.925714-10.24 7.314285-14.628572 2.925714-5.851429 7.314286-10.24 11.702857-16.091428 24.868571-24.868571 61.44-27.794286 87.771429-10.24 2.925714 1.462857 4.388571 2.925714 7.314286 5.851428 1.462857 1.462857 2.925714 2.925714 2.925714 4.388572 20.48 24.868571 17.554286 62.902857-8.777143 89.234285-27.794286 26.331429-70.217143 29.257143-93.622857 4.388572-17.554286-14.628571-21.942857-39.497143-14.628571-62.902857z m122.88-71.68c0-1.462857 1.462857-2.925714 1.462857-4.388572v-1.462857c1.462857-1.462857 1.462857-2.925714 1.462857-2.925714s1.462857-2.925714 2.925714-2.925715c1.462857-1.462857 1.462857-1.462857 2.925714-1.462857 0 0 1.462857 0 1.462858-1.462857 1.462857-1.462857 1.462857-1.462857 2.925714-1.462857-1.462857-1.462857 0-1.462857 0-1.462857h11.702857c1.462857 0 1.462857 0 2.925714 1.462857h1.462857c1.462857 0 1.462857 1.462857 2.925715 1.462857l8.777143 4.388572 2.925714 2.925714c1.462857 1.462857 1.462857 2.925714 1.462857 2.925714s0 1.462857 1.462857 1.462857c1.462857 2.925714 1.462857 4.388571 1.462857 8.777143 0 1.462857 0 2.925714-1.462857 2.925714v1.462858c0 1.462857-1.462857 2.925714-1.462857 2.925714v1.462857c0 1.462857-1.462857 1.462857-1.462857 1.462857 0 1.462857-1.462857 1.462857-1.462857 1.462857v1.462857l-2.925715 2.925715-1.462857 1.462857c-1.462857 0-1.462857 1.462857-1.462857 1.462857s-1.462857 0-1.462857 1.462857l-1.462857 1.462857s-1.462857 0-1.462857 1.462857c-1.462857 0-1.462857 0-1.462857 1.462858h-1.462858c-1.462857 0-1.462857 0-1.462857 1.462857h-14.628571c-1.462857 0-1.462857 0-1.462857-1.462857h-1.462857c-1.462857 0-1.462857-1.462857-1.462858-1.462858h-1.462857s-1.462857 0-1.462857-1.462857h-1.462857c-1.462857 0-1.462857-1.462857-1.462857-1.462857h5.851428l-1.462857-1.462857c-1.462857-1.462857-1.462857-1.462857-1.462857-2.925714-1.462857-1.462857-1.462857-1.462857-1.462857-2.925715-1.462857-1.462857-1.462857-2.925714-1.462857-2.925714 0-1.462857-1.462857-2.925714-1.462857-2.925714v-2.925714c-1.462857-4.388571-1.462857-4.388571-1.462857-7.314286-1.462857-1.462857-1.462857-2.925714 0-2.925714z m-223.817143 160.914285c-1.462857 0-1.462857 0-1.462857 1.462857s0 1.462857 1.462857 1.462858l65.828571 64.365714 20.48 20.48 2.925714 2.925714 1.462858 1.462857c1.462857 0 1.462857 0 1.462857-1.462857 7.314286-10.24 21.942857-13.165714 30.72-4.388571 1.462857 1.462857 2.925714 2.925714 2.925714 4.388571 0 1.462857 1.462857 1.462857 1.462857 1.462857 1.462857 0 1.462857 0 1.462857-1.462857l200.411429-197.485714 1.462857-1.462857c0-1.462857-1.462857-1.462857-1.462857-1.462857-1.462857-1.462857-2.925714-1.462857-4.388572-2.925715-7.314286-7.314286-7.314286-19.017143 1.462858-26.331428 1.462857-1.462857 2.925714-2.925714 4.388571-2.925715 1.462857 0 1.462857-1.462857 1.462857-1.462857 0-1.462857 0-1.462857-1.462857-1.462857l-1.462857-1.462857-8.777143-11.702857-77.531429-77.531429-1.462857-1.462857-1.462857 1.462857c-1.462857 1.462857-2.925714 2.925714-2.925714 4.388572-7.314286 7.314286-20.48 8.777143-27.794286 1.462857l-2.925714-2.925714c0-1.462857-1.462857-1.462857-1.462857-1.462858-1.462857 0-1.462857 0-1.462857 1.462858l-149.211429 143.36-23.405714 21.942857-30.72 30.72-1.462857 1.462857c0 1.462857 1.462857 1.462857 1.462857 1.462857 1.462857 1.462857 2.925714 1.462857 2.925714 2.925714 7.314286 7.314286 7.314286 19.017143-1.462857 26.331429 0 1.462857 0 2.925714-1.462857 4.388571z" fill="#FFFFFF" p-id="78460"></path>
    <path d="M661.211429 437.979429c1.462857 0 2.925714 1.462857 2.925714 1.462857h1.462857c1.462857 1.462857 1.462857 1.462857 2.925714 1.462857h1.462857c1.462857 1.462857 1.462857 1.462857 2.925715 1.462857h1.462857l1.462857 1.462857c1.462857 4.388571 2.925714 7.314286 2.925714 10.24 0 1.462857 1.462857 2.925714 1.462857 2.925714v4.388572c0 1.462857 0 2.925714-1.462857 4.388571-1.462857 2.925714-1.462857 4.388571-2.925714 7.314286l-2.925714 2.925714v1.462857l-2.925715 2.925715h-1.462857c-1.462857 1.462857-1.462857 1.462857-2.925714 1.462857h-1.462857c-1.462857 1.462857-2.925714 1.462857-2.925714 1.462857h-14.628572c-1.462857 0-1.462857 0-1.462857-1.462857 0 0-1.462857 0-1.462857-1.462857 0 0-1.462857 0-1.462857-1.462857 0 0-1.462857 0-1.462857-1.462858 0 0-1.462857 0-1.462858-1.462857 0 0-1.462857 0-1.462857-1.462857l-1.462857-1.462857s-1.462857 0-1.462857-1.462857l-1.462857-1.462857-1.462857 1.462857-1.462857-1.462857-1.462858-1.462857c0-1.462857-1.462857-1.462857-1.462857-1.462858s0-1.462857-1.462857-1.462857c0-1.462857-1.462857-1.462857-1.462857-1.462857V462.848c0-1.462857-1.462857-1.462857-1.462857-1.462857v-1.462857c0-1.462857-1.462857-1.462857-1.462857-2.925715s7.314286 7.314286 7.314285 5.851429v-4.388571c0-1.462857 0-2.925714 1.462858-2.925715 0-1.462857 1.462857-2.925714 1.462857-2.925714v-1.462857c1.462857-1.462857 1.462857-2.925714 1.462857-2.925714v-1.462858l2.925714-2.925714 1.462857-1.462857 2.925715-2.925714h1.462857c1.462857-1.462857 2.925714-1.462857 2.925714-1.462857 1.462857-1.462857 2.925714-1.462857 4.388571-1.462858 1.462857 0 1.462857-1.462857 2.925715-1.462857h5.851428c1.462857 1.462857 1.462857 2.925714 2.925715 2.925715M557.348571 550.619429c-14.628571 4.388571-29.257143 2.925714-42.422857-1.462858l24.868572-24.868571c1.462857 0 2.925714 0 4.388571-1.462857l2.925714 10.24 10.24-2.925714-1.462857-8.777143c11.702857-4.388571 16.091429-14.628571 13.165715-24.868572l35.108571-35.108571c1.462857 4.388571 2.925714 7.314286 2.925714 11.702857 10.24 33.645714-11.702857 68.754286-49.737143 77.531429m198.948572-23.405715L710.948571 357.522286c-4.388571-14.628571-19.017143-21.942857-33.645714-19.017143l-32.182857 8.777143L536.868571 240.493714c-10.24-10.24-27.794286-10.24-38.034285 0L256 481.865143c-10.24 10.24-10.24 27.794286 0 38.034286L351.085714 612.059429c4.388571-1.462857 7.314286-1.462857 11.702857-1.462858h7.314286l-100.937143-99.474285c-7.314286-7.314286-7.314286-17.554286 0-23.405715l1.462857-1.462857L501.76 256.585143l2.925714-2.925714c7.314286-7.314286 17.554286-7.314286 23.405715 0l122.88 119.954285c7.314286 7.314286 7.314286 17.554286 0 23.405715L435.931429 610.596571h19.017142l1.462858-1.462857L702.171429 543.305143c1.462857 0 1.462857-1.462857 1.462857-1.462857v-1.462857c-1.462857-1.462857-1.462857-2.925714-2.925715-4.388572-2.925714-8.777143 4.388571-20.48 14.628572-21.942857 1.462857-1.462857 2.925714-1.462857 4.388571-1.462857 1.462857 0 1.462857 0 1.462857-1.462857s1.462857-1.462857 0-1.462857L687.542857 386.779429c0-1.462857-1.462857-1.462857-1.462857-1.462858h1.462857c-1.462857 1.462857-2.925714 1.462857-4.388571 1.462858-2.925714 1.462857-7.314286 1.462857-11.702857 0 1.462857-8.777143-1.462857-17.554286-7.314286-24.868572l-8.777143-8.777143 16.091429-4.388571 2.925714-1.462857c8.777143-2.925714 19.017143 2.925714 20.48 11.702857l45.348571 165.302857c2.925714 10.24-2.925714 19.017143-11.702857 21.942857l-229.668571 61.44h46.811428l191.634286-49.737143c14.628571-1.462857 23.405714-16.091429 19.017143-30.72" fill="#FFFFFF" p-id="78461"></path>
</svg>