<?xml version="1.0" encoding="UTF-8" standalone="no"?>
<svg
   xmlns:dc="http://purl.org/dc/elements/1.1/"
   xmlns:cc="http://creativecommons.org/ns#"
   xmlns:rdf="http://www.w3.org/1999/02/22-rdf-syntax-ns#"
   xmlns:svg="http://www.w3.org/2000/svg"
   xmlns="http://www.w3.org/2000/svg"
   xmlns:sodipodi="http://sodipodi.sourceforge.net/DTD/sodipodi-0.dtd"
   xmlns:inkscape="http://www.inkscape.org/namespaces/inkscape"
   viewBox="0 0 1024 1024"
   version="1.1"
   id="svg839"
   sodipodi:docname="msg-followed.svg"
   inkscape:version="1.0.2 (e86c8708, 2021-01-15)">
  <metadata
     id="metadata845">
    <rdf:RDF>
      <cc:Work
         rdf:about="">
        <dc:format>image/svg+xml</dc:format>
        <dc:type
           rdf:resource="http://purl.org/dc/dcmitype/StillImage" />
      </cc:Work>
    </rdf:RDF>
  </metadata>
  <defs
     id="defs843" />
  <sodipodi:namedview
     pagecolor="#ffffff"
     bordercolor="#666666"
     borderopacity="1"
     objecttolerance="10"
     gridtolerance="10"
     guidetolerance="10"
     inkscape:pageopacity="0"
     inkscape:pageshadow="2"
     inkscape:window-width="1920"
     inkscape:window-height="965"
     id="namedview841"
     showgrid="false"
     inkscape:zoom="0.34472656"
     inkscape:cx="43.516303"
     inkscape:cy="356.18355"
     inkscape:window-x="0"
     inkscape:window-y="25"
     inkscape:window-maximized="0"
     inkscape:current-layer="svg839" />
  <path
     d="m 204.79999,0 h 614.4 Q 1024,0 1024,204.8 v 614.4 q 0,204.8 -204.80001,204.8 h -614.4 Q 0,1024 0,819.2 V 204.8 Q 0,0 204.79999,0 Z"
     fill="#95efc2"
     p-id="52371"
     id="path833-8"
     style="fill:#ff88b7;fill-opacity:1" />
  <path
     d="m 864.65597,8.7025496 v 0 C 347.78112,46.062268 50.010239,358.50423 0.31106224,779.47069 L 3.2119121,819.2 C 12.815702,950.73109 62.527951,1024 206.96952,1024 H 818.24237 C 930.7746,1024 1022,932.30792 1022,819.2 V 204.8 C 1022,4.6665833 864.65597,8.7025496 864.65597,8.7025496 Z"
     fill="#88edbf"
     p-id="52372"
     id="path835-0"
     style="fill:#ff70aa;fill-opacity:1;stroke-width:0.997453"
     sodipodi:nodetypes="sccssssss" />
  <path
     d="m 571.02502,1024.2045 c 0,0 -91.70581,5.3416 0,0 h 306.71987 c 80.99938,0 144.23601,-75.58637 146.66231,-168.75772 l 5.3945,-207.14625 c 0,-55.6766 -2.2966,-195.90346 -4.4591,-85.80959 -242.41862,3.08366 -443.54772,195.24752 -454.31758,461.71356 z"
     fill="#69e2b3"
     p-id="52374"
     id="path839"
     style="fill:#ff609f;fill-opacity:1;stroke-width:0.768176"
     sodipodi:nodetypes="ccssccc" />
  <path
     d="M 748.8164,296.6043 C 680.85141,243.05349 582.67975,253.25365 522.26642,314.45458 l -10.06889,10.20015 -10.06889,-10.20015 c -65.44777,-66.30101 -171.1711,-73.95113 -239.1361,-7.65012 -67.96499,66.30101 -70.48221,175.95267 -2.51722,242.25368 l 15.10333,15.30023 166.13666,168.30255 c 40.27555,40.80062 103.20611,40.80062 143.48166,0 L 763.91974,551.60818 C 834.40195,477.65705 829.36751,360.35527 748.8164,296.6043 Z"
     fill="#fce0e0"
     p-id="17348"
     data-spm-anchor-id="a313x.7781069.0.i2"
     id="path835"
     style="fill:#ffffff;fill-opacity:1;stroke-width:0.890711" />
  <path
     d="m 658.19641,311.90454 c -32.72389,0 -32.72389,51.00077 0,51.00077 32.72389,0 32.72389,-51.00077 0,-51.00077 z m 83.06833,66.301 c -22.655,-22.95035 -57.89611,12.7502 -35.24111,35.70055 17.62055,17.85027 -15.10333,56.10085 -27.68944,71.40108 -20.13778,25.50039 25.17222,51.00077 42.79277,25.50039 30.20667,-38.25059 60.41333,-86.70132 20.13778,-132.60202 z"
     fill="#ffffff"
     p-id="17349"
     id="path837"
     style="fill:#ffaacc;fill-opacity:1;stroke-width:0.890711" />
</svg>
