<?xml version="1.0" encoding="UTF-8" standalone="no"?>
<svg xmlns="http://www.w3.org/2000/svg" viewBox="0 0 1024 1024" version="1.1">
   <path d="M426.543117 0.6h170.529966c113.453978-2.5 236.403954 32.286994 313.972939 112.353978 80.166984 77.568985 114.852978 200.518961 112.453978 313.971939v170.530966c2.4 113.453978-32.286994 236.403954-112.453978 313.972939-77.568985 80.166984-200.518961 114.852978-313.971939 112.453978H426.543117c-113.453978 2.399-236.403954-32.286994-313.972939-112.453978C32.403194 833.959837-2.2828 711.009861 0.1162 597.556883v-170.529966C-2.2828 313.471939 32.403194 190.521963 112.570178 112.952978 190.140163 32.886994 313.090139-1.899 426.543117 0.6z" fill="#23C9FF" style="fill:#4be6e4;fill-opacity:1" />
   <path d="M 718.70415,281.16265 H 304.94402 c -30.77327,0 -55.6862,25.60497 -55.6862,57.15922 V 629.8043 c 0,31.58712 24.94482,57.15922 55.6862,57.15922 h 139.36125 c 5.69959,0 11.14337,2.46517 14.98603,6.77101 l 38.23471,42.79546 c 8.23011,9.2362 22.48002,9.00611 30.45304,-0.49304 l 34.96869,-41.77651 a 20.311719,20.848816 0 0 1 15.43448,-7.26405 h 140.28939 c 30.7739,0 55.68684,-25.60497 55.68684,-57.15922 v -291.5153 c 0.0321,-31.55425 -24.91294,-57.15922 -55.6543,-57.15922 z M 428.9027,546.57995 c 0,8.84176 -5.47632,16.73033 -13.60947,19.62281 -8.13378,2.89247 -17.16444,0.16434 -22.5119,-6.80389 l -53.22074,-69.61658 v 61.20211 a 20.20624,20.740548 0 1 1 -40.41248,0 V 429.7306 c 0,-8.84176 5.47568,-16.73033 13.60946,-19.6228 8.16568,-2.89247 17.19635,-0.16435 22.51191,6.80388 l 53.25264,69.61658 v -58.99988 a 20.206238,20.740546 0 1 1 40.41247,0 v 119.05157 z m 122.0048,27.67571 H 470.72364 A 20.206046,20.740349 0 0 1 450.51772,553.51531 V 425.32615 a 20.206046,20.740349 0 0 1 20.20592,-20.74034 h 75.57253 a 20.206047,20.740349 0 1 1 0,41.48069 h -55.36661 v 21.33199 h 56.58307 a 20.206048,20.74035 0 1 1 0,41.4807 h -56.58307 v 23.83004 h 59.97794 c 11.17526,0 20.20592,9.30193 20.20592,20.74035 0,11.43841 -9.06256,20.80608 -20.20592,20.80608 z M 732.28106,431.637 710.25014,556.40779 a 20.257281,20.792939 0 0 1 -17.38834,16.89467 20.289303,20.825808 0 0 1 -20.91015,-11.96432 l -14.02601,-31.48852 -12.6169,31.38991 c -3.1378,7.82283 -10.56735,12.81892 -18.6686,12.81892 -0.70487,0 -1.4091,-0.0329 -2.11397,-0.0986 A 20.222057,20.756783 0 0 1 606.75381,557.06517 L 584.11433,430.6838 a 20.21812,20.752742 0 1 1 39.77139,-7.49413 l 10.24712,57.19209 4.19543,-10.45235 c 3.07401,-7.62562 10.24712,-12.65457 18.31648,-12.81892 h 0.38401 c 7.90988,0 15.083,4.73314 18.3809,12.12867 l 6.56456,14.72532 10.50357,-59.75587 c 1.98511,-11.27407 12.52057,-18.73534 23.50446,-16.69746 a 20.238068,20.773217 0 0 1 16.29881,24.12585 z" fill="#05c46d" style="stroke-width:0.633648;fill:#dcfefc;fill-opacity:1" />
   <path d="M 718.70415,281.16265 H 304.94402 c -30.77327,0 -55.6862,25.60497 -55.6862,57.15922 V 629.8043 c 0,31.58712 24.94482,57.15922 55.6862,57.15922 h 139.36125 c 5.69959,0 11.14337,2.46517 14.98603,6.77101 l 20.01392,22.3838 c 84.15475,-23.23839 157.22929,-74.21823 209.29799,-142.84874 -7.14121,-0.65738 -13.57756,-5.0947 -16.65156,-11.99719 l -14.02601,-31.48852 -12.6169,31.38991 c -3.1378,7.82283 -10.56735,12.81892 -18.6686,12.81892 -0.70487,0 -1.4091,-0.0329 -2.11397,-0.0986 A 20.222057,20.756783 0 0 1 606.75381,556.99943 L 584.11433,430.61806 a 20.21812,20.752742 0 1 1 39.77139,-7.49413 l 10.24712,57.19209 4.19543,-10.45235 c 3.07401,-7.62561 10.24712,-12.65457 18.31648,-12.81892 h 0.38401 c 7.90988,0 15.083,4.73314 18.3809,12.12867 l 6.56456,14.72532 10.50357,-59.69013 c 1.98511,-11.27407 12.52057,-18.73534 23.50446,-16.69746 10.98325,2.03788 18.28458,12.85178 16.26693,24.12585 l -18.41281,104.22766 c 36.79371,-61.66228 58.02472,-134.13846 58.02472,-211.74221 0,-0.9532 -0.0321,-1.93927 -0.0321,-2.89247 -7.07679,-23.20553 -28.17959,-40.06733 -53.12442,-40.06733 z M 428.9027,546.57995 c 0,8.84176 -5.47632,16.73033 -13.60947,19.62281 -8.13378,2.89247 -17.16444,0.16434 -22.5119,-6.80389 l -53.22074,-69.61658 v 61.20211 a 20.20624,20.740548 0 1 1 -40.41248,0 V 429.7306 c 0,-8.84176 5.47568,-16.73033 13.60946,-19.6228 8.16568,-2.89247 17.19635,-0.16435 22.51191,6.80388 l 53.25264,69.61658 v -58.99988 a 20.206238,20.740546 0 1 1 40.41247,0 v 119.05157 z m 122.0048,27.67571 H 470.72364 A 20.206046,20.740349 0 0 1 450.51772,553.51531 V 425.32615 a 20.206046,20.740349 0 0 1 20.20592,-20.74034 h 75.57253 a 20.206047,20.740349 0 1 1 0,41.48069 h -55.36661 v 21.33199 h 56.58307 a 20.206048,20.74035 0 1 1 0,41.4807 h -56.58307 v 23.83004 h 59.97794 c 11.17526,0 20.20592,9.30193 20.20592,20.74035 0,11.43841 -9.06256,20.80608 -20.20592,20.80608 z" fill="#1dce75" style="stroke-width:0.633648;fill:#ffffff;fill-opacity:1" />
   <path d="m 490.92956,515.42013 c 3.04211,-2.13649 6.02043,-4.30585 8.99812,-6.50807 h -8.99812 z" fill="#35d895" style="stroke-width:0.633648" />
   <path d="m 249.25782,338.32187 v 95.48449 c 18.22015,-3.87854 35.99251,-9.03898 53.18884,-15.3827 a 20.212451,20.746923 0 0 1 10.27902,-8.28299 c 3.77888,-1.34763 7.74913,-1.41337 11.46422,-0.49303 63.65988,-27.97154 118.70626,-72.57479 159.95119,-128.48499 H 304.94402 c -30.74138,0 -55.6862,25.60497 -55.6862,57.15922 z" fill="#48e1aa" style="stroke-width:0.633648;fill:#d5f8f4;fill-opacity:0.86610878" />
</svg>