<?xml version="1.0" standalone="no"?>
<svg viewBox="0 0 1024 1024" version="1.1" xmlns="http://www.w3.org/2000/svg">
    <path d="M512 512m-512 0a512 512 0 1 0 1024 0 512 512 0 1 0-1024 0Z" fill="#4483FF" p-id="49822"></path>
    <path d="M580.693333 709.12v88.106667l128.426667-107.52H601.6c-10.453333 0-20.906667 8.96-20.906667 19.413333z" fill="#FFFFFF"></path>
    <path d="M688.213333 276.053333H286.506667c-10.453333 0-19.413333 11.946667-19.413334 22.4v480.853334c0 10.453333 7.466667 17.92 17.92 17.92h276.266667v-107.52c0-10.453333 10.453333-20.906667 19.413333-20.906667h128.426667v-373.333333c0-8.96-10.453333-20.906667-20.906667-19.413334z" fill="#FFFFFF" p-id="49824"></path>
    <path d="M359.68 640.426667c-13.44 0-23.893333-10.453333-23.893333-23.893334 0-13.44 10.453333-23.893333 23.893333-23.893333 13.44 0 23.893333 10.453333 23.893333 23.893333 0 11.946667-10.453333 23.893333-23.893333 23.893334zM359.68 531.413333c-13.44 0-23.893333-10.453333-23.893333-23.893333 0-13.44 10.453333-23.893333 23.893333-23.893333 13.44 0 23.893333 10.453333 23.893333 23.893333 0 13.44-10.453333 23.893333-23.893333 23.893333zM359.68 423.893333c-13.44 0-23.893333-10.453333-23.893333-23.893333 0-13.44 10.453333-23.893333 23.893333-23.893333 13.44 0 23.893333 10.453333 23.893333 23.893333 0 11.946667-10.453333 23.893333-23.893333 23.893333zM619.52 619.52c0 5.973333-4.48 10.453333-10.453333 10.453333h-176.213334c-5.973333 0-10.453333-4.48-10.453333-10.453333v-10.453333c0-5.973333 4.48-10.453333 10.453333-10.453334h176.213334c5.973333 0 10.453333 4.48 10.453333 10.453334v10.453333zM619.52 512c0 5.973333-4.48 10.453333-10.453333 10.453333h-176.213334c-5.973333 0-10.453333-4.48-10.453333-10.453333v-10.453333c0-5.973333 4.48-10.453333 10.453333-10.453334h176.213334c5.973333 0 10.453333 4.48 10.453333 10.453334V512zM619.52 404.48c0 5.973333-4.48 10.453333-10.453333 10.453333h-176.213334c-5.973333 0-10.453333-4.48-10.453333-10.453333v-10.453333c0-5.973333 4.48-10.453333 10.453333-10.453334h176.213334c5.973333 0 10.453333 4.48 10.453333 10.453334v10.453333z" fill="#4483FF" p-id="49825"></path>
    <path d="M740.48 226.773333H331.306667c-14.933333 0-25.386667 14.933333-25.386667 29.866667h403.2c10.453333 0 19.413333 10.453333 19.413333 19.413333v364.373334c14.933333 0 29.866667-8.96 29.866667-23.893334V244.693333c-1.493333-10.453333-8.96-17.92-17.92-17.92z" fill="#FFFFFF" fill-opacity=".5" p-id="49826"></path>
</svg>