<?xml version="1.0" standalone="no"?>
<svg viewBox="0 0 1024 1024" version="1.1" xmlns="http://www.w3.org/2000/svg">
    <path d="M426.543117 0.6h170.529966c113.453978-2.5 236.403954 32.286994 313.972939 112.353978 80.166984 77.568985 114.852978 200.518961 112.453978 313.971939v170.530966c2.4 113.453978-32.286994 236.403954-112.453978 313.972939-77.568985 80.166984-200.518961 114.852978-313.971939 112.453978H426.543117c-113.453978 2.399-236.403954-32.286994-313.972939-112.453978C32.403194 833.959837-2.2828 711.009861 0.1162 597.556883v-170.529966C-2.2828 313.471939 32.403194 190.521963 112.570178 112.952978 190.140163 32.886994 313.090139-1.899 426.543117 0.6z" fill="#23C9FF" p-id="49006"></path>
    <path d="M112.570178 112.953978C36.901193 186.223964 1.7152 299.877941 0.1162 407.83392c137.943973 0 249.798951-111.953978 249.798951-249.897951 0-42.782992-10.795998-83.065984-29.687994-118.251977-40.583992 17.892997-77.568985 42.182992-107.656979 73.269986z" fill="#FFFFFF" opacity=".5" p-id="49007"></path>
    <path d="M725.221058 773.085849H409.05012c-87.364983 0-158.135969-70.770986-158.135969-158.135969V456.913911c0-113.553978 92.062982-205.51596 205.51696-205.51596h110.654978c113.553978 0 205.51596 92.061982 205.51596 205.51596v268.790947c0.1 26.189995-21.090996 47.379991-47.379991 47.379991zM472.324108 496.397903c0-17.492997-14.193997-31.586994-31.586994-31.586994-17.492997 0-31.586994 14.193997-31.586994 31.586994v31.586994c0 17.492997 14.193997 31.587994 31.586994 31.587994 17.492997 0 31.586994-14.194997 31.586994-31.587994v-31.586994z m142.241972 0c0-17.492997-14.193997-31.586994-31.586994-31.586994s-31.586994 14.193997-31.586994 31.586994v31.586994c0 17.492997 14.193997 31.587994 31.586994 31.587994s31.586994-14.194997 31.586994-31.587994v-31.586994z" fill="#FFFFFF" p-id="49008"></path>
    <path d="M643.755074 746.596854c0 9.395998 0.8 18.591996 2.499 27.587995h78.567984c26.988995 0 48.87999-21.889996 48.879991-48.879991V594.457884c-73.669986 11.595998-129.946975 75.269985-129.946975 152.13897z" fill="#23C9FF" opacity=".5" p-id="49009"></path>
</svg>