<?xml version="1.0" encoding="UTF-8"?>
<svg viewBox="0 0 480 480" version="1.1" xmlns="http://www.w3.org/2000/svg" xmlns:xlink="http://www.w3.org/1999/xlink">
    <g fill-rule="evenodd">
        <g transform="translate(20.000000, 32.000000)">
            <g fill="#8694FD">
                <path d="M231.858238,399.420331 C322.306846,418.825809 436.264537,322.879976 438.197623,207.482922 C432.751123,94.3001304 343.399347,-0.805100111 222.14208,0.00513921086 C100.884813,0.815378533 21.0866157,119.893649 15.8026956,207.482922 C9.6355912,307.280257 108.645644,389.250765 231.858238,399.420331 Z" id="1" opacity="0.200000003"></path>
                <path d="M194.117647,415.317432 C298.441178,419.928417 390.528293,324.223948 388.235294,238.900126 C377.37391,127.203317 301.325863,39.3632784 194.117647,47.0951088 C86.9094309,54.8269393 2.84217094e-14,133.811658 2.84217094e-14,223.512415 C2.85822416,295.058588 90.7620466,402.91958 194.117647,415.317432 Z" id="2" opacity="0.300000012"></path>
                <path d="M207.923106,378.451963 C329.175142,399.419058 412.859954,307.792275 412.38677,207.196851 C419.925706,112.254378 303.590533,9.60386334 196.305556,13.0339825 C83.9119772,13.0339825 14.3454351,98.7560049 15.544671,188.495495 C21.6579476,237.084688 48.4126179,360.782064 207.923106,378.451963 Z" id="3" opacity="0.400000006"></path>
                <path d="M193.181639,374.498124 C301.535358,396.142754 386.312217,368.733672 385.130088,207.216628 C361.237788,87.0872792 272.503537,44.9778587 201.882353,45.6749686 C73.4910599,50.7488836 23.7231619,120.224662 18.6346022,207.216628 C27.247047,258.653672 77.0609229,362.210048 193.181639,374.498124 Z" id="4" opacity="0.400000006"></path>
                <path d="M195.43098,335.609755 C298.698602,321.770596 368.302145,258.816499 369.99012,186.110465 C382.856623,81.0748083 305.703532,23.4231811 203.195686,28.8409875 C111.063078,50.3047747 59.4969389,107.241076 46.754193,186.110465 C46.6357003,254.066277 36.5053399,362.539179 195.43098,335.609755 Z" id="5" opacity="0.600000024"></path>
            </g>
            <path d="M249,288 C248.971252,303.467353 236.328379,316 220.496342,316 C204.778365,316 192.028432,303.516583 192,288 C192,288 249,288 249,288 C249,288 249,288 249,288 C249,288 249,288 249,288 C249,288 249,288 249,288 L249,288 Z" id="路径" fill="url(#linearGradient-1)" fill-rule="nonzero"></path>
            <path d="M239.665573,122.492458 C239.665573,112.302002 231.310693,104 221.003549,104 C210.710409,104 202.334534,112.28062 202.334534,122.492458 C202.334534,123.532881 202.4255,124.551927 202.58644,125.542463 C176.815147,134.44306 158.083106,157.211175 158.083106,189.542836 C158.083106,189.542836 158.083106,225.173791 158.083106,225.173791 C158.083106,225.173791 155.669015,256.19417 146.572423,256.514683 C141.156445,256.514683 137,260.654993 137,265.757341 C137,270.902453 141.17744,275 146.334508,275 C146.334508,275 221.003516,275 221.003516,275 C221.003516,275 286.337976,275 286.337976,275 C286.337976,275 295.672484,275 295.672484,275 C300.850546,275 305,270.86681 305,265.757341 C305,260.61935 300.82256,256.514683 295.672484,256.514683 C286.337976,256.514683 284.035831,225.173791 284.035831,225.173791 C284.035831,225.173791 284.035831,189.542836 284.035831,189.542836 C284.035831,157.175678 266.563364,134.393198 239.420551,125.521165 C239.581491,124.537751 239.66546,123.518706 239.66546,122.492542 C239.66546,122.492542 239.66546,122.492542 239.66546,122.492542 C239.66546,122.492542 239.66546,122.492542 239.66546,122.492542 L239.665573,122.492458 Z" id="路径" fill="#FFFFFF" fill-rule="nonzero"></path>
        </g>
    </g>
</svg>