<svg xmlns="http://www.w3.org/2000/svg" xmlns:xlink="http://www.w3.org/1999/xlink" viewBox="0 0 400 240"><defs><style>.cls-1,.cls-34,.cls-35{fill:none;}.cls-2{fill:#fff;}.cls-3,.cls-6,.cls-7{isolation:isolate;}.cls-4{fill:url(#未命名的渐变_3);}.cls-5{opacity:0.36;mix-blend-mode:multiply;fill:url(#radial-gradient);}.cls-6{opacity:0.84;fill:url(#未命名的渐变_2);}.cls-7{opacity:0.66;fill:url(#未命名的渐变_16);}.cls-8{fill:url(#未命名的渐变_43);}.cls-9{clip-path:url(#clip-path);}.cls-10{fill:url(#未命名的渐变_23);}.cls-11{clip-path:url(#clip-path-2);}.cls-12{fill:url(#未命名的渐变_40);}.cls-13{fill:url(#未命名的渐变_5);}.cls-14{fill:url(#未命名的渐变_23-2);}.cls-15{fill:url(#未命名的渐变_17);}.cls-16{fill:#eaeaea;}.cls-17{fill:url(#未命名的渐变_40-2);}.cls-18{fill:url(#未命名的渐变_40-3);}.cls-19{fill:url(#未命名的渐变_40-4);}.cls-20{fill:url(#未命名的渐变_40-5);}.cls-21{fill:url(#未命名的渐变_40-6);}.cls-22{fill:url(#未命名的渐变_40-7);}.cls-23{fill:#fddcbd;}.cls-24{fill:url(#未命名的渐变_13);}.cls-25{fill:url(#未命名的渐变_13-2);}.cls-26{fill:url(#未命名的渐变_12);}.cls-27{fill:url(#linear-gradient);}.cls-28{fill:url(#未命名的渐变_15);}.cls-29{fill:url(#未命名的渐变_15-2);}.cls-30{fill:url(#未命名的渐变_10);}.cls-31{fill-rule:evenodd;fill:url(#未命名的渐变_11);}.cls-32{clip-path:url(#clip-path-3);}.cls-33{fill:url(#未命名的渐变_14);}.cls-34,.cls-35{stroke-miterlimit:10;}.cls-34{stroke:url(#未命名的渐变_49);}.cls-35{stroke:url(#未命名的渐变_46);}</style><linearGradient id="未命名的渐变_3" x1="356.6" y1="-2505.54" x2="356.6" y2="-2506.04" gradientTransform="matrix(390, 0, 0, -196, -138873, -490958)" gradientUnits="userSpaceOnUse"><stop offset="0" stop-color="#a9a9a9" stop-opacity="0.15"/><stop offset="1" stop-color="#a9a9a9" stop-opacity="0"/></linearGradient><radialGradient id="radial-gradient" cx="321.33" cy="13876.8" r="77.12" gradientTransform="translate(-220.83 -2202.89) scale(1.31 0.17)" gradientUnits="userSpaceOnUse"><stop offset="0" stop-color="#808184"/><stop offset="0.07" stop-color="#9a9a9d"/><stop offset="0.17" stop-color="#b9b9bb"/><stop offset="0.28" stop-color="#d2d3d4"/><stop offset="0.4" stop-color="#e6e7e7"/><stop offset="0.53" stop-color="#f4f4f5"/><stop offset="0.7" stop-color="#fdfdfd"/><stop offset="0.99" stop-color="#fff"/></radialGradient><radialGradient id="未命名的渐变_2" cx="495.24" cy="-2506.82" r="1.63" gradientTransform="matrix(0, 21, 22.62, 0, 56981.05, -10350.95)" gradientUnits="userSpaceOnUse"><stop offset="0" stop-color="#fff"/><stop offset="1" stop-color="#c2c2c2"/></radialGradient><radialGradient id="未命名的渐变_16" cx="540.77" cy="-2516.23" r="0.94" gradientTransform="matrix(0, 16, 17.23, 0, 43399.47, -8544.25)" gradientUnits="userSpaceOnUse"><stop offset="0" stop-color="#fff"/><stop offset="1" stop-color="#d8d8d8"/></radialGradient><linearGradient id="未命名的渐变_43" x1="169.51" y1="184.8" x2="227.36" y2="184.8" gradientUnits="userSpaceOnUse"><stop offset="0" stop-color="#efefef"/><stop offset="1" stop-color="#fdfdfd"/></linearGradient><clipPath id="clip-path"><path class="cls-1" d="M214.38,179H182.5l-11.4,6.15a2.92,2.92,0,0,0,1.59,5.5h51.49a2.92,2.92,0,0,0,1.6-5.5Z"/></clipPath><linearGradient id="未命名的渐变_23" x1="163.85" y1="196.35" x2="235.27" y2="196.35" gradientUnits="userSpaceOnUse"><stop offset="0" stop-color="#dedede"/><stop offset="1" stop-color="#dedede" stop-opacity="0.4"/></linearGradient><clipPath id="clip-path-2"><rect class="cls-1" x="182.5" y="154.71" width="31.88" height="24.27"/></clipPath><linearGradient id="未命名的渐变_40" x1="167.62" y1="163.81" x2="236.52" y2="163.81" gradientUnits="userSpaceOnUse"><stop offset="0" stop-color="#dedede"/><stop offset="1" stop-color="#fdfdfd"/></linearGradient><linearGradient id="未命名的渐变_5" x1="173.24" y1="186.44" x2="231.32" y2="186.44" gradientUnits="userSpaceOnUse"><stop offset="0" stop-color="#eee"/><stop offset="1" stop-color="#d8d8d8"/></linearGradient><linearGradient id="未命名的渐变_23-2" x1="130.16" y1="108.58" x2="267" y2="108.58" xlink:href="#未命名的渐变_23"/><linearGradient id="未命名的渐变_17" x1="136.76" y1="77.69" x2="260.39" y2="77.69" gradientUnits="userSpaceOnUse"><stop offset="0" stop-color="#d6d7d8"/><stop offset="0.03" stop-color="#ddd"/><stop offset="1" stop-color="#d8d8d8"/></linearGradient><linearGradient id="未命名的渐变_40-2" x1="178.52" y1="94.36" x2="143.61" y2="94.36" xlink:href="#未命名的渐变_40"/><linearGradient id="未命名的渐变_40-3" x1="206.36" y1="101.65" x2="142.34" y2="101.65" xlink:href="#未命名的渐变_40"/><linearGradient id="未命名的渐变_40-4" x1="206.36" y1="108.95" x2="142.34" y2="108.95" xlink:href="#未命名的渐变_40"/><linearGradient id="未命名的渐变_40-5" x1="178.52" y1="117.95" x2="143.61" y2="117.95" xlink:href="#未命名的渐变_40"/><linearGradient id="未命名的渐变_40-6" x1="206.36" y1="125.25" x2="142.34" y2="125.25" xlink:href="#未命名的渐变_40"/><linearGradient id="未命名的渐变_40-7" x1="206.36" y1="132.54" x2="142.34" y2="132.54" xlink:href="#未命名的渐变_40"/><linearGradient id="未命名的渐变_13" x1="110.2" y1="100.15" x2="118.76" y2="82.37" gradientUnits="userSpaceOnUse"><stop offset="0" stop-color="#8caefb"/><stop offset="1" stop-color="#6894f9"/></linearGradient><linearGradient id="未命名的渐变_13-2" x1="116.91" y1="66.44" x2="143.43" y2="77.52" xlink:href="#未命名的渐变_13"/><linearGradient id="未命名的渐变_12" x1="134.67" y1="23.17" x2="144.45" y2="53.33" gradientUnits="userSpaceOnUse"><stop offset="0" stop-color="#fda457"/><stop offset="1" stop-color="#f96252"/></linearGradient><linearGradient id="linear-gradient" x1="155.57" y1="46.14" x2="155.65" y2="46.37" gradientUnits="userSpaceOnUse"><stop offset="0" stop-color="#fd7271"/><stop offset="1" stop-color="#ed5d58"/></linearGradient><linearGradient id="未命名的渐变_15" x1="101" y1="112.08" x2="113.11" y2="112.08" gradientUnits="userSpaceOnUse"><stop offset="0" stop-color="#1f1e4a"/><stop offset="1" stop-color="#424677"/></linearGradient><linearGradient id="未命名的渐变_15-2" x1="122.41" y1="100.99" x2="132.85" y2="100.99" xlink:href="#未命名的渐变_15"/><linearGradient id="未命名的渐变_10" x1="129.37" y1="19.63" x2="142.02" y2="19.63" gradientUnits="userSpaceOnUse"><stop offset="0" stop-color="#fff7ed"/><stop offset="1" stop-color="#ffebd6"/></linearGradient><linearGradient id="未命名的渐变_11" x1="499.51" y1="-2595.97" x2="499.51" y2="-2596.71" gradientTransform="matrix(-16.18, 7.89, -8.33, -17.08, -13410, -48262.14)" gradientUnits="userSpaceOnUse"><stop offset="0" stop-color="#494983"/><stop offset="1" stop-color="#272557"/></linearGradient><clipPath id="clip-path-3"><path class="cls-2" d="M730.34,92.72H726a1.32,1.32,0,0,1-1.32-1.32V85.25a1.32,1.32,0,1,1,2.64,0v4.83h3.07a1.32,1.32,0,0,1,0,2.64Z"/></clipPath><radialGradient id="未命名的渐变_14" cx="265.09" cy="153.31" r="10.91" gradientUnits="userSpaceOnUse"><stop offset="0" stop-color="#acf"/><stop offset="1" stop-color="#487fff" stop-opacity="0.6"/></radialGradient><linearGradient id="未命名的渐变_49" x1="272.5" y1="53.47" x2="293.71" y2="53.47" gradientUnits="userSpaceOnUse"><stop offset="0" stop-color="#487fff" stop-opacity="0.4"/><stop offset="1" stop-color="#487fff" stop-opacity="0.8"/></linearGradient><linearGradient id="未命名的渐变_46" x1="278.96" y1="52.59" x2="297.5" y2="52.59" gradientUnits="userSpaceOnUse"><stop offset="0" stop-color="#487fff" stop-opacity="0.3"/><stop offset="1" stop-color="#487fff" stop-opacity="0.5"/></linearGradient></defs><title>系统繁忙</title><g class="cls-3"><g id="图层_1" data-name="图层 1"><ellipse id="背景" class="cls-4" cx="200" cy="226.36" rx="195" ry="98"/><ellipse class="cls-5" cx="200" cy="197.79" rx="101" ry="13.34"/><circle class="cls-6" cx="283.82" cy="54.18" r="18.18"/><circle id="椭圆形" class="cls-7" cx="39.5" cy="110.36" r="8"/><rect class="cls-2" x="182.5" y="154.71" width="31.88" height="24.27"/><path class="cls-8" d="M214.38,179H182.5l-11.4,6.15a2.92,2.92,0,0,0,1.59,5.5h51.49a2.92,2.92,0,0,0,1.6-5.5Z"/><g class="cls-9"><rect class="cls-10" x="163.85" y="186.76" width="71.42" height="19.16"/></g><g class="cls-11"><path class="cls-12" d="M167.62,158.73c5.09,1.84,67,19,67,19l1.85-27.74Z"/><rect class="cls-13" x="173.24" y="178.28" width="58.08" height="16.32"/></g><rect class="cls-2" x="130.16" y="67.66" width="136.84" height="94.05" rx="9.01"/><path class="cls-14" d="M139.17,67H258a9,9,0,0,1,9,9v74.15a0,0,0,0,1,0,0H130.16a0,0,0,0,1,0,0V76A9,9,0,0,1,139.17,67Z"/><rect class="cls-2" x="137.06" y="74.17" width="123.05" height="69.59"/><rect class="cls-15" x="136.76" y="73.95" width="123.63" height="7.48"/><circle class="cls-16" cx="143.13" cy="78.03" r="1.71"/><circle class="cls-16" cx="148.46" cy="78.03" r="1.71"/><circle class="cls-16" cx="153.79" cy="78.03" r="1.71"/><rect class="cls-17" x="145.12" y="92.83" width="52.58" height="3.06" rx="1.53"/><rect class="cls-18" x="145.12" y="100.13" width="96.4" height="3.06" rx="1.53"/><rect class="cls-19" x="145.12" y="107.42" width="96.4" height="3.06" rx="1.53"/><rect class="cls-20" x="145.12" y="116.42" width="52.58" height="3.06" rx="1.53"/><rect class="cls-21" x="145.12" y="123.72" width="96.4" height="3.06" rx="1.53"/><rect class="cls-22" x="145.12" y="131.02" width="96.4" height="3.06" rx="1.53"/><path class="cls-23" d="M134,50.44a37.2,37.2,0,0,1-3.78,6.26c-1.11,1.6-2,2.86-2,2.86s-5.19.68-5.13.34,6.84-12.2,6.84-12.2l0,0a25.88,25.88,0,0,1,2.32,1.38A14.28,14.28,0,0,1,134,50.44Z"/><path class="cls-24" d="M127.35,78.89l-1,1.84c-.68,1.3-1.67,3.2-2.83,5.4-3,5.8-7.2,13.74-9.73,18.52-.94,1.76-1.65,3.09-2,3.73a4.53,4.53,0,0,1-.23.41.88.88,0,0,1-.7.35,1.44,1.44,0,0,1-1.48-1.22c-.07-.75,4.53-19.68,7.4-31.4l1.51-6.15c.46-1.86.74-3,.74-3,.28.44.68,1,1.15,1.69,1.22,1.74,2.91,4.06,4.34,6Z"/><path class="cls-25" d="M128.08,96.12A.24.24,0,0,1,128,96c-.71-.65-1.56-4.59-3.65-9.37a100.69,100.69,0,0,1-5-14.06c-.94-3.54-.71-5.67,0-7,1.43-2.75,5.6-6.3,11.05-8,.7-.22,2.35-.81,3-1,2.18-.65,3.28-1,4.4-1.24l1.1-.26h0s6.23-2.79,9.89-.16C150,55.8,151,57.4,151.28,60c1,10.08-21.75,8.43-22,10-.22,1.32.85,20.23.1,25.69"/><path class="cls-26" d="M155.67,46.14a2,2,0,0,1-.09.33h0l0,.1a.36.36,0,0,0,0,.09,3.61,3.61,0,0,1-.29.43.39.39,0,0,1-.08.1,5.8,5.8,0,0,1-.75.73l-.14.1-.15.12c-.18.14-.37.26-.56.39l-.28.17,0,0-.11.06-.15.09a.39.39,0,0,1-.11.06l-.32.18-.05,0-.37.2-.73.36-.35.16-.3.14-.13.05-.24.11-.34.14-.14,0c-.48.2-.8.31-.85.33h0s.18.46.41,1.12l.07.16c.16.46.35,1,.53,1.53l.06.2c0,.13.09.26.13.39s.07.21.1.32,0,0,0,.06c0,.18.1.34.14.49a2.25,2.25,0,0,1,.05.22c0,.15.07.29.1.42a38.41,38.41,0,0,1,.5,6v0c-.14.5-7.77-6.9-12.84-5.95a1.58,1.58,0,0,1-.42,0h0c-.6,0-.51-.66-.27-1.42a15.09,15.09,0,0,0,.69-2.32c.15-1.54-2-6-2-6s-.8,2-1.5,3.42a8.91,8.91,0,0,1-.82,1.48,19.23,19.23,0,0,0-2.15-1.65c-1.34-.89-2.54-1.51-2.86-1.69l0,0a5.84,5.84,0,0,1,.31-2c.7-3.09,2.27-8.83,2.63-10.67.49-2.52,2.58-7.84,7.53-9.1,3.18-.82,7.23,0,11.25,7.26h0a58.24,58.24,0,0,1,4.59,11.63C155.37,45.08,155.52,45.6,155.67,46.14Z"/><path class="cls-23" d="M136.34,28.53a2.47,2.47,0,0,0,2.2,3.21c3,.4,4-3.33,3.44-4.9s-1.39-2-2.79-1.17S136.4,27.67,136.34,28.53Z"/><path class="cls-23" d="M137.4,31c-.93-.36-.46,0-.72-1.38a8.46,8.46,0,0,0-1.14-2.43c-.18-.3-1.37-2.67-1.52-2.91,1.68-1,4.24-1,4.31-1.86a10,10,0,0,1,.3-2v0a5.73,5.73,0,0,0,.39,2.2,8.6,8.6,0,0,0,1.35,2.15,3.59,3.59,0,0,1,1.05,2.06C141.45,28.61,138.32,31.33,137.4,31Z"/><path class="cls-23" d="M158.56,71.61a16.22,16.22,0,0,1-2.28-.06c-1.93-.16-4.37-.56-4.7-1.31-.53-1.15-.48-4.26-.46-5.31s0-3.31,0-3.31v0a38.41,38.41,0,0,0-.5-6c0-.13-.06-.27-.1-.42a2.25,2.25,0,0,0-.05-.22c0-.15-.09-.31-.14-.49,0,0,0,0,0-.06s-.06-.21-.1-.32-.08-.26-.13-.39l-.06-.2c-.18-.53-.37-1.07-.53-1.53l-.07-.16c-.23-.66-.41-1.12-.41-1.12h0c.05,0,.37-.13.85-.33l.14,0,.34-.14.24-.11.13-.05.3-.14.35-.16.73-.36.37-.2.05,0a3.3,3.3,0,0,0,.32-.18.39.39,0,0,0,.11-.06l.15-.09.11-.06,0,0a2.61,2.61,0,0,0,.28-.17c.19-.13.38-.25.56-.39l.15-.12.14-.1a5.8,5.8,0,0,0,.75-.73.39.39,0,0,0,.08-.1,3.61,3.61,0,0,0,.29-.43.36.36,0,0,1,0-.09l0-.1h0a2,2,0,0,0,.09-.33c2.32,7.16-1.36,17.11-.83,19.43S159.51,71.51,158.56,71.61Z"/><path class="cls-27" d="M155.67,46.14a2,2,0,0,1-.09.33Z"/><path class="cls-28" d="M112.86,113.05c-1.92,1.07-11.86,4.61-11.86,2.9s8.56-8.19,8.56-8.19c.12,1.14,1.71,1.71,2.28.91,0,0,.12-.19.25-.43C112.42,110.09,113.63,112.62,112.86,113.05Z"/><path class="cls-29" d="M132.76,100c-.29.49-.67.26-2.16,1.94-1.12,1.27-8.19,6.56-8.19,4.41S128,95.69,128,95.69c.32.17,1.59-.52,1.59-.52C130.83,96.43,133.35,99,132.76,100Z"/><path class="cls-30" d="M141.14,18.27c0-2.13-.62-4.16-2.26-5-3.57-1.81-7.95.66-9.12,2.68-.63,1.08-.52,3.49.49,5.83A11,11,0,0,0,133.43,26c2.37,1.6,5.06-.51,6.11-1.7a7,7,0,0,0,1.21-2.79A1.57,1.57,0,0,0,142,20.29,1.75,1.75,0,0,0,141.14,18.27Z"/><path id="头发" class="cls-31" d="M142.42,18.77c0,1.9-.7,3-2,3.39a20.29,20.29,0,0,0,.57-3.41,1.16,1.16,0,0,0-.66-.82,1.7,1.7,0,0,0-1.06.09c-1.08-1.87-1.95-2.58-2.92-2.91A6.26,6.26,0,0,0,132.5,15,10.21,10.21,0,0,0,129,17.82a3.64,3.64,0,0,1-.83-2.66A4,4,0,0,1,130,11.94a10.48,10.48,0,0,1,4.88-1.88,5.86,5.86,0,0,1,5.25,1.63A11.83,11.83,0,0,1,142.42,18.77Z"/><path class="cls-2" d="M730.34,92.72H726a1.32,1.32,0,0,1-1.32-1.32V85.25a1.32,1.32,0,1,1,2.64,0v4.83h3.07a1.32,1.32,0,0,1,0,2.64Z"/><g class="cls-32"><rect class="cls-2" x="322.5" y="-993.54" width="528.54" height="1604.98"/></g><circle class="cls-33" cx="265.09" cy="153.31" r="10.91"/><rect class="cls-2" x="258.61" y="151.21" width="13.91" height="4.64" rx="2"/><path class="cls-34" d="M280,46c-3.24,0-4.73,10.48-2.73,13,1.57,2,12.65,3.72,13.33,1.22,1.2-4.37-18.07-5.54-17.57-9.7s16.47-7.73,18.79-4.24c2.46,3.71-13.26,11.49-11.22,15.45,1.31,2.53,11.13-2,12.43-4.54s-4.37-5.38-7.27-6.06c-3.36-.79-13.58,2.94-12.12,6.06,1.63,3.5,17.73-.53,18.78-4.25.79-2.78-8.49-10.67-10.91-9.09-4.07,2.68-2.38,20.15,2.43,19.4C288.29,62.57,284.41,45.91,280,46Z"/><path class="cls-35" d="M288.36,42.24c4.5,3-11.63,15.57-8.49,20,2.93,4.11,18.88-6.24,17-10.91-1.61-3.93-14.93,3.12-17-.61C278.43,48.09,285.87,40.56,288.36,42.24Z"/></g></g></svg>