<svg xmlns="http://www.w3.org/2000/svg" xmlns:xlink="http://www.w3.org/1999/xlink" xml:space="preserve" id="svg1109" width="800" height="600" x="0" y="0" version="1.1"><defs id="defs1113"><linearGradient id="linearGradient1362" x1="362.782" x2="446.348" y1="386.985" y2="386.985" gradientUnits="userSpaceOnUse"><stop id="stop1358" offset=".288" style="stop-color:#fff;stop-opacity:.18410042"/><stop id="stop1364" offset=".587" style="stop-color:#edf2f7;stop-opacity:0"/><stop id="stop1360" offset="1" style="stop-color:#d8e3ef;stop-opacity:0"/></linearGradient><linearGradient xlink:href="#linearGradient1362" id="linearGradient1149" x1="418.785" x2="417.68" y1="398.895" y2="724.862" gradientUnits="userSpaceOnUse"/></defs><style id="style833" type="text/css">.st20{fill:#c6d5e6}.st33{fill:#f8b62d}.st34{fill:#e6e8e8}</style><g id="背景_28_" transform="matrix(1.07917 0 0 1.1122 -32.429 -99.873)"><linearGradient id="SVGID_1_" x1="256.573" x2="256.573" y1="422.067" y2="325.279" gradientUnits="userSpaceOnUse"><stop id="stop863" offset="0" style="stop-color:#fff"/><stop id="stop865" offset="1" style="stop-color:#dbe3ee"/></linearGradient><path id="path868" d="M271.03 328.68v-3.41h-29.5v3.96h-6.48v92.83h43.05v-93.38zm3.34 82.74h-36.04v-2.75h36.04zm0-12.67h-36.04V396h36.04zm0-12.68h-36.04v-2.75h36.04zm0-12.34h-36.04v-2.75h36.04zm0-12.32h-36.04v-2.75h36.04zm0-12.67h-36.04v-2.75h36.04zm0-12.35h-36.04v-2.75h36.04z" style="fill:url(#SVGID_1_)"/><linearGradient id="SVGID_2_" x1="191.956" x2="191.956" y1="480.059" y2="263.57" gradientUnits="userSpaceOnUse"><stop id="stop870" offset="0" style="stop-color:#fff"/><stop id="stop872" offset="1" style="stop-color:#dbe3ee"/></linearGradient><path id="path875" d="M213.05 380.5V272.31H180.3v-8.74h-13.86v53.33h-3.73v163.16h58.51V380.5Zm-24.5 31.8h-8.26v-8.01h8.26zm0-12.52h-8.26v-8.01h8.26zm0-12.48h-8.26v-8.01h8.26zm0-12.44h-8.26v-8.01h8.26zm0-12.53h-8.26v-8.01h8.26zm0-25h-8.26v-8.01h8.26zm0-12.53h-8.26v-8.01h8.26zm0-12.47h-8.26v-8.01h8.26zm0-12.44h-8.26v-8.01h8.26zm0-12.53h-8.26v-8.01h8.26zM200.9 412.3h-8.26v-8.01h8.26zm0-12.52h-8.26v-8.01h8.26zm0-12.48h-8.26v-8.01h8.26zm0-12.44h-8.26v-8.01h8.26zm0-12.53h-8.26v-8.01h8.26zm0-25h-8.26v-8.01h8.26zm0-12.53h-8.26v-8.01h8.26zm0-12.47h-8.26v-8.01h8.26zm0-12.44h-8.26v-8.01h8.26zm0-12.53h-8.26v-8.01h8.26z" style="fill:url(#SVGID_2_)"/><linearGradient id="SVGID_3_" x1="567.738" x2="567.738" y1="437.38" y2="280.899" gradientUnits="userSpaceOnUse"><stop id="stop877" offset="0" style="stop-color:#fff"/><stop id="stop879" offset="1" style="stop-color:#dbe3ee"/></linearGradient><path id="path882" d="M535.36 437.38c.36-4.65 0-156.48 0-156.48h18.53v33.71h29.5v70.45h16.73v52.32z" style="fill:url(#SVGID_3_)"/><linearGradient id="SVGID_4_" x1="630.263" x2="630.263" y1="460.05" y2="290.309" gradientUnits="userSpaceOnUse"><stop id="stop884" offset="0" style="stop-color:#fff"/><stop id="stop886" offset="1" style="stop-color:#dbe3ee"/></linearGradient><path id="path889" d="M656.57 369.23v-4.85h-5v-42.33h-12.2v-4.7h-8.23v-6.91h-4.29V290.3h-3.09v20.28h-3.94v6.91h-12.2v11.32h-7.05v131.23h59.38v-90.82h-3.38zm-45.51 52.79h-4.02v-15.24h4.02zm0-18.65h-4.02v-15.24h4.02zm0-18.65h-4.02v-15.24h4.02zm0-18.99h-4.02V350.5h4.02zm0-18.98h-4.02v-15.24h4.02zm8.28 75.27h-4.02v-15.24h4.02zm0-18.65h-4.02v-15.24h4.02zm0-18.65h-4.02v-15.24h4.02zm0-18.99h-4.02V350.5h4.02zm0-18.98h-4.02v-15.24h4.02zm8.28 75.27h-4.02v-15.24h4.02zm0-18.65h-4.02v-15.24h4.02zm0-18.65h-4.02v-15.24h4.02zm0-18.99h-4.02V350.5h4.02zm0-18.98h-4.02v-15.24h4.02zm8.28 75.27h-4.02v-15.24h4.02zm0-18.65h-4.02v-15.24h4.02zm0-18.65h-4.02v-15.24h4.02zm0-18.99h-4.02V350.5h4.02zm0-18.98h-4.02v-15.24h4.02zm8.28 75.27h-4.02v-15.24h4.02zm0-18.65h-4.02v-15.24h4.02zm0-18.65h-4.02v-15.24h4.02zm0-18.99h-4.02V350.5h4.02zm0-18.98h-4.02v-15.24h4.02z" style="fill:url(#SVGID_4_)"/><linearGradient id="SVGID_5_" x1="121.55" x2="121.55" y1="502.128" y2="351.615" gradientUnits="userSpaceOnUse"><stop id="stop891" offset="0" style="stop-color:#fff;stop-opacity:.82008368"/><stop id="stop893" offset="1" style="stop-color:#edf1f9"/></linearGradient><path id="polygon896" d="M140.44 411.86h7.74v90.27H94.92v-89.55h10.26v-45.69l35.26-15.27z" style="fill:url(#SVGID_5_)"/><linearGradient id="SVGID_6_" x1="684.223" x2="684.223" y1="485.523" y2="362.391" gradientUnits="userSpaceOnUse"><stop id="stop898" offset="0" style="stop-color:#fff"/><stop id="stop900" offset="1" style="stop-color:#edf1f9"/></linearGradient><path id="polygon903" d="M668.75 485.52V362.39l30.94 14.97v108.16z" style="fill:url(#SVGID_6_)"/><linearGradient id="SVGID_7_" x1="127.514" x2="127.514" y1="229.821" y2="165.28" gradientUnits="userSpaceOnUse"><stop id="stop905" offset=".233" style="stop-color:#fff;stop-opacity:.12970711"/><stop id="stop907" offset="1" style="stop-color:#d3dfee"/></linearGradient><path id="path910" d="M72.903 180.545s9.34-25.48 32.3-15.48c5.3-5.38 11.86-9.29 20.73-7.53 8.87 1.77 14.59 8.41 16.53 12.83-16.53-12.83 25.04.61 25.04 23.7s-26.94 22.65-28.89 20.82c-2.4 2.14-13.94 13.75-27.94.5-3.03 2.59-12.93 13.56-28.58-1.58-7.25 3.03-24.48 5.36-27.82-12.43s13.8-22.8 18.63-20.83z" style="fill:url(#SVGID_7_)"/><linearGradient id="SVGID_8_" x1="644.582" x2="644.582" y1="193.001" y2="128.459" gradientUnits="userSpaceOnUse"><stop id="stop912" offset=".37" style="stop-color:#fcfcfc;stop-opacity:.08786611"/><stop id="stop914" offset="1" style="stop-color:#d3dfee"/></linearGradient><path id="path917" d="M654.514 152.797s9.34-25.48 32.3-15.48c5.3-5.38 11.86-9.29 20.73-7.53 8.87 1.76 14.59 8.41 16.53 12.83 2.78-.13 25.04.61 25.04 23.7s-26.94 22.65-28.89 20.82c-2.4 2.14-13.94 13.75-27.94.5-3.03 2.59-12.93 13.56-28.58-1.58-7.25 3.03-24.48 5.36-27.82-12.43-3.34-17.78 13.8-22.8 18.63-20.83z" style="fill:url(#SVGID_8_)"/><linearGradient id="SVGID_9_" x1="514.811" x2="514.811" y1="236.174" y2="189.457" gradientUnits="userSpaceOnUse"><stop id="stop919" offset=".233" style="stop-color:#fff;stop-opacity:.05857741"/><stop id="stop921" offset="1" style="stop-color:#d3dfee"/></linearGradient><path id="path924" d="M511.79 184.646s6.76-18.45 23.38-11.2c3.84-3.9 8.58-6.73 15.01-5.45 6.42 1.28 10.56 6.09 11.96 9.28 2.01-.09 18.13.44 18.13 17.15 0 16.71-19.5 16.39-20.91 15.07-1.74 1.55-10.09 9.95-20.23.37-2.19 1.87-9.36 9.82-20.68-1.14-5.25 2.19-17.72 3.88-20.14-9-2.42-12.87 9.98-16.51 13.48-15.08z" style="fill:url(#SVGID_9_)"/><linearGradient id="SVGID_10_" x1="401.029" x2="401.029" y1="751.699" y2="399.57" gradientUnits="userSpaceOnUse"><stop id="stop926" offset=".25" style="stop-color:#dbe5f0;stop-opacity:1"/></linearGradient><ellipse id="ellipse931" cx="401.03" cy="575.63" rx="370.98" ry="178.27" style="opacity:1;fill:url(#linearGradient1149);fill-opacity:1"/></g><g id="树苗_28_" transform="matrix(1.07446 0 0 1.10777 -32.288 -99.301)"><g id="g950"><linearGradient id="SVGID_11_" x1="191.958" x2="140.522" y1="575.155" y2="513.856" gradientUnits="userSpaceOnUse"><stop id="stop934" offset=".403" style="stop-color:#eff4f8"/><stop id="stop936" offset="1" style="stop-color:#d4dfec"/></linearGradient><path id="path939" d="M146.98 554.1s-3.53 5.01 2.37 12.47c5.26 6.64 13.57 5.35 16.33 3.22.85 5.78 7.94 17.96 19.16 11.07 10.55-6.47 5.47-16.31 2.1-20.18 6.59-1.86 11.5-17.65-3.62-23.1 2.24-6.52 2.64-9.47-.64-15.33-3.16-5.64-8.35-6.54-16.63-3.11l-11.98 5.05-7.63-14.24-4.08 2.36 8.8 13.6-11.66 5.85s-9.97 3.9-5.67 14.6c3.99 9.92 13.15 7.74 13.15 7.74z" style="opacity:.440514;fill:url(#SVGID_11_)"/><linearGradient id="SVGID_12_" x1="112.91" x2="177.097" y1="454.865" y2="454.865" gradientUnits="userSpaceOnUse"><stop id="stop941" offset=".102" style="stop-color:#f0f5f8"/><stop id="stop943" offset="1" style="stop-color:#b4c7dc"/></linearGradient><path id="path946" d="M126.68 493.39h36.06s11.65.33 13.97-12.98c2.55-14.61-8.08-16.62-8.08-16.62s6.4-2.94 5.01-13.99c-1.39-11.05-11.12-12.44-15.17-11.93.66-6.55 2.04-21.38-13.36-21.53-14.87-.15-14.78 14.82-13.67 20.72-5.3.06-21.31 8.01-10.05 25.45-6.13 5.25-8.72 8.28-8.45 15.85.27 7.57 4.9 15.03 13.74 15.03z" style="fill:url(#SVGID_12_)"/><path id="polygon948" d="m144.62 440.1-.94 30.1-10.38-8.26 10.28 11.33-.31 10.07-15.82-11.63 15.7 15.26-.79 25.35h5.36l-1.08-25.2 15.21-13.97-15.38 10.12-.42-9.79 9.73-11.46-9.88 7.99z" class="st20"/></g><g id="g968"><linearGradient id="SVGID_13_" x1="710.82" x2="663.455" y1="555.182" y2="498.734" gradientUnits="userSpaceOnUse"><stop id="stop952" offset=".403" style="stop-color:#eff4f8"/><stop id="stop954" offset="1" style="stop-color:#d4dfec"/></linearGradient><path id="path957" d="M669.4 535.8s-3.25 4.62 2.18 11.48c4.84 6.12 12.5 4.93 15.04 2.96.78 5.32 7.32 16.53 17.65 10.2 9.71-5.96 5.04-15.02 1.93-18.58 6.07-1.71 10.59-16.26-3.33-21.27 2.07-6 2.44-8.72-.59-14.11-2.91-5.19-7.69-6.03-15.31-2.86l-11.04 4.65-7.03-13.11-3.75 2.17 8.1 12.52-10.73 5.39s-9.18 3.59-5.22 13.45c3.66 9.11 12.1 7.11 12.1 7.11z" style="opacity:.5209;fill:url(#SVGID_13_)"/><linearGradient id="SVGID_14_" x1="638.028" x2="697.135" y1="444.412" y2="444.412" gradientUnits="userSpaceOnUse"><stop id="stop959" offset=".102" style="stop-color:#f0f5f8"/><stop id="stop961" offset="1" style="stop-color:#b4c7dc"/></linearGradient><path id="path964" d="M650.71 479.88h33.2s10.73.31 12.86-11.95c2.34-13.45-7.44-15.3-7.44-15.3s5.9-2.71 4.61-12.88c-1.29-10.17-10.24-11.46-13.97-10.98.61-6.03 1.88-19.69-12.3-19.83-13.69-.14-13.61 13.64-12.59 19.08-4.88.05-19.63 7.37-9.25 23.44-5.64 4.83-8.03 7.63-7.78 14.59.25 6.96 4.52 13.83 12.66 13.83z" style="fill:url(#SVGID_14_)"/><path id="polygon966" d="m667.23 430.82-.87 27.72-9.55-7.61 9.46 10.43-.29 9.27-14.56-10.7 14.46 14.05-.73 23.34h4.93l-.99-23.2 14.01-12.87-14.17 9.32-.38-9.01L677.5 451l-9.09 7.36z" class="st20"/></g><g id="g986"><linearGradient id="SVGID_15_" x1="252.158" x2="226.716" y1="456.012" y2="425.692" gradientUnits="userSpaceOnUse"><stop id="stop970" offset="0" style="stop-color:#eaeff6"/><stop id="stop972" offset="1" style="stop-color:#cddae9"/></linearGradient><path id="path975" d="M229.91 445.6s-1.75 2.48 1.17 6.17c2.6 3.29 6.71 2.65 8.08 1.59.42 2.86 3.93 8.88 9.48 5.48 5.22-3.2 2.71-8.07 1.04-9.98 3.26-.92 5.69-8.73-1.79-11.42 1.11-3.22 1.31-4.68-.32-7.58-1.56-2.79-4.13-3.24-8.22-1.54l-5.93 2.5-3.77-7.04-2.02 1.17 4.35 6.72-5.77 2.89s-4.93 1.93-2.8 7.22c1.97 4.9 6.5 3.82 6.5 3.82z" style="opacity:.55627;fill:url(#SVGID_15_)"/><linearGradient id="SVGID_16_" x1="213.059" x2="244.807" y1="396.514" y2="396.514" gradientUnits="userSpaceOnUse"><stop id="stop977" offset=".102" style="stop-color:#f0f5f8"/><stop id="stop979" offset="1" style="stop-color:#b4c7dc"/></linearGradient><path id="path982" d="M219.87 415.57h17.83s5.76.16 6.91-6.42c1.26-7.23-4-8.22-4-8.22s3.17-1.46 2.48-6.92-5.5-6.15-7.5-5.9c.33-3.24 1.01-10.58-6.61-10.65-7.36-.07-7.31 7.33-6.76 10.25-2.62.03-10.54 3.96-4.97 12.59-3.03 2.59-4.32 4.1-4.18 7.84.14 3.74 2.43 7.43 6.8 7.43z" style="fill:url(#SVGID_16_)"/><path id="polygon984" d="m228.74 389.21-.46 14.89-5.13-4.09 5.08 5.61-.16 4.98-7.82-5.75 7.77 7.54-.39 12.54h2.64l-.53-12.46 7.53-6.91-7.61 5-.21-4.84 4.81-5.67-4.88 3.95z" class="st20"/></g></g><g id="g1028" transform="matrix(1.0122 0 0 1.03881 -15.353 -84.1)"><linearGradient id="SVGID_17_" x1="466.207" x2="466.929" y1="649.026" y2="401.687" gradientUnits="userSpaceOnUse"><stop id="stop989" offset=".22" style="stop-color:#fff;stop-opacity:0"/><stop id="stop1352" offset=".382" style="stop-color:#e0e7f1;stop-opacity:.13389121"/><stop id="stop991" offset=".687" style="stop-color:#bbcbe0"/><stop id="stop993" offset="1" style="stop-color:#bbcbe0"/></linearGradient><path id="polygon996" d="M707.8 598.1 430.21 701.42 296.39 450.59l205.4 9.96z" style="fill:url(#SVGID_17_)"/><linearGradient id="SVGID_18_" x1="271.996" x2="537.134" y1="375.405" y2="375.405" gradientUnits="userSpaceOnUse"><stop id="stop998" offset="0" style="stop-color:#eff3f9"/><stop id="stop1000" offset="1" style="stop-color:#b6c9de"/></linearGradient><path id="path1003" d="M529.82 280.63c-35.12-4.43-47.1-33.75-49.37-48.6-.5-3.27-3-5.86-6.24-6.51-29.16-5.82-65.44-5.1-69.65-4.99-4.2-.11-40.49-.83-69.65 4.99a7.86 7.86 0 0 0-6.24 6.51c-2.27 14.85-14.25 44.17-49.37 48.6-3.94.5-6.92 3.81-6.93 7.79-.04 36.72-.39 24.92-.39 55.52 0 32.46 9.78 98.56 36.76 124.38 26.12 24.99 54.56 43.62 93.84 61.58 1.21.62 2.64.63 3.86.04l.07-.04c39.27-17.96 67.72-36.59 93.84-61.58 26.99-25.81 36.76-91.91 36.76-124.38 0-30.6-.35-18.8-.39-55.52.02-3.97-2.96-7.29-6.9-7.79z" style="fill:url(#SVGID_18_)"/><linearGradient id="SVGID_19_" x1="294.775" x2="514.355" y1="375.405" y2="375.405" gradientUnits="userSpaceOnUse"><stop id="stop1005" offset="0" style="stop-color:#dde5f0"/><stop id="stop1007" offset="1" style="stop-color:#9fb7ce"/></linearGradient><path id="path1010" d="M508.3 296.92c-29.08-3.67-39.01-27.95-40.89-40.25-.41-2.71-2.48-4.85-5.17-5.39-24.15-4.82-54.2-4.22-57.68-4.13-3.48-.09-33.53-.69-57.68 4.13a6.51 6.51 0 0 0-5.17 5.39c-1.88 12.3-11.8 36.58-40.89 40.25-3.27.41-5.73 3.16-5.74 6.45-.03 30.41-.32 20.64-.32 45.98 0 26.88 8.1 81.63 30.45 103 21.63 20.69 45.19 36.12 77.71 51 1 .51 2.18.52 3.19.03l.06-.03c32.53-14.87 56.08-30.3 77.71-51 22.35-21.38 30.45-76.12 30.45-103 0-25.34-.29-15.57-.32-45.98.02-3.29-2.45-6.04-5.71-6.45z" style="fill:url(#SVGID_19_)"/><linearGradient id="SVGID_20_" x1="362.782" x2="446.348" y1="386.985" y2="386.985" gradientUnits="userSpaceOnUse"><stop id="stop1012" offset=".145" style="stop-color:#fff"/><stop id="stop1014" offset="1" style="stop-color:#d8e3ef"/></linearGradient><path id="path1017" d="M439.87 352.95h-70.61c-3.58 0-6.48 2.9-6.48 6.48v55.11c0 3.58 2.9 6.48 6.48 6.48h70.61c3.58 0 6.48-2.9 6.48-6.48v-55.11c0-3.58-2.9-6.48-6.48-6.48zm-31.33 33.3.86 19.26h-9.98l.83-19.34c-2.34-1.43-3.91-3.99-3.91-6.94a8.12 8.12 0 0 1 8.12-8.12 8.12 8.12 0 0 1 8.12 8.12c0 3-1.63 5.61-4.04 7.02z" style="fill:url(#SVGID_20_)"/><g id="g1026"><linearGradient id="SVGID_21_" x1="370.277" x2="438.853" y1="324.321" y2="324.321" gradientUnits="userSpaceOnUse"><stop id="stop1019" offset=".145" style="stop-color:#fff"/><stop id="stop1021" offset="1" style="stop-color:#d8e3ef"/></linearGradient><path id="path1024" d="M438.85 345.13h-14.42v-7.33c0-10.95-8.91-19.87-19.87-19.87-10.95 0-19.86 8.91-19.86 19.87v7.33h-14.42v-7.33c0-18.91 15.38-34.29 34.29-34.29 18.91 0 34.29 15.38 34.29 34.29v7.33z" style="fill:url(#SVGID_21_)"/></g></g><g id="g1093" transform="matrix(2.07926 0 0 1.8141 -356.395 -453.68)"><linearGradient id="SVGID_22_" x1="305.18" x2="301.647" y1="626.087" y2="547.073" gradientUnits="userSpaceOnUse"><stop id="stop1354" offset="0" style="stop-color:#e4eaf2;stop-opacity:.0041841"/><stop id="stop1356" offset=".347" style="stop-color:#d6dfeb;stop-opacity:.04184101"/><stop id="stop1032" offset=".71" style="stop-color:#c9d5e6;stop-opacity:.45606694"/></linearGradient><linearGradient id="SVGID_23_" x1="271.924" x2="319.114" y1="547.987" y2="547.987" gradientUnits="userSpaceOnUse"><stop id="stop1037" offset="0" style="stop-color:#dde5f0"/><stop id="stop1039" offset="1" style="stop-color:#9fb7ce"/></linearGradient><path id="path1042" d="M315.36 558h-39.68c-2.07 0-3.75-1.68-3.75-3.75v-12.52c0-2.07 1.68-3.75 3.75-3.75h39.68c2.07 0 3.75 1.68 3.75 3.75v12.52c0 2.07-1.68 3.75-3.75 3.75z" style="fill:url(#SVGID_23_)"/><path id="path1044" d="M303.94 555.61c-.07.2-.22.38-.42.5-.43.25-.67.66-1.63.42-1.46-.36-1.7-.78-1.94-1.56-.74.99-.03 2.22-.48 3.72-.46 1.5-1.39 3.88 1.23 5.46s5.07-.76 5.2-2.82c.13-2.06-1.72-4.72-1.42-5.56.12-.61-.16-1.14-.16-1.14s-.25.6-.38.98z" class="st33"/><path id="path1046" d="M305.68 559.73s.45 3.08-1.54 4.01c-.54.29-3.27.99-5.01-1.3.13.41.71 1.82 2.39 2.38.77.16 2.35.39 3.73-1.02 1.38-1.41.43-4.07.43-4.07z" class="st34"/><path id="path1048" d="M287.83 555.43c.07.21.21.39.41.51.42.26.65.67 1.62.46 1.46-.33 1.72-.74 1.96-1.52.73 1.01.86 2.12 1.29 3.63.43 1.51 2.19 3.81-.46 5.33s-5.42-1.06-5.51-3.12c-.09-2.07.43-4.29.15-5.14-.11-.61.18-1.14.18-1.14s.23.6.36.99z" class="st33"/><path id="path1050" d="M287.15 559.37s.21 3.06 2.06 3.98c.54.3 2.98 1.32 4.76-.94-.16.36-.46 1.55-2.15 2.07-.77.14-2.35.34-3.71-1.1-1.36-1.45-.96-4.01-.96-4.01z" class="st34"/><linearGradient id="SVGID_24_" x1="296.198" x2="296.198" y1="526.437" y2="492.772" gradientUnits="userSpaceOnUse"><stop id="stop1052" offset="0" style="stop-color:#f2a319"/><stop id="stop1054" offset=".48" style="stop-color:#ffc552"/></linearGradient><path id="path1057" d="M275.39 510.26c.53.08 8.85 1.44 8.85 1.44s.68 9.5 1.77 11.52c1.09 2.02 4.12 3.05 4.12 3.05l17.49.17s1.31-7.34.62-14.47c2.92-.21 8.77-1.41 8.77-1.41s-2.36-17.78-21.62-17.78-20 17.48-20 17.48z" style="fill:url(#SVGID_24_)"/><path id="path1059" d="M313.05 522.2s1.62 16.29-10.26 17.61c-.81.06-5.06-.22-6.37-1.66-1.21.66-4.5 3.05-10.36-.06-3.34-6.04-3.64-13.9-2.12-15.57 1.51-1.65 29.11-.32 29.11-.32z" style="fill:#036eb8"/><linearGradient id="SVGID_25_" x1="279.684" x2="295.274" y1="552.005" y2="525.003" gradientUnits="userSpaceOnUse"><stop id="stop1061" offset="0" style="stop-color:#78c8ff"/><stop id="stop1063" offset=".69" style="stop-color:#2a80e2"/></linearGradient><path id="path1066" d="M281.86 522.42s-1.77 1.55-1.21 6.04 7.28 28.31 7.28 28.31l4.25-.39s.35-30.69-.81-33.18c-1.17-2.5-7.73-2.14-9.51-.78z" style="fill:url(#SVGID_25_)"/><linearGradient id="SVGID_26_" x1="294.645" x2="311.937" y1="553.37" y2="523.421" gradientUnits="userSpaceOnUse"><stop id="stop1068" offset="0" style="stop-color:#78c8ff"/><stop id="stop1070" offset=".69" style="stop-color:#2a80e2"/></linearGradient><path id="path1073" d="M310.17 522.42s1.77 1.55 1.21 6.04-7.28 28.31-7.28 28.31l-4.25-.39s-.35-30.69.81-33.18c1.16-2.5 7.72-2.14 9.51-.78z" style="fill:url(#SVGID_26_)"/><linearGradient id="SVGID_27_" x1="298.503" x2="286.103" y1="526.989" y2="505.512" gradientUnits="userSpaceOnUse"><stop id="stop1075" offset=".341" style="stop-color:#ef9a60"/><stop id="stop1077" offset="1" style="stop-color:#ffbe92"/></linearGradient><path id="path1080" d="M277.46 510.5s2.39.29 6.49 1.06c-.07.6-1.02 4.52-.34 4.65 5.73.06 16.28-1.37 17.21-1.25 1.71.22 5.82-3.09 9.41.54 3.11 3.02.1 4.65.1 4.65l-16.56.3s-15.62 6.16-17.38.34c-.63-2.09 1.07-10.29 1.07-10.29z" style="fill:url(#SVGID_27_)"/><linearGradient id="SVGID_28_" x1="280.027" x2="317.053" y1="518.828" y2="518.828" gradientUnits="userSpaceOnUse"><stop id="stop1082" offset=".341" style="stop-color:#f4ae7f"/><stop id="stop1084" offset="1" style="stop-color:#ffbe92"/></linearGradient><path id="path1087" d="M316.14 510.61s3.37 11.88-2.84 13.25c-6.22 1.37-21.42.54-22.79.29-1.37-.25-2.28-.46-3.39.21-1.11.66-3.02.58-3.34.68-.32.1-1.58 1.97-1.93 2.01-.35.04-2.15-1-1.77-3.27.38-2.27 1.95-3.84 3.93-4.02 1.98-.18 2.07.19 3.44-.33 1.37-.53 20.91-3.87 21.33-3.96.43-.08.88-.47.68-1.27-.2-.8-.83-2.44-.83-2.44z" style="fill:url(#SVGID_28_)"/><path id="path1089" d="M291.52 505.08s1.04 5.1 4.58 5.1 4.58-4.51 4.45-4.85c-.13-.33-2.58-1.36-4.52-1.36-1.96.01-4.51 1.11-4.51 1.11z" style="fill:#ffbe92"/><path id="path1091" d="M296.23 506.5s.8 1.01 1.95.89c1.23-.13.92-.9 1.77-1.08.85-.18 1.38-.13 1.17-1.71-.12-.88-.02-.87.22-1.29.15-.25 1.18-1.1.49-2.18-.67-1.06-.87-.66-.69-1.68.18-1.01-.21-1.91-.83-2.21-.6-.3-.45-.84-.33-1.16a.876.876 0 0 0-1.25-.94c-1.03.37-1.98.08-2.78-.28-1.76-.79-3.79.03-3.6 1.63.19 1.63-.76 1.3-1.38 1.89-.61.59-.43 1.6-.12 2.6.18.57.43 1.19-.3 2.06-.76.9.51 3.31 1.36 3.22.87-.11 2.02 2.2 4.32.24z" style="fill:#171c61"/></g></svg>