<svg xmlns="http://www.w3.org/2000/svg" xmlns:xlink="http://www.w3.org/1999/xlink" viewBox="0 0 400 240"><defs><style>.cls-1,.cls-5,.cls-6,.cls-7{isolation:isolate;}.cls-2{fill:url(#未命名的渐变_3);}.cls-3{opacity:0.18;fill:url(#radial-gradient);}.cls-3,.cls-4{mix-blend-mode:multiply;}.cls-4{opacity:0.36;fill:url(#radial-gradient-2);}.cls-5{opacity:0.84;fill:url(#未命名的渐变_2);}.cls-6,.cls-7{opacity:0.66;}.cls-6{fill:url(#未命名的渐变_16);}.cls-7{fill:url(#未命名的渐变_16-2);}.cls-8{fill:url(#未命名的渐变_40);}.cls-9{fill:url(#未命名的渐变_40-2);}.cls-10{fill:url(#未命名的渐变_20);}.cls-11{opacity:0.7;fill:url(#未命名的渐变_40-3);}.cls-12{fill:url(#未命名的渐变_10);}.cls-13{fill:#4598e3;}.cls-13,.cls-14,.cls-15,.cls-19,.cls-24{fill-rule:evenodd;}.cls-14{fill:#0075bf;}.cls-15{fill:#fff;}.cls-16{fill:url(#未命名的渐变_10-2);}.cls-17{fill:url(#未命名的渐变_10-3);}.cls-18{fill:url(#未命名的渐变_13);}.cls-19{fill:url(#未命名的渐变_11);}.cls-20{fill:url(#未命名的渐变_15);}.cls-21{fill:url(#未命名的渐变_13-2);}.cls-22{fill:url(#未命名的渐变_15-2);}.cls-23{fill:url(#未命名的渐变_12);}.cls-24{fill:#fddcbd;}</style><linearGradient id="未命名的渐变_3" x1="-674.75" y1="-3483.96" x2="-674.75" y2="-3484.46" gradientTransform="matrix(390, 0, 0, -196, 263353, -682737.5)" gradientUnits="userSpaceOnUse"><stop offset="0" stop-color="#a9a9a9" stop-opacity="0.15"/><stop offset="1" stop-color="#a9a9a9" stop-opacity="0"/></linearGradient><radialGradient id="radial-gradient" cx="-307.35" cy="15721.33" r="38.96" gradientTransform="translate(1270.26 -2926.25) scale(3.5 0.2)" gradientUnits="userSpaceOnUse"><stop offset="0" stop-color="#808184"/><stop offset="0.07" stop-color="#9a9a9d"/><stop offset="0.17" stop-color="#b9b9bb"/><stop offset="0.28" stop-color="#d2d3d4"/><stop offset="0.4" stop-color="#e6e7e7"/><stop offset="0.53" stop-color="#f4f4f5"/><stop offset="0.7" stop-color="#fdfdfd"/><stop offset="0.99" stop-color="#fff"/></radialGradient><radialGradient id="radial-gradient-2" cx="-83.34" cy="18207.36" r="38.96" gradientTransform="translate(330.24 -3007.98) scale(1.64 0.17)" xlink:href="#radial-gradient"/><radialGradient id="未命名的渐变_2" cx="-486.89" cy="-3434.48" r="1.3" gradientTransform="matrix(0, 21, 22.62, 0, 77964.88, 10389.55)" gradientUnits="userSpaceOnUse"><stop offset="0" stop-color="#fff"/><stop offset="1" stop-color="#c2c2c2"/></radialGradient><radialGradient id="未命名的渐变_16" cx="-437.57" cy="-3416.78" r="0.94" gradientTransform="matrix(0, 16, 17.23, 0, 59140.96, 7026.25)" gradientUnits="userSpaceOnUse"><stop offset="0" stop-color="#fff"/><stop offset="1" stop-color="#d8d8d8"/></radialGradient><radialGradient id="未命名的渐变_16-2" cx="-431.45" cy="-3428.27" r="0.94" xlink:href="#未命名的渐变_16"/><linearGradient id="未命名的渐变_40" x1="196.2" y1="27.4" x2="196.2" y2="133.56" gradientUnits="userSpaceOnUse"><stop offset="0" stop-color="#dedede"/><stop offset="1" stop-color="#fdfdfd"/></linearGradient><linearGradient id="未命名的渐变_40-2" x1="235.13" y1="80.48" x2="157.28" y2="80.48" xlink:href="#未命名的渐变_40"/><linearGradient id="未命名的渐变_20" x1="180.83" y1="80.75" x2="211.57" y2="80.75" gradientUnits="userSpaceOnUse"><stop offset="0" stop-color="#acf"/><stop offset="1" stop-color="#487fff" stop-opacity="0.6"/></linearGradient><linearGradient id="未命名的渐变_40-3" x1="214.2" y1="65.8" x2="186" y2="94.01" gradientTransform="translate(-10.66 124.68) rotate(-33.76)" xlink:href="#未命名的渐变_40"/><linearGradient id="未命名的渐变_10" x1="110.8" y1="102.42" x2="124.23" y2="102.42" gradientTransform="matrix(-1, 0, 0, 1, 241.73, 0)" gradientUnits="userSpaceOnUse"><stop offset="0" stop-color="#fff7ed"/><stop offset="1" stop-color="#ffebd6"/></linearGradient><linearGradient id="未命名的渐变_10-2" x1="113.67" y1="90.06" x2="119.47" y2="90.06" xlink:href="#未命名的渐变_10"/><linearGradient id="未命名的渐变_10-3" x1="389.66" y1="88.59" x2="401.5" y2="88.59" gradientTransform="matrix(-1, 0.1, 0.1, 1, 510.57, -42.86)" xlink:href="#未命名的渐变_10"/><linearGradient id="未命名的渐变_13" x1="119.88" y1="150.8" x2="106.27" y2="150.8" gradientTransform="matrix(-1, 0, 0, 1, 241.73, 0)" gradientUnits="userSpaceOnUse"><stop offset="0" stop-color="#8caefb"/><stop offset="1" stop-color="#6894f9"/></linearGradient><linearGradient id="未命名的渐变_11" x1="-573.7" y1="-3648.67" x2="-573.7" y2="-3649.36" gradientTransform="matrix(16.86, 6.29, 6.64, -17.8, 34032.34, -61268.79)" gradientUnits="userSpaceOnUse"><stop offset="0" stop-color="#494983"/><stop offset="1" stop-color="#272557"/></linearGradient><linearGradient id="未命名的渐变_15" x1="323.23" y1="180.63" x2="333.16" y2="180.63" gradientTransform="translate(-192.36)" gradientUnits="userSpaceOnUse"><stop offset="0" stop-color="#1f1e4a"/><stop offset="1" stop-color="#424677"/></linearGradient><linearGradient id="未命名的渐变_13-2" x1="126.93" y1="151.66" x2="113.42" y2="151.66" xlink:href="#未命名的渐变_13"/><linearGradient id="未命名的渐变_15-2" x1="307.16" y1="181.78" x2="317.09" y2="181.78" xlink:href="#未命名的渐变_15"/><linearGradient id="未命名的渐变_12" x1="103.72" y1="108.32" x2="132.53" y2="108.32" gradientTransform="matrix(-1, 0, 0, 1, 241.73, 0)" gradientUnits="userSpaceOnUse"><stop offset="0" stop-color="#fda457"/><stop offset="1" stop-color="#f96252"/></linearGradient></defs><title>欠费</title><g class="cls-1"><g id="图层_1" data-name="图层 1"><ellipse id="背景" class="cls-2" cx="199" cy="215.86" rx="195" ry="98"/><ellipse class="cls-3" cx="195.81" cy="140.98" rx="136.19" ry="7.6"/><ellipse class="cls-4" cx="193.53" cy="141.89" rx="63.9" ry="6.74"/><circle class="cls-5" cx="286.57" cy="168.93" r="14.43"/><circle id="椭圆形" class="cls-6" cx="262.5" cy="27.36" r="8"/><circle id="椭圆形-2" data-name="椭圆形" class="cls-7" cx="64.5" cy="125.36" r="8"/><path class="cls-8" d="M195.65,27.4a107.55,107.55,0,0,0-92.24,52.14A107.66,107.66,0,0,0,289,81.41,107.59,107.59,0,0,0,195.65,27.4Z"/><circle class="cls-9" cx="196.2" cy="80.48" r="38.93"/><path class="cls-10" d="M209.08,83.16H198.7V76h10.38a2.49,2.49,0,0,0,0-5h-6.86l8.17-8.18a2.49,2.49,0,1,0-3.52-3.52L196.34,69.8,185.81,59.28a2.49,2.49,0,0,0-3.52,3.52L190.46,71h-7.13a2.49,2.49,0,1,0,0,5h10.38v7.2H183.33a2.49,2.49,0,1,0,0,5h10.38v12.33a2.5,2.5,0,0,0,5,0V88.14h10.38a2.49,2.49,0,0,0,0-5Z"/><rect class="cls-11" x="121.06" y="75.28" width="158.08" height="9.26" transform="translate(78.15 -97.73) rotate(33.76)"/><path class="cls-12" d="M117.84,113s-.1-11.42-.17-12.25c-.28-3.22-.41-6.08,1.16-7.39a12.48,12.48,0,0,1,3.32-2.27c.73-.29,4.22.45,6.33.82,1.71.3,1.89,2,1.71,3.6l.74,14.25c-1.2,3.07-11.35,5.17-13.09,3.24"/><path class="cls-13" d="M118.34,122.49l0,0h0v0h0l0,0,0,0h0l0,0,0,0,0,0,0,.09,0,.08,0,0v0l0,0v0l0,.07,0,.08,0,.07-.08.15,0,.08,0,.07h0l0,.08,0,.08v0l0,0,0,0v0l0,0v0l0,0v.22l-.05.24,0,.24,0,.25,0,.24,0,.24,0,.24,0,.12,0,.12,0,.12v.12l0,.12,0,.13v.24l0,.12v3.69l0,.38v.39l0,.39v.39l0,.38,0,.39,0,.77,0,.77,0,.78,0,.77,0,.38,0,.39v.39l0,.38v.39l0,.39V139l0,.39V147l0,.13v.13l0,.14,0,.13,0,.13,0,.13,0,.13,0,.13,0,.14,0,.13,0,.13,0,.13,0,.13,0,.13,0,.14,0,.13,0,.14,0,.14,0,.14,0,.14,0,.14,0,.14,0,.14,0,.14-.09.28-.08.28-.08.27-.09.28-.09.28-.08.28-.18.55-.08.28-.09.28-.08.25v0l-.08.28-.08.28-.08.28,0,.14,0,.14,0,.14,0,.14,0,.14,0,.14,0,.14,0,.15,0,.14,0,.14,0,.14,0,.15,0,.14,0,.15,0,.14,0,.14,0,.15,0,.15,0,.14,0,.15,0,.14,0,.15,0,.15,0,.15v.14l0,.15v3.73l0,.24V162l0,.24,0,.24,0,.23,0,.24,0,.24,0,.23,0,.24,0,.23,0,.24,0,.23,0,.23,0,.24,0,.23,0,.23,0,.24,0,.23,0,.23,0,.23,0,.23,0,.23,0,.23,0,.24.06.23,0,.23,0,.23.06.23,0,.23,0,.13,0,.1.06.23.06.23.06.23.06.23.06.23.07.23.06.23.06.23.07.23.07.23.06.23.07.23.14.46.14.46.07.25.07.22.14.46,0,.07,0,.08,0,.07,0,.08v.08l0,.09v.09l0,.09v5.89l0,.07,0,0,0,0v-2.39l0-.47v-3.24l0-.09v-.09l0-.09,0-.09,0-.08,0-.08,0-.08-.14-.47-.07-.21-.07-.25-.14-.46-.13-.46L117,171l-.07-.23-.06-.23-.07-.23-.06-.23-.06-.23-.07-.23-.06-.23-.06-.23,0-.23-.06-.23-.06-.23,0-.1,0-.12-.06-.23,0-.23-.06-.23,0-.23-.05-.23,0-.23,0-.23-.05-.23,0-.22,0-.23,0-.23,0-.23,0-.23,0-.23,0-.23,0-.24,0-.23,0-.23,0-.23,0-.23,0-.24,0-.23,0-.23,0-.24,0-.23,0-.23,0-.24v-4.14l0-.14v-.14l0-.15,0-.14,0-.14,0-.15,0-.14,0-.14,0-.14,0-.14,0-.14,0-.14,0-.15,0-.14,0-.14,0-.14,0-.13,0-.14,0-.14,0-.14,0-.14,0-.14,0-.14,0-.14,0-.14,0-.13.08-.28.08-.28.09-.27v0l.07-.25.09-.28.09-.27.18-.56.09-.27.08-.28.09-.28.09-.28.09-.28.08-.28,0-.14,0-.15,0-.14,0-.14,0-.14,0-.14,0-.15,0-.14,0-.14,0-.13,0-.14,0-.13,0-.14,0-.14,0-.13,0-.14,0-.13,0-.14,0-.13,0-.14,0-.14,0-.13v-.14l0-.13v-.14l0-.13v-4l0-.54v-2.79l0-.39v-.39l0-.38,0-.39v-.39l0-.39,0-.38,0-.39,0-.39,0-.77-.06-.77,0-.77-.05-.77,0-.39,0-.38,0-.39,0-.38,0-.39,0-.39,0-.32v-.06l0-.39,0-.38v-2.74l0-.12v-.24l0-.12V126l0-.12,0-.12,0-.24,0-.24,0-.24,0-.24,0-.24,0-.24v-.16l0,0V124l0,0v0l0,0v0l0-.08,0-.07h0l0-.07,0-.08.08-.15,0-.08,0-.08,0-.07v0l0,0v0l0-.08,0-.09,0,0,0,0,0,0h0v-.17h0v0h0Z"/><path class="cls-14" d="M128.66,124.64h0v0h0v0h0v0l0,0,0,0h0l0,.06-.06.12-.05.11,0,0,0,0v.15h0v.33l0,.14v3.49h0v1.86l0,.09v0l0,.13v1.48l0,0v0h0l0,0h0v0h0l0,0h0v0h0v0h-1.11l-.09,0-.09,0h-.18l-.09,0h-.09l-.18,0-.38.06-.19,0h-.09l-.1,0h-.09l-.1,0-.09,0h-.1l-.09,0-.09,0-.09,0-.09,0-.09,0h0l0,0h0l0,0,0,0,0,0h0l0,0,0,0,0,0,0,0,0,0,0,0,0,0v0l0,0,0,0,0,0,0,0,.05,0h0l0,0,0,0h.09l0,0h.13l0,0,.09,0h.09l.09,0,.09,0h.28l.09,0h.48l.38,0,.18,0h.47l.09,0h1.16l0,0h0l0,0h0l0,0,0,0,0,0,0,0,0,0,0,0,0,0,0,0,0,0,0,0,0,0,0,0,0,0,0-.05,0,0h0l0-.05v-.09l0-.05v-1.09l0-.07V129l0-.27v-3.39h0v-.06h0v0h0v-.13l0-.11.05-.12,0-.06h0v-.25h-.05l0,0h0l0,0Z"/><path class="cls-14" d="M126.17,134.36l0,0V135l0,.11v.21l0,.1,0,.11v.1l0,.1,0,.11,0,.1,0,.09h0l0,.21.05.2,0,.21,0,.2,0,.2,0,.1,0,.11,0,.1,0,.1,0,.1v.1l0,.26,0,.27,0,.26,0,.26,0,.26,0,.26,0,.26,0,.26.1.52.1.52.1.52.09.42,0,.09.1.52.1.52.1.52.11.51,0,.26,0,.26,0,.26.05.26,0,.26,0,.26,0,.09,0,.17,0,.26,0,.24,0,.24,0,.25,0,.24,0,.24,0,.24h0l0,.24,0,.24,0,.24,0,.24,0,.25,0,.24,0,.24v.25l0,.24,0,.25,0,.24v.24l0,.25v.73l0,.25v1.22l0,.49,0,.49,0,1v1l0,.49V157l0,.24v.25l0,.24V158l0,.24v.25l0,.24,0,.24,0,.25,0,.24,0,.25,0,.24,0,.24,0,.25,0,.24,0,.24,0,.25,0,.24,0,.24,0,.18,0,.17,0,.18,0,.18,0,.17,0,.18,0,.13v0l.05.18,0,.18,0,.18,0,.18.05.17,0,.18.05.18.05.18,0,.18.06.18.05.17.06.18,0,.18.06.17.05.18.06.17.06.18.11.34.12.34.11.34.12.33.05.17.06.16,0,.16.05.17.06.17.05.16,0,.17.05.18,0,.17.05.17.05.18,0,.17,0,.18.05.18v.06l0,.12.05.18,0,.18,0,.18.05.18,0,.18,0,.19,0,.18,0,.19,0,.18,0,.19,0,.18,0,.19,0,.19,0,.18,0,.19,0,.19,0,.19,0,.19,0,.19,0,.18,0,.19,0,.19,0,.19,0,.19,0,.18,0,.19,0,.19h0l0,.19,0,.18,0,.19,0,.18,0,.19,0,.18,0,.19,0,.18v.18l0,.18,0,.19V177l0,.17v1.57l.07.07.07-.07v-2.12l0-.18v-.37l0-.19v-.18l0-.19v-.19l0-.19,0-.18,0-.19h0l0-.19,0-.19,0-.19,0-.19,0-.19,0-.19,0-.19,0-.19,0-.19,0-.19,0-.19,0-.19,0-.19,0-.18,0-.19,0-.19,0-.19,0-.19,0-.18,0-.19,0-.19,0-.18,0-.19,0-.18,0-.18,0-.19-.05-.18,0-.12v-.06l-.05-.18,0-.18-.05-.18,0-.17,0-.18,0-.17-.05-.18-.05-.17,0-.17-.05-.17-.06-.17,0-.16-.05-.17-.06-.16-.11-.34-.11-.33-.11-.34-.11-.35-.06-.17-.06-.18,0-.17-.05-.18-.06-.17,0-.18-.05-.17-.06-.18-.05-.18,0-.18,0-.17-.05-.18-.05-.18,0-.17,0-.18-.05-.18,0-.17v-.05l0-.13,0-.17,0-.18,0-.17,0-.17,0-.17,0-.17,0-.24,0-.24,0-.24,0-.24,0-.25,0-.24,0-.24,0-.24,0-.24,0-.24v-.25l0-.24,0-.24v-.25l0-.24v-.49l0-.24v-1.47l0-.4v-.58l0-1v-.49l0-.49,0-.49v-1.73l0-.24v-.25l0-.24,0-.25v-.25l0-.15v-.09l0-.25,0-.24,0-.25,0-.24,0-.25,0-.25,0-.24h0l0-.25,0-.24,0-.25,0-.24,0-.25-.05-.24,0-.26,0-.17v-.09l0-.26-.06-.26-.05-.26,0-.26-.05-.26-.06-.26-.11-.52-.11-.51-.11-.52-.12-.52,0-.09-.09-.42-.11-.52-.11-.51-.12-.52,0-.26,0-.26-.06-.25,0-.26,0-.26,0-.26-.05-.26,0-.26,0-.1,0-.11,0-.1,0-.11,0-.1,0-.1,0-.21-.06-.2,0-.2-.05-.2,0-.21h0l0-.09,0-.1,0-.1,0-.1,0-.1,0-.1,0-.1,0-.1,0-.11,0-.1v-.1l0-.1v-.36h0l0,0,0,0Z"/><path class="cls-14" d="M128.64,133.44h-1.11l-.28,0H127l-.25,0h0l-.14,0h-.16l-.1,0-.07,0-.06,0,0,0,0,0,.06,0h4.2l.08,0h.07l.11-.07-.07-.1-.07,0-.08,0-.07,0-.07,0-.07,0h-.07l-.07,0h-.08l-.07,0h-1.35Z"/><path class="cls-15" d="M132.38,113.44h-.29l0,0h0l0,0h0l0,0h0l0,0v0l0,0v0h0v.21l0,.14V115l0,.09v.19h0v0h0l0,0v0h-.61l0,0h0l0,0h0v0l0,0h0l0,0v.66h0l0,0v0l0,0h0l0,0h0v0h.08l0,0,0,.05,0,0,0,0,0,0,0,0,0,0,0,0,0,0,0,0,0,0,.06,0h.62v0l0,0,0,0,0,0,0,0,0,0,0,0,0,0h0l0-.07,0,0,0,0,0-.06,0,0,0-.06,0-.06,0-.07,0,0v0l0,0,0,0v0l0,0v-.08l0,0v-.78l0-.09v-.2h0v0h0v-.22l0-.13v-.39l0,0v0h0l0,0v0h0l0,0h0l0,0h-.06l0,0h-.3Z"/><path class="cls-16" d="M125.47,94.53a4,4,0,0,1-3.22-3.36L123.42,87c.2-1.21,1.62-1.81,3-1.36S128.2,87.75,128,89l-.41,4.49C127.39,94.67,126.24,94.67,125.47,94.53Z"/><path class="cls-17" d="M120.21,82.76c-.18-2,.19-3.92,1.65-4.85,3.16-2,7.46-.1,8.74,1.67.68,1,.8,3.2.07,5.48a10.51,10.51,0,0,1-2.58,4.24c-2.06,1.7-4.76,0-5.85-1a6.78,6.78,0,0,1-1.38-2.49,1.48,1.48,0,0,1-1.23-1.06A1.64,1.64,0,0,1,120.21,82.76Z"/><polygon class="cls-18" points="134.3 124.41 135.45 151.95 134.88 178.91 130.86 178.91 121.84 122.69 134.3 124.41"/><path id="头发" class="cls-19" d="M119.06,83.35q.31,2.64,2.13,3a18.9,18.9,0,0,1-.84-3.12,1.11,1.11,0,0,1,.54-.82,1.64,1.64,0,0,1,1,0c.84-1.83,1.58-2.57,2.45-3A5.83,5.83,0,0,1,128,78.9a9.51,9.51,0,0,1,3.48,2.35A3.34,3.34,0,0,0,132,78.7a3.65,3.65,0,0,0-1.91-2.84,9.89,9.89,0,0,0-4.71-1.31,5.47,5.47,0,0,0-4.75,2A11.09,11.09,0,0,0,119.06,83.35Z"/><path class="cls-20" d="M130.87,178.91v3.44h9.39a.54.54,0,0,0,.3-1,14.88,14.88,0,0,0-5.62-2.46Z"/><polyline class="cls-21" points="114.8 122.69 128.31 125.68 123.98 150.8 118.81 180.63 114.8 180.63"/><path class="cls-22" d="M114.8,180.06v3.44h9.39a.54.54,0,0,0,.29-1,14.9,14.9,0,0,0-5.61-2.45Z"/><path class="cls-23" d="M109.2,103.38c-.07,0,4.56-9.58,8.87-11l.2-.13A19.21,19.21,0,0,1,122.08,91s2.14,4.8,5.34,3.61c1.15-.57.47-2.78.47-2.78l.1.06a7.56,7.56,0,0,1,5.74,2.72A24.26,24.26,0,0,1,138,102a43.41,43.41,0,0,1-4.6,5.78c.21,4.1.31,8.49.45,11.11.11,2,.24,3.92.4,5.73-6.43,2.55-12.25-.28-18.8-1.06a.89.89,0,0,1-.49-.16c-.25-.22-.21-.66-.15-1a101.15,101.15,0,0,0,1.37-14.89c-.64,1.24-1.05,2.08-1.05,2.08S110.53,105.7,109.2,103.38Z"/><path class="cls-24" d="M130.77,104.89h0a5.41,5.41,0,0,1,.87.22l.27.18c.23.13.1.18.09.2-.3.41-.86.18-1.83.41a4.54,4.54,0,0,0-.63.2l-.48.37c-.1.07-3.85.39-3-.06a9.77,9.77,0,0,0,3.14-2.7,13.89,13.89,0,0,0,1-1.72,17,17,0,0,1,.91-1.88c.12,0,.1.2.08.33a7.15,7.15,0,0,1-.35,1.44c-.06.17-.12.33-.19.5l-.08.26.15-.27c.1-.17.17-.35.27-.52.32-.5.94-1.94,1.11-2.15.05,0,.14-.2.23-.17s-.2,1.07-.32,1.35c-.25.59-.49,1.23-.55,1.39a.67.67,0,0,0-.07.18s.11-.14.12-.15,1.8-2.81,1.85-2.76,0,.41-.1.64a12.08,12.08,0,0,1-.95,1.75c-.12.2-.24.4-.35.6,0,0-.14.2-.13.23s.1-.13.11-.15.19-.27.29-.39c.37-.44.71-1,1-1.42.13-.18.44-.69.52-.69.25,0-.93,1.93-1.19,2.3C132.06,103.24,131.47,104.07,130.77,104.89Zm1.14.58"/><path class="cls-24" d="M115.22,109.39c-.11,1-.22,1.86-.29,2.51a.68.68,0,0,0,1,.67,7.23,7.23,0,0,1,1-.52,29,29,0,0,0,6.43-3.65c3.71-2.83,6.46-4.72,6.78-3.36-3,4.15-18.13,18.16-19.21,14.17a23.06,23.06,0,0,1-1.19-15C115,109,112,106,115.22,109.39Z"/><path class="cls-24" d="M118.87,103.89h0a4.64,4.64,0,0,0-.8.22c-.1.06-.23.17-.25.18-.22.13-.1.18-.08.2.27.41.79.18,1.69.41a4,4,0,0,1,.58.2l.45.37c.09.07,3.55.39,2.73-.06a9.33,9.33,0,0,1-2.9-2.7,14.5,14.5,0,0,1-.93-1.72,16.15,16.15,0,0,0-.84-1.88c-.11,0-.09.2-.07.33a7.69,7.69,0,0,0,.32,1.44l.17.5.08.26-.14-.27c-.09-.17-.15-.35-.25-.52-.29-.5-.86-1.94-1-2.15,0,0-.13-.2-.22-.17s.19,1.07.3,1.35c.23.59.45,1.23.51,1.39a.64.64,0,0,1,.06.18s-.1-.14-.11-.15-1.66-2.81-1.71-2.76,0,.41.1.64a10.54,10.54,0,0,0,.87,1.75l.33.6s.13.2.11.23-.08-.13-.1-.15-.17-.27-.26-.39c-.35-.44-.66-1-1-1.42-.12-.18-.41-.69-.48-.69-.23,0,.86,1.93,1.1,2.3C117.68,102.24,118.22,103.07,118.87,103.89Zm-1.05.58"/><path class="cls-24" d="M133.2,107.84c.13,1.25.24,2.3.33,3.06a.65.65,0,0,1-1,.67,5.66,5.66,0,0,0-.89-.52,26,26,0,0,1-5.94-3.65c-3.43-2.83-6-4.72-6.28-3.36,2.76,4.15,16.77,18.16,17.77,14.17a45.25,45.25,0,0,0,.55-15.85C134,107,136,104,133.2,107.84Z"/></g></g></svg>