<svg xmlns="http://www.w3.org/2000/svg" xmlns:xlink="http://www.w3.org/1999/xlink" viewBox="0 0 400 240"><defs><style>.cls-1,.cls-5,.cls-6,.cls-7{isolation:isolate;}.cls-2{fill:url(#未命名的渐变_3);}.cls-3{opacity:0.18;fill:url(#radial-gradient);}.cls-3,.cls-4{mix-blend-mode:multiply;}.cls-4{opacity:0.36;fill:url(#radial-gradient-2);}.cls-5{opacity:0.84;fill:url(#未命名的渐变_2);}.cls-6,.cls-7{opacity:0.66;}.cls-6{fill:url(#未命名的渐变_16);}.cls-7{fill:url(#未命名的渐变_16-2);}.cls-8{fill:url(#未命名的渐变_75);}.cls-9{fill:url(#未命名的渐变_40);}.cls-10{fill:url(#未命名的渐变_40-2);}.cls-11{fill:#fff;}.cls-12{fill:url(#未命名的渐变_20);}.cls-13{fill:url(#未命名的渐变_20-2);}.cls-14{fill:url(#未命名的渐变_20-3);}.cls-15{fill:url(#未命名的渐变_20-4);}.cls-16{fill:#fddcbd;}.cls-16,.cls-17,.cls-18,.cls-19,.cls-20,.cls-21,.cls-22,.cls-23,.cls-24,.cls-25,.cls-26,.cls-27,.cls-28,.cls-29{fill-rule:evenodd;}.cls-17{fill:url(#未命名的渐变_12);}.cls-18{fill:url(#未命名的渐变_15);}.cls-19{fill:url(#未命名的渐变_13);}.cls-20{fill:url(#未命名的渐变_15-2);}.cls-21{fill:url(#未命名的渐变_13-2);}.cls-22{fill:url(#未命名的渐变_12-2);}.cls-23{fill:url(#未命名的渐变_11);}.cls-24{fill:url(#未命名的渐变_10);}.cls-25{fill:url(#linear-gradient);}.cls-26{fill:url(#linear-gradient-2);}.cls-27{fill:url(#linear-gradient-3);}.cls-28{fill:url(#linear-gradient-4);}.cls-29{fill:url(#linear-gradient-5);}</style><linearGradient id="未命名的渐变_3" x1="-1197.41" y1="-3483.96" x2="-1197.41" y2="-3484.46" gradientTransform="matrix(390, 0, 0, -196, 467189, -682737.5)" gradientUnits="userSpaceOnUse"><stop offset="0" stop-color="#a9a9a9" stop-opacity="0.15"/><stop offset="1" stop-color="#a9a9a9" stop-opacity="0"/></linearGradient><radialGradient id="radial-gradient" cx="-681.17" cy="15808.46" r="38.96" gradientTransform="translate(2578.06 -2926.25) scale(3.5 0.2)" gradientUnits="userSpaceOnUse"><stop offset="0" stop-color="#808184"/><stop offset="0.07" stop-color="#9a9a9d"/><stop offset="0.17" stop-color="#b9b9bb"/><stop offset="0.28" stop-color="#d2d3d4"/><stop offset="0.4" stop-color="#e6e7e7"/><stop offset="0.53" stop-color="#f4f4f5"/><stop offset="0.7" stop-color="#fdfdfd"/><stop offset="0.99" stop-color="#fff"/></radialGradient><radialGradient id="radial-gradient-2" cx="-287.28" cy="18305.62" r="38.96" gradientTransform="translate(665.76 -3007.98) scale(1.64 0.17)" xlink:href="#radial-gradient"/><radialGradient id="未命名的渐变_2" cx="-1014.75" cy="-3410.08" r="1.3" gradientTransform="matrix(0, 21, 22.62, 0, 77440.88, 21393.55)" gradientUnits="userSpaceOnUse"><stop offset="0" stop-color="#fff"/><stop offset="1" stop-color="#c2c2c2"/></radialGradient><radialGradient id="未命名的渐变_16" cx="-951.38" cy="-3386.6" r="0.94" gradientTransform="matrix(0, 16, 17.23, 0, 58616.96, 15410.25)" gradientUnits="userSpaceOnUse"><stop offset="0" stop-color="#fff"/><stop offset="1" stop-color="#d8d8d8"/></radialGradient><radialGradient id="未命名的渐变_16-2" cx="-955.38" cy="-3397.8" r="0.94" xlink:href="#未命名的渐变_16"/><linearGradient id="未命名的渐变_75" x1="293.2" y1="110.57" x2="108.8" y2="110.57" gradientUnits="userSpaceOnUse"><stop offset="0" stop-color="#eee"/><stop offset="0.03" stop-color="#ddd"/><stop offset="1" stop-color="#d8d8d8"/></linearGradient><linearGradient id="未命名的渐变_40" x1="201" y1="35.03" x2="201" y2="147.12" gradientUnits="userSpaceOnUse"><stop offset="0" stop-color="#dedede"/><stop offset="1" stop-color="#fdfdfd"/></linearGradient><linearGradient id="未命名的渐变_40-2" x1="293.2" y1="140.22" x2="108.8" y2="140.22" xlink:href="#未命名的渐变_40"/><linearGradient id="未命名的渐变_20" x1="129.49" y1="56.6" x2="129.49" y2="34.29" gradientUnits="userSpaceOnUse"><stop offset="0" stop-color="#acf"/><stop offset="1" stop-color="#487fff" stop-opacity="0.6"/></linearGradient><linearGradient id="未命名的渐变_20-2" x1="146.94" y1="47.45" x2="146.94" y2="32" xlink:href="#未命名的渐变_20"/><linearGradient id="未命名的渐变_20-3" x1="268.73" y1="56.53" x2="268.73" y2="45.66" xlink:href="#未命名的渐变_20"/><linearGradient id="未命名的渐变_20-4" x1="278.74" y1="59.39" x2="278.74" y2="50.8" xlink:href="#未命名的渐变_20"/><linearGradient id="未命名的渐变_12" x1="-1968.63" y1="-2633.67" x2="-1968.53" y2="-2633.67" gradientTransform="matrix(13.23, 120.09, 120.09, -13.23, 342455.21, 201676.37)" gradientUnits="userSpaceOnUse"><stop offset="0" stop-color="#fda457"/><stop offset="1" stop-color="#f96252"/></linearGradient><linearGradient id="未命名的渐变_15" x1="-1869.44" y1="-2652.47" x2="-1869.29" y2="-2652.47" gradientTransform="matrix(2.06, 24.51, -190.06, 0, -500158.55, 46001.28)" gradientUnits="userSpaceOnUse"><stop offset="0" stop-color="#1f1e4a"/><stop offset="1" stop-color="#424677"/></linearGradient><linearGradient id="未命名的渐变_13" x1="-1992.71" y1="-2640.27" x2="-1992.55" y2="-2640.27" gradientTransform="matrix(0, 432.74, 432.74, 0, 1142674.32, 862430.14)" gradientUnits="userSpaceOnUse"><stop offset="0" stop-color="#8caefb"/><stop offset="1" stop-color="#6894f9"/></linearGradient><linearGradient id="未命名的渐变_15-2" x1="-1869.44" y1="-2654.39" x2="-1869.29" y2="-2654.39" gradientTransform="translate(-504383.9 46001.28) rotate(90) scale(24.51 190.06)" xlink:href="#未命名的渐变_15"/><linearGradient id="未命名的渐变_13-2" x1="-1990.11" y1="-2638.69" x2="-1989.95" y2="-2638.69" gradientTransform="matrix(0, 320.92, 320.92, 0, 846939.21, 638802.1)" xlink:href="#未命名的渐变_13"/><linearGradient id="未命名的渐变_12-2" x1="106.17" y1="113.07" x2="136.07" y2="113.07" gradientTransform="matrix(1, 0, 0, 1, 0, 0)" xlink:href="#未命名的渐变_12"/><linearGradient id="未命名的渐变_11" x1="-1962.02" y1="-2669.78" x2="-1961.87" y2="-2669.78" gradientTransform="matrix(-5.41, 94.48, -80.78, -4.63, -226155.41, 173105.59)" gradientUnits="userSpaceOnUse"><stop offset="0" stop-color="#494983"/><stop offset="1" stop-color="#272557"/></linearGradient><linearGradient id="未命名的渐变_10" x1="-1962.92" y1="-2625.84" x2="-1962.77" y2="-2625.84" gradientTransform="matrix(0, 98.82, 98.82, 0, 259604.74, 194053.12)" gradientUnits="userSpaceOnUse"><stop offset="0" stop-color="#fff7ed"/><stop offset="1" stop-color="#ffebd6"/></linearGradient><linearGradient id="linear-gradient" x1="-1925.79" y1="-2655.71" x2="-1925.64" y2="-2655.71" gradientTransform="translate(-416397.71 94837.2) rotate(90) scale(49.19 156.84)" gradientUnits="userSpaceOnUse"><stop offset="0" stop-color="#427eef"/><stop offset="1" stop-color="#1b43b1"/></linearGradient><linearGradient id="linear-gradient-2" x1="-2022.11" y1="-2596.84" x2="-2021.96" y2="-2596.84" gradientTransform="matrix(-78, 0, 0, 78, -157575.37, 202647.73)" gradientUnits="userSpaceOnUse"><stop offset="0" stop-color="#d1f4fd"/><stop offset="0.46" stop-color="#bdebfb"/><stop offset="1" stop-color="#89d3f6"/></linearGradient><linearGradient id="linear-gradient-3" x1="-1899.19" y1="-2663.68" x2="-1899.04" y2="-2663.68" gradientTransform="translate(-237312.74 69719.51) rotate(90) scale(36.66 89.14)" xlink:href="#linear-gradient"/><linearGradient id="linear-gradient-4" x1="-1954.25" y1="-2631.22" x2="-1954.09" y2="-2631.22" gradientTransform="matrix(0, 80.23, 131.39, 0, 345840.14, 156885.15)" xlink:href="#linear-gradient-2"/><linearGradient id="linear-gradient-5" x1="-1927.39" y1="-2657.41" x2="-1927.23" y2="-2657.41" gradientTransform="translate(-365680.27 97978.42) rotate(90) scale(50.79 137.66)" xlink:href="#linear-gradient"/></defs><title>敬请期待</title><g class="cls-1"><g id="图层_1" data-name="图层 1"><ellipse id="背景" class="cls-2" cx="200" cy="216.86" rx="195" ry="98"/><ellipse class="cls-3" cx="196.81" cy="157.98" rx="136.19" ry="7.6"/><ellipse class="cls-4" cx="194.53" cy="158.89" rx="63.9" ry="6.74"/><circle class="cls-5" cx="314.57" cy="87.93" r="14.43"/><circle id="椭圆形" class="cls-6" cx="258.5" cy="190.36" r="8"/><circle id="椭圆形-2" data-name="椭圆形" class="cls-7" cx="65.5" cy="126.36" r="8"/><polygon class="cls-8" points="108.8 122.76 203.84 98.39 293.2 122.76 108.8 122.76"/><circle class="cls-9" cx="201" cy="91.08" r="56.05"/><rect class="cls-10" x="108.8" y="122.76" width="184.39" height="34.93"/><path class="cls-11" d="M231.92,84.65c0,14-13,24.16-30.89,34.86-19.64-10.7-30.9-21-30.95-34.86C170,67.58,189.58,61.52,201,71.79,211.51,61.52,231.92,67.58,231.92,84.65Z"/><polygon class="cls-12" points="122.63 34.29 115.19 44.01 143.79 56.6 122.63 34.29"/><polygon class="cls-13" points="143.79 32 148.37 47.45 150.09 32 143.79 32"/><polygon class="cls-14" points="266.73 45.66 266.73 56.52 270.73 47.37 266.73 45.66"/><polygon class="cls-15" points="282.74 50.8 270.73 59.38 286.75 56.52 282.74 50.8"/><g id="Person-1"><g id="Arm-Right2"><path class="cls-16" d="M170.18,89a30.71,30.71,0,0,1,1.95-4.53.59.59,0,0,1,.77-.16l.34.2a.59.59,0,0,1,.28.65l-.31,1.33,3-.82a.53.53,0,0,1,.44.08.54.54,0,0,1,.23.38c.09.84.26,2.36.37,3.27a1.21,1.21,0,0,1-.55,1.14c-1.61,1-4.27.77-6,1.36l-.58-2.9Z"/><path class="cls-16" d="M151.37,93.61,170.18,89l.58,2.9-17.58,6.44-.15,0-16.31,4.83-.2.06a4,4,0,1,1-2.05-7.64l.21,0,16.53-2,.16,0Z"/><path class="cls-17" d="M144.07,101.07l-7.35,2.18-.2.06a4,4,0,1,1-2.05-7.64l.21,0,8.84-1.06Z"/></g><g id="Pants1"><g id="Leg-Right"><path class="cls-18" d="M136.23,180.32l3.66,2.67a.6.6,0,0,1,.23.68.62.62,0,0,1-.59.43h-9.19a.93.93,0,0,1-.92-.85c-.1-1.11-.25-2.93-.25-2.93Z"/><path class="cls-19" d="M124.57,128.88H135.5l.62,51.44h-7l-4.6-51.44Z"/></g><g id="Leg-Left"><path class="cls-20" d="M118.92,180.32l3.46,2.68a.62.62,0,0,1-.38,1.1h-9.21a.93.93,0,0,1-.93-.92v-2.86Z"/><path class="cls-21" d="M113.86,128.88H135.5L127,129c0,3-8.19,51.32-8.19,51.32h-7Z"/></g></g><path class="cls-22" d="M132.76,95.53H118a7.57,7.57,0,0,0-6.39,3.52l-5.4,8.57a.43.43,0,0,0,.15.6L113,112l.86-3.12V129l1.57.44a21.61,21.61,0,0,0,9.33,1l4.08-.37c.77-.07,1.54-.18,2.31-.32l4.35-.79V95.53Z"/><path class="cls-23" d="M132,84.72l2.88-2.55a.83.83,0,0,0,.29-.69.85.85,0,0,0-.34-.66l-2.28-1.72,1.34-2a.69.69,0,0,0-.58-1.07h-9a3.11,3.11,0,0,0-3.11,3.1h0c-3.45,1.55-3.1,6.6-1.24,7.9l6.12,3.12,5.89-5.4Z"/><path class="cls-24" d="M122.29,85.61l.87-3.41H132v7.51a3.7,3.7,0,0,1-3.7,3.69h-.91v2.48a1.54,1.54,0,0,1-1.54,1.54h-3.19a1.88,1.88,0,0,1-1.89-1.89h0V89.05a2,2,0,1,1,1.5-3.44Z"/><g id="Megaphone"><path class="cls-25" d="M125.69,98.51l.77,6.49a1.23,1.23,0,0,0,1.23,1.09h1.65a1.06,1.06,0,0,0,.8-.37,1.08,1.08,0,0,0,.25-.85l-.95-6.36h-3.75"/><path class="cls-26" d="M139.57,89c1.71,0,3.09,2.82,3.09,6.29s-1.38,6.29-3.09,6.29-3.08-2.82-3.08-6.29S137.87,89,139.57,89Z"/><path class="cls-27" d="M137,92.42c.77,0,1.39,1.27,1.39,2.83s-.62,2.82-1.39,2.82-1.38-1.26-1.38-2.82S136.26,92.42,137,92.42Z"/><path class="cls-28" d="M127,91.34l12-2.27c-1.43.55-2.51,3.11-2.51,6.18s1.08,5.63,2.51,6.18l-12-2.27-2.14-3.91Z"/><path class="cls-29" d="M127,91.34a11.58,11.58,0,0,0,0,7.82l-2.6-.49c-.93,0-1.68-1.53-1.68-3.42s.75-3.42,1.68-3.42Z"/></g><path class="cls-16" d="M130,102.63c-.1-.68-.28-1.83-.37-2.39a.46.46,0,0,0-.38-.39l-3.79-.54-1,4.37S124,105,120,108c-2,1.48-2.84,3.82-4.9,5.18a6.34,6.34,0,0,0-.86.69c-.43.38-1.24-1.87-1-2.23C109,110,111,111,107.43,108.82a19.77,19.77,0,0,0,3.09,12.51c1.64,3.37,11.48-9.33,15.38-15.85.08-.14,2.79-1.35,3.73-2A.88.88,0,0,0,130,102.63Z"/></g></g></g></svg>