<svg xmlns="http://www.w3.org/2000/svg" xmlns:xlink="http://www.w3.org/1999/xlink" viewBox="0 0 400 240"><defs><style>.cls-1,.cls-5,.cls-6{isolation:isolate;}.cls-2{fill:url(#未命名的渐变_37);}.cls-3{fill:url(#未命名的渐变_32);}.cls-4{opacity:0.36;mix-blend-mode:multiply;fill:url(#radial-gradient);}.cls-5{opacity:0.84;fill:url(#未命名的渐变_36);}.cls-6{opacity:0.66;fill:url(#未命名的渐变_35);}.cls-7{fill:url(#未命名的渐变_34);}.cls-8{fill:url(#未命名的渐变_18);}.cls-9{fill:url(#未命名的渐变_32-2);}.cls-10{fill:#fff;}.cls-11{fill:url(#未命名的渐变_31);}.cls-12{fill:url(#未命名的渐变_31-2);}.cls-13{fill:url(#未命名的渐变_30);}.cls-14{fill:url(#未命名的渐变_26);}.cls-15{fill-rule:evenodd;fill:url(#未命名的渐变_22);}.cls-16{fill:#fbdbbe;}.cls-17{fill:url(#未命名的渐变_19);}.cls-18{fill:none;stroke:#fff;stroke-miterlimit:10;}.cls-19{fill:url(#未命名的渐变_48);}.cls-20{fill:url(#未命名的渐变_18-2);}</style><linearGradient id="未命名的渐变_37" x1="861.66" y1="-2991.52" x2="861.66" y2="-2992.02" gradientTransform="matrix(390, 0, 0, -196, -335845.8, -586227.47)" gradientUnits="userSpaceOnUse"><stop offset="0" stop-color="#a8a8a8" stop-opacity="0.15"/><stop offset="1" stop-color="#a8a8a8" stop-opacity="0"/></linearGradient><linearGradient id="未命名的渐变_32" x1="108.61" y1="106.35" x2="298.51" y2="106.35" gradientUnits="userSpaceOnUse"><stop offset="0" stop-color="#ededed"/><stop offset="0.03" stop-color="#dcdcdc"/><stop offset="1" stop-color="#d7d7d7"/></linearGradient><radialGradient id="radial-gradient" cx="522.21" cy="16016.09" r="98.54" gradientTransform="translate(-839.13 -2602.83) scale(2 0.17)" gradientUnits="userSpaceOnUse"><stop offset="0" stop-color="#808083"/><stop offset="0.07" stop-color="#9a9a9c"/><stop offset="0.17" stop-color="#b9b9ba"/><stop offset="0.28" stop-color="#d2d2d4"/><stop offset="0.4" stop-color="#e6e6e7"/><stop offset="0.53" stop-color="#f4f4f5"/><stop offset="0.7" stop-color="#fdfdfd"/><stop offset="0.99" stop-color="#fff"/></radialGradient><radialGradient id="未命名的渐变_36" cx="1030.02" cy="-3021.58" r="1.3" gradientTransform="matrix(0, 21, 22.62, 0, 68425.11, -21468.04)" gradientUnits="userSpaceOnUse"><stop offset="0" stop-color="#fff"/><stop offset="1" stop-color="#c1c1c1"/></radialGradient><radialGradient id="未命名的渐变_35" cx="1075.82" cy="-3011.86" r="0.94" gradientTransform="matrix(0, 16, 17.23, 0, 52239.31, -17129.56)" gradientUnits="userSpaceOnUse"><stop offset="0" stop-color="#fff"/><stop offset="1" stop-color="#d7d7d7"/></radialGradient><linearGradient id="未命名的渐变_34" x1="114.19" y1="106.35" x2="300.78" y2="106.35" gradientUnits="userSpaceOnUse"><stop offset="0" stop-color="#f2f2f2"/><stop offset="1" stop-color="#f3f3f3"/></linearGradient><linearGradient id="未命名的渐变_18" x1="200" y1="85.58" x2="286.28" y2="85.58" gradientUnits="userSpaceOnUse"><stop offset="0" stop-color="#d7d7d7"/><stop offset="1" stop-color="#ededed"/></linearGradient><linearGradient id="未命名的渐变_32-2" x1="184.99" y1="56.58" x2="229.99" y2="56.58" xlink:href="#未命名的渐变_32"/><linearGradient id="未命名的渐变_31" x1="298" y1="188.71" x2="288.59" y2="188.71" gradientUnits="userSpaceOnUse"><stop offset="0" stop-color="#1f1f49"/><stop offset="1" stop-color="#424776"/></linearGradient><linearGradient id="未命名的渐变_31-2" x1="303" y1="190.71" x2="293.59" y2="190.71" xlink:href="#未命名的渐变_31"/><linearGradient id="未命名的渐变_30" x1="306" y1="166.5" x2="287" y2="166.5" gradientUnits="userSpaceOnUse"><stop offset="0" stop-color="#8caff7"/><stop offset="1" stop-color="#6a95f5"/></linearGradient><linearGradient id="未命名的渐变_26" x1="2762.45" y1="103.71" x2="2774.62" y2="103.71" gradientTransform="matrix(-1, 0, 0, 1, 3062.8, 0)" gradientUnits="userSpaceOnUse"><stop offset="0" stop-color="#fff6ec"/><stop offset="1" stop-color="#fdead6"/></linearGradient><linearGradient id="未命名的渐变_22" x1="963.82" y1="-3150.31" x2="963.82" y2="-3151.06" gradientTransform="translate(17643.86 -59763.03) rotate(180) scale(18 19)" gradientUnits="userSpaceOnUse"><stop offset="0" stop-color="#494b80"/><stop offset="1" stop-color="#272756"/></linearGradient><linearGradient id="未命名的渐变_19" x1="2747.71" y1="129.44" x2="2778.99" y2="129.44" gradientTransform="matrix(-1, 0, 0, 1, 3062.8, 0)" gradientUnits="userSpaceOnUse"><stop offset="0" stop-color="#faa35e"/><stop offset="1" stop-color="#f66357"/></linearGradient><linearGradient id="未命名的渐变_48" x1="207.49" y1="57" x2="207.49" y2="26" gradientUnits="userSpaceOnUse"><stop offset="0" stop-color="#b2b2b2" stop-opacity="0.8"/><stop offset="0.02" stop-color="#b7b7b7" stop-opacity="0.82"/><stop offset="0.09" stop-color="#c8c8c8" stop-opacity="0.87"/><stop offset="0.17" stop-color="#d6d6d6" stop-opacity="0.92"/><stop offset="0.26" stop-color="#e0e0e0" stop-opacity="0.96"/><stop offset="0.38" stop-color="#e8e8e8" stop-opacity="0.98"/><stop offset="0.55" stop-color="#ececec"/><stop offset="1" stop-color="#ededed"/></linearGradient><linearGradient id="未命名的渐变_18-2" x1="130.78" y1="113.71" x2="190" y2="113.71" xlink:href="#未命名的渐变_18"/></defs><title>实名认证</title><g class="cls-1"><g id="图层_1" data-name="图层 1"><ellipse id="背景" class="cls-2" cx="200" cy="209.36" rx="195" ry="98"/><rect class="cls-3" x="108.61" y="46.54" width="189.9" height="119.63" rx="8"/><ellipse class="cls-4" cx="204" cy="167.95" rx="196.85" ry="17.05"/><circle class="cls-5" cx="85.57" cy="166.43" r="14.43"/><circle id="椭圆形" class="cls-6" cx="338.5" cy="85.86" r="8"/><rect class="cls-7" x="114.19" y="46.54" width="186.59" height="119.63" rx="8"/><rect class="cls-8" x="200" y="81.26" width="86.28" height="8.64" rx="2.89"/><rect class="cls-9" x="184.99" y="53.69" width="45" height="5.78" rx="2.89"/><rect class="cls-10" x="200.9" y="109.74" width="86.16" height="5" rx="2.5"/><rect class="cls-10" x="201.19" y="124" width="86.16" height="5" rx="2.5"/><rect class="cls-10" x="201.19" y="140" width="86.16" height="5" rx="2.5"/><path class="cls-11" d="M294,185s-3,5-5,6,4,2,5,1,4-2,4-3a22.69,22.69,0,0,0-1-4Z"/><path class="cls-12" d="M299,187s-3,5-5,6,4,2,5,1,4-2,4-3a22.69,22.69,0,0,0-1-4Z"/><path class="cls-13" d="M288,145l-1,22a10,10,0,0,0,1,4c1,2,6,14,6,14s2,1,3,0-4-15-4-15,2-19,3-19,2,22,2,22l1,14a10.07,10.07,0,0,0,3,1c1,0,1-12,1-12s2.84-26.25,3-28S288,145,288,145Z"/><path class="cls-14" d="M300.35,113s-1.75-3.53-1.77-4.86c0-1,1.12-2.94,1.32-4.87a12.32,12.32,0,0,0-.44-4.42l-7.52-4.43-1.77,2.22s-1.17.36-1.76,2.65a12.81,12.81,0,0,0,0,4.86c.28,1.11,1.21,3.44,2.21,4s3.5-.63,4,0c.28.36,0,4.86,0,4.86Z"/><path id="头发" class="cls-15" d="M300.43,104.91c-.9,1.73-2,2.47-3.33,2.24a19.66,19.66,0,0,0,2-2.89,1.19,1.19,0,0,0-.23-1.05,1.8,1.8,0,0,0-1-.4c-.16-2.21-.64-3.25-1.39-4A6.38,6.38,0,0,0,293,96.93,10.61,10.61,0,0,0,288.51,98a3.76,3.76,0,0,1,.43-2.83A4.07,4.07,0,0,1,292,93a10.85,10.85,0,0,1,5.34.46,6,6,0,0,1,4.11,3.86A12.14,12.14,0,0,1,300.43,104.91Z"/><path class="cls-16" d="M285.75,122.29s-.88,4.86-1.77,4.86-6.43-6.43-7.07-8.84c-.29-1.09.79-1.61.09-2.31-.44-.44-1.16,2-2,2s-6-.63-6,0c0,1,3.39,1.18,4,2,2.63,3.56,7.89,12.46,11,12.46,2.21,0,5.75-7.52,5.75-7.52Z"/><path class="cls-16" d="M312,122.29s.88,4.86,1.77,4.86,6.43-6.43,7.08-8.84c.29-1.09-.8-1.61-.1-2.31.44-.44,1.16,2,2,2s6-.63,6,0c0,1-3.39,1.18-4,2-2.63,3.56-7.88,12.46-11,12.46-2.21,0-5.75-7.52-5.75-7.52Z"/><path class="cls-17" d="M301.23,110.35a19.57,19.57,0,0,1,8.42,5.1,23,23,0,0,1,5.44,9.52l-1.24.25-5.56,1.11s1.36,10.88,0,16.32C307.47,145.94,307,148,307,148a16.19,16.19,0,0,1-11-1c-5.44-2.72-9-1-9-1s3.21-15.21,1.85-19.29a6.37,6.37,0,0,0-5.05-4.46,31.05,31.05,0,0,1,3.72-7c1.77-2.65,5.75-4.42,5.75-4.42a5.35,5.35,0,0,0,4.14,1.94A4.36,4.36,0,0,0,301.23,110.35Z"/><line class="cls-18" x1="114" y1="71" x2="301" y2="71"/><path class="cls-19" d="M200.19,26h14.59a2,2,0,0,1,2,2V57a0,0,0,0,1,0,0h-18.6a0,0,0,0,1,0,0V28A2,2,0,0,1,200.19,26Z"/><path class="cls-20" d="M190,139.92h0c0,1.54-.94,2.16-2.47,2.16H133.25c-1.54,0-2.47-.62-2.47-2.16h0s0-10.12,7.39-13.8c4.68-2.33,2.88-.44,8.62-2.82a66.42,66.42,0,0,0,7.1-3.21l.05-5.48s-2.15-1.64-2.82-6.8c-1.34.39-1.79-1.58-1.86-2.83s-.78-5,.86-4.65a33,33,0,0,1-.46-6c.41-4.24,4.49-8.66,10.77-9,7.39.33,10.32,4.75,10.73,9a33.32,33.32,0,0,1-.48,6c1.64-.34.93,3.44.85,4.65s-.53,3.21-1.87,2.83c-.67,5.16-2.82,6.79-2.82,6.79l0,5.45s1.36.78,7.1,3.15,3.94.6,8.62,2.93c7.39,3.68,7.39,13.8,7.39,13.8Z"/><circle class="cls-10" cx="207.49" cy="34" r="4"/></g></g></svg>