<svg xmlns="http://www.w3.org/2000/svg" xmlns:xlink="http://www.w3.org/1999/xlink" viewBox="0 0 400 240"><defs><style>.cls-1{fill:url(#未命名的渐变_75);}.cls-2{fill:url(#未命名的渐变_75-2);}.cls-3{fill:url(#未命名的渐变_75-3);}.cls-4{fill:url(#未命名的渐变_5);}.cls-5{fill:url(#未命名的渐变_5-2);}.cls-40,.cls-41,.cls-6{isolation:isolate;}.cls-7{fill:url(#未命名的渐变_3);}.cls-8{opacity:0.36;mix-blend-mode:multiply;fill:url(#radial-gradient);}.cls-9{clip-path:url(#clip-path);}.cls-10{clip-path:url(#clip-path-2);}.cls-11{fill:url(#未命名的渐变_75-7);}.cls-12{fill:url(#未命名的渐变_75-8);}.cls-13{fill:url(#未命名的渐变_75-9);}.cls-14{fill:url(#未命名的渐变_75-10);}.cls-15{fill:url(#未命名的渐变_75-11);}.cls-16{fill:url(#未命名的渐变_75-12);}.cls-17{clip-path:url(#clip-path-3);}.cls-18{clip-path:url(#clip-path-4);}.cls-19{fill:url(#未命名的渐变_5-5);}.cls-20{clip-path:url(#clip-path-5);}.cls-21{fill:url(#未命名的渐变_5-7);}.cls-22{fill:url(#未命名的渐变_5-8);}.cls-23{fill:url(#未命名的渐变_5-9);}.cls-24{fill:url(#未命名的渐变_5-10);}.cls-25{fill:url(#未命名的渐变_5-11);}.cls-26{fill:url(#未命名的渐变_5-12);}.cls-27{fill:url(#未命名的渐变_5-13);}.cls-28{fill:url(#未命名的渐变_5-14);}.cls-29{fill:url(#未命名的渐变_43);}.cls-30{fill:#fddcbd;}.cls-31{fill:url(#未命名的渐变_10);}.cls-32{fill:url(#未命名的渐变_11);}.cls-33{fill:url(#未命名的渐变_12);}.cls-34{fill:#f8f8f8;}.cls-35{fill:url(#未命名的渐变_13);}.cls-36{fill:url(#未命名的渐变_13-2);}.cls-37{fill:url(#未命名的渐变_15);}.cls-38{fill:url(#未命名的渐变_15-2);}.cls-39{opacity:0.49;fill:url(#未命名的渐变_12-2);}.cls-40{opacity:0.84;fill:url(#未命名的渐变_2);}.cls-41{opacity:0.66;fill:url(#未命名的渐变_16);}</style><linearGradient id="未命名的渐变_75" x1="202.21" y1="162.73" x2="220.68" y2="162.73" gradientUnits="userSpaceOnUse"><stop offset="0" stop-color="#eee"/><stop offset="0.03" stop-color="#ddd"/><stop offset="1" stop-color="#d8d8d8"/></linearGradient><linearGradient id="未命名的渐变_75-2" x1="237.19" y1="87.51" x2="257.87" y2="87.51" xlink:href="#未命名的渐变_75"/><linearGradient id="未命名的渐变_75-3" x1="154.7" y1="162.35" x2="176.71" y2="162.35" xlink:href="#未命名的渐变_75"/><linearGradient id="未命名的渐变_5" x1="145.9" y1="145.75" x2="169.94" y2="145.75" gradientUnits="userSpaceOnUse"><stop offset="0" stop-color="#eee"/><stop offset="1" stop-color="#d8d8d8"/></linearGradient><linearGradient id="未命名的渐变_5-2" x1="137" y1="91" x2="188.72" y2="91" xlink:href="#未命名的渐变_5"/><linearGradient id="未命名的渐变_3" x1="867.28" y1="-2501.5" x2="867.28" y2="-2502" gradientTransform="matrix(390, 0, 0, -196, -338041, -490170)" gradientUnits="userSpaceOnUse"><stop offset="0" stop-color="#a9a9a9" stop-opacity="0.15"/><stop offset="1" stop-color="#a9a9a9" stop-opacity="0"/></linearGradient><radialGradient id="radial-gradient" cx="520.74" cy="13739.04" r="68.58" gradientTransform="translate(-659.66 -2199.59) scale(1.64 0.17)" gradientUnits="userSpaceOnUse"><stop offset="0" stop-color="#808184"/><stop offset="0.07" stop-color="#9a9a9d"/><stop offset="0.17" stop-color="#b9b9bb"/><stop offset="0.28" stop-color="#d2d3d4"/><stop offset="0.4" stop-color="#e6e7e7"/><stop offset="0.53" stop-color="#f4f4f5"/><stop offset="0.7" stop-color="#fdfdfd"/><stop offset="0.99" stop-color="#fff"/></radialGradient><clipPath id="clip-path"><path class="cls-1" d="M220.68,168.15l-14.16-7.71a4.3,4.3,0,0,1-.88-.65,16.82,16.82,0,0,0-3.43-2.47l14.16,7.7a17,17,0,0,1,3.44,2.48A4.26,4.26,0,0,0,220.68,168.15Z"/></clipPath><clipPath id="clip-path-2"><path class="cls-2" d="M251.36,90.26l-14.17-7.7L238,83c1.57.76,3.47.86,5.1,1.51a5.32,5.32,0,0,1,.65.3l14.16,7.71a6,6,0,0,0-.64-.3c-1.64-.66-3.53-.76-5.11-1.51Z"/></clipPath><linearGradient id="未命名的渐变_75-7" x1="237.19" y1="86.57" x2="251.98" y2="86.57" xlink:href="#未命名的渐变_75"/><linearGradient id="未命名的渐变_75-8" x1="237.81" y1="87.07" x2="253.85" y2="87.07" xlink:href="#未命名的渐变_75"/><linearGradient id="未命名的渐变_75-9" x1="239.68" y1="87.65" x2="255.92" y2="87.65" xlink:href="#未命名的渐变_75"/><linearGradient id="未命名的渐变_75-10" x1="241.75" y1="88.2" x2="257.65" y2="88.2" xlink:href="#未命名的渐变_75"/><linearGradient id="未命名的渐变_75-11" x1="243.48" y1="88.56" x2="257.87" y2="88.56" xlink:href="#未命名的渐变_75"/><linearGradient id="未命名的渐变_75-12" x1="178.2" y1="109.68" x2="229.42" y2="109.68" xlink:href="#未命名的渐变_75"/><clipPath id="clip-path-3"><path class="cls-3" d="M176.71,169.32l-14.17-7.71a40.55,40.55,0,0,1-6.46-4.34,8,8,0,0,1-1.38-1.88l14.17,7.7a8,8,0,0,0,1.37,1.88A41.15,41.15,0,0,0,176.71,169.32Z"/></clipPath><clipPath id="clip-path-4"><path class="cls-4" d="M145.9,128.41l14.17,7.7a18.39,18.39,0,0,1,7.62,8.48c2.65,5.47,2.85,11.46,1.18,18.5l-14.17-7.7c1.67-7,1.47-13-1.17-18.51A18.28,18.28,0,0,0,145.9,128.41Z"/></clipPath><linearGradient id="未命名的渐变_5-5" x1="180.67" y1="53.28" x2="233.92" y2="53.28" xlink:href="#未命名的渐变_5"/><clipPath id="clip-path-5"><path class="cls-5" d="M152.59,133.77l-14.17-7.71a2.58,2.58,0,0,1-1.29-2.49c-.09-7.33-.2-14.65-.07-22,0-.76,1.49-2.09,2.46-2.53,8.95-4,14.26-11.22,16-21,.7-3.94,0-8.11-.68-12-.38-2.08-.27-3.38,1.36-4.69Q164,55.17,171.8,49a3.27,3.27,0,0,1,1.55-.76,1.89,1.89,0,0,1,1.2.23l14.17,7.71a1.84,1.84,0,0,0-1.2-.24,3.4,3.4,0,0,0-1.55.77q-7.83,6.15-15.61,12.37c-1.64,1.3-1.74,2.61-1.37,4.69.7,3.84,1.39,8,.69,12-1.73,9.77-7,17-16,21-1,.43-2.45,1.76-2.46,2.53-.13,7.35,0,14.68.07,22A2.6,2.6,0,0,0,152.59,133.77Z"/></clipPath><linearGradient id="未命名的渐变_5-7" x1="137" y1="116.26" x2="154.31" y2="116.26" xlink:href="#未命名的渐变_5"/><linearGradient id="未命名的渐变_5-8" x1="140.15" y1="84.78" x2="169.97" y2="84.78" xlink:href="#未命名的渐变_5"/><linearGradient id="未命名的渐变_5-9" x1="154.86" y1="66.21" x2="170.08" y2="66.21" xlink:href="#未命名的渐变_5"/><linearGradient id="未命名的渐变_5-10" x1="155.91" y1="59.06" x2="186.26" y2="59.06" xlink:href="#未命名的渐变_5"/><linearGradient id="未命名的渐变_5-11" x1="172.09" y1="52.48" x2="186.83" y2="52.48" xlink:href="#未命名的渐变_5"/><linearGradient id="未命名的渐变_5-12" x1="172.66" y1="52.2" x2="188.23" y2="52.2" xlink:href="#未命名的渐变_5"/><linearGradient id="未命名的渐变_5-13" x1="174.07" y1="52.21" x2="188.63" y2="52.21" xlink:href="#未命名的渐变_5"/><linearGradient id="未命名的渐变_5-14" x1="174.46" y1="52.31" x2="188.72" y2="52.31" xlink:href="#未命名的渐变_5"/><linearGradient id="未命名的渐变_43" x1="151.17" y1="112.27" x2="260.18" y2="112.27" gradientUnits="userSpaceOnUse"><stop offset="0" stop-color="#efefef"/><stop offset="1" stop-color="#fdfdfd"/></linearGradient><linearGradient id="未命名的渐变_10" x1="237" y1="146.05" x2="250.09" y2="146.05" gradientUnits="userSpaceOnUse"><stop offset="0" stop-color="#fff7ed"/><stop offset="1" stop-color="#ffebd6"/></linearGradient><linearGradient id="未命名的渐变_11" x1="234.19" y1="141.84" x2="250.19" y2="141.84" gradientUnits="userSpaceOnUse"><stop offset="0" stop-color="#494983"/><stop offset="1" stop-color="#272557"/></linearGradient><linearGradient id="未命名的渐变_12" x1="223" y1="174" x2="264" y2="174" gradientUnits="userSpaceOnUse"><stop offset="0" stop-color="#fda457"/><stop offset="1" stop-color="#f96252"/></linearGradient><linearGradient id="未命名的渐变_13" x1="227.64" y1="192.5" x2="278.37" y2="192.5" gradientUnits="userSpaceOnUse"><stop offset="0" stop-color="#8caefb"/><stop offset="1" stop-color="#6894f9"/></linearGradient><linearGradient id="未命名的渐变_13-2" x1="210" y1="192" x2="260" y2="192" xlink:href="#未命名的渐变_13"/><linearGradient id="未命名的渐变_15" x1="213" y1="200.12" x2="229" y2="200.12" gradientUnits="userSpaceOnUse"><stop offset="0" stop-color="#1f1e4a"/><stop offset="1" stop-color="#424677"/></linearGradient><linearGradient id="未命名的渐变_15-2" x1="259" y1="200.14" x2="274.42" y2="200.14" xlink:href="#未命名的渐变_15"/><linearGradient id="未命名的渐变_12-2" x1="243.5" y1="185" x2="243.5" y2="183.5" xlink:href="#未命名的渐变_12"/><radialGradient id="未命名的渐变_2" cx="1009.56" cy="-2525.07" r="1.3" gradientTransform="matrix(0, 21, 22.62, 0, 57402.58, -21098.95)" gradientUnits="userSpaceOnUse"><stop offset="0" stop-color="#fff"/><stop offset="1" stop-color="#c2c2c2"/></radialGradient><radialGradient id="未命名的渐变_16" cx="1057.77" cy="-2537.18" r="0.94" gradientTransform="matrix(0, 16, 17.23, 0, 43842.54, -16732.25)" gradientUnits="userSpaceOnUse"><stop offset="0" stop-color="#fff"/><stop offset="1" stop-color="#d8d8d8"/></radialGradient></defs><title>暂无数据_1</title><g class="cls-6"><g id="图层_1" data-name="图层 1"><ellipse id="背景" class="cls-7" cx="200" cy="221.36" rx="195" ry="98"/><ellipse class="cls-8" cx="194.5" cy="177.27" rx="112.5" ry="11.86"/><g class="cls-6"><path class="cls-1" d="M220.68,168.15l-14.16-7.71a4.3,4.3,0,0,1-.88-.65,16.82,16.82,0,0,0-3.43-2.47l14.16,7.7a17,17,0,0,1,3.44,2.48A4.26,4.26,0,0,0,220.68,168.15Z"/><g class="cls-9"><g class="cls-6"><path class="cls-1" d="M220.68,168.15l-14.16-7.71a4.3,4.3,0,0,1-.88-.65,16.82,16.82,0,0,0-3.43-2.47l14.16,7.7a17,17,0,0,1,3.44,2.48,4.26,4.26,0,0,0,.87.65"/></g></g><path class="cls-2" d="M251.36,90.26l-14.17-7.7L238,83c1.57.76,3.47.86,5.1,1.51a5.32,5.32,0,0,1,.65.3l14.16,7.71a6,6,0,0,0-.64-.3c-1.64-.66-3.53-.76-5.11-1.51Z"/><g class="cls-10"><g class="cls-6"><path class="cls-11" d="M251.36,90.26l-14.17-7.7.62.32L252,90.58c-.21-.1-.42-.2-.62-.32"/><path class="cls-12" d="M252,90.58l-14.17-7.7L238,83a9.71,9.71,0,0,0,1.72.6l14.17,7.71a10.1,10.1,0,0,1-1.73-.6l-.14-.08"/><path class="cls-13" d="M253.85,91.26l-14.17-7.71c.68.18,1.39.32,2.07.49l14.17,7.71c-.69-.18-1.39-.32-2.07-.49"/><path class="cls-14" d="M255.92,91.75,241.75,84a11.12,11.12,0,0,1,1.31.42,3.89,3.89,0,0,1,.42.19l14.17,7.7-.42-.18a11.12,11.12,0,0,0-1.31-.42"/><path class="cls-15" d="M257.65,92.35l-14.17-7.7.23.11,14.16,7.71-.22-.12"/></g></g><path class="cls-16" d="M226.67,121.24c.26-.59.51-1.2.74-1.8l.06-.17a.42.42,0,0,0,0-.1c.08-.23.16-.46.23-.69s.14-.39.2-.59.14-.47.21-.7l.18-.61.18-.72c.05-.2.1-.4.14-.6s.11-.49.16-.74l.12-.6.12-.77.09-.59c0-.27.06-.55.09-.82s.05-.37.07-.55l.06-.9,0-.49c0-.46,0-.93,0-1.39,0-9-4.37-16.3-11-19.91l-14.16-7.71c6.64,3.61,11,10.9,11,19.91,0,.47,0,.93,0,1.4,0,.16,0,.32,0,.48l-.06.9-.06.55c0,.28-.06.55-.1.83s-.06.39-.09.58l-.12.77-.12.6-.15.75-.15.6-.18.72-.18.6c-.06.23-.13.47-.2.7s-.14.4-.2.6l-.24.68-.1.27c-.23.61-.47,1.21-.74,1.8a1.54,1.54,0,0,1-.08.19c-.27.61-.57,1.2-.88,1.79l-.19.36c-.27.49-.54,1-.84,1.45a.21.21,0,0,1,0,.06c-.28.46-.58.9-.88,1.34l-.27.39-.71,1-.24.31c-.32.4-.65.8-1,1.19l-.21.23c-.28.31-.57.61-.86.91-.11.12-.22.23-.34.34-.28.28-.56.55-.86.82l-.27.25c-.4.36-.81.71-1.23,1l-.29.23c-.35.27-.7.53-1.06.78l-.32.22c-.53.37-1.07.71-1.63,1l-.3.17c-.57.32-1.14.62-1.73.9l-.29.13c-.4.19-.81.36-1.23.53l-.38.15c-.51.19-1,.37-1.53.52l-.21.06q-.69.21-1.38.36l-.42.1c-.54.11-1.07.22-1.61.29s-1.37.16-2,.19l-.62,0c-.46,0-.92,0-1.38,0l-.69,0c-.44,0-.88-.08-1.31-.14l-.62-.08c-.55-.09-1.1-.2-1.64-.34l-.2,0c-.61-.16-1.2-.35-1.78-.56l-.52-.2c-.41-.16-.81-.33-1.21-.52s-.69-.32-1-.5l14.17,7.7c.24.14.49.26.73.38l.29.13c.39.18.8.35,1.21.52l.51.2c.59.21,1.18.4,1.79.56h0l.18,0c.54.13,1.09.24,1.64.34l.62.08c.43.06.87.1,1.31.13l.69,0q.67,0,1.38,0h.62c.67,0,1.35-.09,2-.19s1.08-.18,1.61-.29l.43-.1,1.38-.36.21-.06c.51-.16,1-.33,1.52-.52l.39-.16c.41-.16.83-.34,1.23-.52l.22-.09.07,0c.59-.28,1.16-.58,1.73-.9l.3-.18c.56-.32,1.1-.67,1.63-1l.11-.07.21-.15c.36-.26.71-.51,1-.78l.3-.23c.42-.33.83-.68,1.23-1l.07-.06.2-.19c.29-.27.58-.54.86-.82l.34-.34c.29-.3.57-.6.85-.92l.17-.17,0-.06c.34-.38.67-.78,1-1.19l.23-.31q.38-.47.72-1l.15-.2.12-.18c.3-.44.6-.89.88-1.34l0-.06c.29-.48.57-1,.84-1.46l.1-.17.09-.18c.31-.59.6-1.18.88-1.79C226.62,121.36,226.64,121.3,226.67,121.24Z"/><path class="cls-3" d="M176.71,169.32l-14.17-7.71a40.55,40.55,0,0,1-6.46-4.34,8,8,0,0,1-1.38-1.88l14.17,7.7a8,8,0,0,0,1.37,1.88A41.15,41.15,0,0,0,176.71,169.32Z"/><g class="cls-17"><g class="cls-6"><path class="cls-3" d="M176.71,169.32l-14.17-7.71a40.55,40.55,0,0,1-6.46-4.34,8,8,0,0,1-1.38-1.88l14.17,7.7a8,8,0,0,0,1.37,1.88,41.15,41.15,0,0,0,6.47,4.35"/></g></g><path class="cls-4" d="M145.9,128.41l14.17,7.7a18.39,18.39,0,0,1,7.62,8.48c2.65,5.47,2.85,11.46,1.18,18.5l-14.17-7.7c1.67-7,1.47-13-1.17-18.51A18.28,18.28,0,0,0,145.9,128.41Z"/><g class="cls-18"><g class="cls-6"><path class="cls-4" d="M168.87,163.09l-14.17-7.7c1.67-7,1.47-13-1.17-18.51a18.28,18.28,0,0,0-7.63-8.47l14.17,7.7a18.39,18.39,0,0,1,7.62,8.48c2.65,5.47,2.85,11.46,1.18,18.5"/></g></g><path class="cls-19" d="M225.05,51.26c.71.22,1.41.46,2.1.71l.64.24c.49.19,1,.37,1.45.57l.7.3c.48.2.95.42,1.42.64l.6.28c.66.32,1.32.65,2,1l-14.16-7.71c-.58-.31-1.15-.61-1.74-.89l-.23-.11-.6-.28c-.47-.22-.94-.44-1.42-.64l-.7-.3-1.44-.56-.64-.24c-.7-.25-1.4-.49-2.11-.72l-.27-.07-.32-.06-.23,0a2.22,2.22,0,0,0-.63,0,1.88,1.88,0,0,0-.56.16h0a3.12,3.12,0,0,0-.35.2l-.07.06-.1.08-.15.12a2.44,2.44,0,0,0-.22.23l-.11.11s0,0,0,0a7.09,7.09,0,0,0-.45.57c-.29.39-.58.77-.88,1.14-.09.12-.19.23-.29.35s-.4.49-.61.73l-.26.28c-.26.29-.52.57-.79.84l-.36.37c-.24.24-.49.47-.74.7l-.35.33c-.37.32-.73.63-1.11.93l-.05,0c-.39.31-.79.6-1.19.88l-.3.21c-.46.31-.92.6-1.39.88l-.1.06c-.49.28-1,.54-1.49.78l-.34.16q-.56.26-1.11.48l-.18.07c-.43.17-.86.31-1.29.45l-.36.1-1,.26-.38.09c-.44.09-.87.17-1.31.23s-1.06.12-1.59.15h-.5q-.55,0-1.11,0l-.55,0c-.37,0-.73-.07-1.09-.12l-.5-.06c-.5-.08-1-.18-1.49-.31h-.06c-.51-.14-1-.3-1.52-.48l-.45-.18q-.52-.21-1.05-.45c-.3-.14-.6-.28-.9-.44l14.17,7.7.64.34.26.11c.34.16.69.31,1,.44l.46.19c.5.18,1,.34,1.52.47h.06c.49.12,1,.22,1.49.3l.49.07c.37.05.73.09,1.1.11a5.07,5.07,0,0,0,.55,0c.37,0,.74,0,1.11,0h.5q.8,0,1.59-.15c.44-.06.87-.14,1.31-.24l.38-.08,1-.26.35-.11c.43-.13.86-.28,1.29-.44l.19-.08c.37-.14.74-.3,1.1-.47l.18-.07a1.4,1.4,0,0,1,.17-.09c.5-.24,1-.5,1.49-.78l.1-.07c.47-.27.93-.57,1.39-.88l.18-.11.12-.09c.4-.28.8-.57,1.19-.88l0-.05c.37-.29.74-.6,1.1-.93l.14-.11.22-.21.74-.71.36-.36c.26-.27.53-.55.79-.84.06-.08.13-.14.2-.22l.06-.07.61-.72c.09-.12.19-.23.29-.35q.45-.56.87-1.14a7.06,7.06,0,0,1,.5-.62,1.14,1.14,0,0,1,.11-.11,4,4,0,0,1,.37-.35l.1-.07a2.27,2.27,0,0,1,.44-.27,2.33,2.33,0,0,1,.57-.17,2.65,2.65,0,0,1,.63,0l.23,0A5,5,0,0,1,225.05,51.26Z"/><path class="cls-5" d="M152.59,133.77l-14.17-7.71a2.58,2.58,0,0,1-1.29-2.49c-.09-7.33-.2-14.65-.07-22,0-.76,1.49-2.09,2.46-2.53,8.95-4,14.26-11.22,16-21,.7-3.94,0-8.11-.68-12-.38-2.08-.27-3.38,1.36-4.69Q164,55.17,171.8,49a3.27,3.27,0,0,1,1.55-.76,1.89,1.89,0,0,1,1.2.23l14.17,7.71a1.84,1.84,0,0,0-1.2-.24,3.4,3.4,0,0,0-1.55.77q-7.83,6.15-15.61,12.37c-1.64,1.3-1.74,2.61-1.37,4.69.7,3.84,1.39,8,.69,12-1.73,9.77-7,17-16,21-1,.43-2.45,1.76-2.46,2.53-.13,7.35,0,14.68.07,22A2.6,2.6,0,0,0,152.59,133.77Z"/><g class="cls-20"><g class="cls-6"><path class="cls-21" d="M140.15,98.75l-.63.28-.06,0a5.63,5.63,0,0,0-.64.38,5.94,5.94,0,0,0-.69.55,4.35,4.35,0,0,0-.48.48,3.89,3.89,0,0,0-.28.35l-.16.25a1,1,0,0,0-.09.21.74.74,0,0,0-.06.28c-.13,7.36,0,14.68.07,22a2.58,2.58,0,0,0,1.29,2.49l14.17,7.71a2.6,2.6,0,0,1-1.29-2.49c-.09-7.33-.2-14.66-.07-22a.92.92,0,0,1,.05-.28,2,2,0,0,1,.1-.21,1.75,1.75,0,0,1,.16-.25,4.11,4.11,0,0,1,.27-.35,5.66,5.66,0,0,1,.49-.49,8.46,8.46,0,0,1,.68-.54,4.17,4.17,0,0,1,.65-.38l.06,0,.62-.28Z"/><path class="cls-22" d="M169,73.78a5.66,5.66,0,0,1,0-3L154.86,63.1a5.56,5.56,0,0,0,0,3c.69,3.85,1.38,8,.68,12A32.5,32.5,0,0,1,154,83.72a29.37,29.37,0,0,1-1.64,3.65A26.16,26.16,0,0,1,149,92.23a28.3,28.3,0,0,1-2,2.06,26.94,26.94,0,0,1-2.63,2.07,29.18,29.18,0,0,1-4.17,2.39l14.16,7.71a29.71,29.71,0,0,0,4.18-2.39,26.88,26.88,0,0,0,2.62-2.08,24.9,24.9,0,0,0,2-2.06,26.66,26.66,0,0,0,1.75-2.22,26.12,26.12,0,0,0,1.62-2.63,28.87,28.87,0,0,0,1.64-3.66,33.29,33.29,0,0,0,1.51-5.68C170.38,81.8,169.69,77.62,169,73.78Z"/><path class="cls-23" d="M155.91,61.62a3.66,3.66,0,0,0-.39.4,3.92,3.92,0,0,0-.27.33,3.13,3.13,0,0,0-.21.34,3,3,0,0,0-.18.41L169,70.81a3,3,0,0,1,.18-.41,2.39,2.39,0,0,1,.21-.34,4,4,0,0,1,.27-.34,3.59,3.59,0,0,1,.39-.39Z"/><path class="cls-24" d="M170.08,69.33l-14.17-7.71.28-.24Q164,55.17,171.8,49l.29-.21,14.17,7.7-.29.22q-7.83,6.15-15.61,12.37l-.28.24"/><path class="cls-25" d="M186.26,56.5l-14.17-7.7a4.49,4.49,0,0,1,.57-.34l14.17,7.71a4.18,4.18,0,0,0-.57.33"/><path class="cls-26" d="M186.83,56.17l-14.17-7.71a2.46,2.46,0,0,1,.69-.21,1.75,1.75,0,0,1,.72,0L188.23,56a1.88,1.88,0,0,0-.71,0,2.5,2.5,0,0,0-.69.22"/><path class="cls-27" d="M188.23,56l-14.16-7.7a2,2,0,0,1,.39.14l14.17,7.71a2.74,2.74,0,0,0-.4-.15"/><path class="cls-28" d="M188.63,56.14l-14.17-7.71.09,0,14.17,7.71-.09,0"/></g></g><path class="cls-29" d="M259.39,94.07c1,7.39,1.26,14.92-.43,22.62a5.23,5.23,0,0,1-2.32,3c-11.16,5.34-17.81,18.68-15,30.66a4.32,4.32,0,0,1-1.3,4.53,68.48,68.48,0,0,1-16.38,12.84,5,5,0,0,1-1.74.68,2.78,2.78,0,0,1-2.37-.93,17.23,17.23,0,0,0-14.36-4.35,22.91,22.91,0,0,0-14.34,8.38,4.57,4.57,0,0,1-2.81,1.92,4.14,4.14,0,0,1-1.77-.17A44.51,44.51,0,0,1,170.24,165a8,8,0,0,1-1.37-1.88c1.67-7,1.47-13-1.18-18.5-2.84-5.87-7.23-9.51-13.53-10.36-1.76-.24-2.84-1-2.86-2.95-.09-7.33-.2-14.66-.07-22,0-.77,1.49-2.1,2.46-2.53,8.95-4,14.26-11.23,16-21,.7-3.94,0-8.12-.69-12-.37-2.08-.27-3.39,1.37-4.69q7.78-6.21,15.61-12.37a3.4,3.4,0,0,1,1.55-.77A2.55,2.55,0,0,1,189.75,57a17.67,17.67,0,0,0,15.9,6c5.73-.81,11.46-4.32,15.86-10.36a3.32,3.32,0,0,1,2.09-1.59,3.36,3.36,0,0,1,1.45.18,48.2,48.2,0,0,1,16.56,9c1.42,1.18.86,2.48.45,3.94-3,10.91,1.26,22.28,10.06,26.51,1.58.75,3.47.85,5.11,1.51C258.1,92.52,259.27,93.24,259.39,94.07Zm-54,44.28c13.44-1.92,24-15.14,24-29.94,0-14.14-10.77-24-24.14-22.15l-.64.08C191.52,88.18,181,102,181.11,115.64c.12,14.51,10.81,24.6,24.28,22.71"/></g><path class="cls-30" d="M239,149c.15.73,0,4,0,6,0,2.24-5.92,2.68-8,4-2.39,1.51-4.51,5.6-6,8-1.34,2.17-3.54,8.51-3,11,.45,2.1,6,7,6,7l16,9,15-9s5.37-3.78,6-6c.9-3.16-1-10-2-12-2-4-7-10-7-10s-9,.3-9-2v-6"/><path class="cls-31" d="M237,144.65s.3,5,1.87,6.54c.68.68,2.78,2.81,3.74,2.81,2.81,0,3.7-1.7,4.68-2.81a7.26,7.26,0,0,0,1.87-4.67c0-1.65.93-7.48.93-7.48l-9.35-.94L237,140Z"/><path class="cls-32" d="M250.09,139a9,9,0,0,1,0,2.8c-.28,2.06-.93,4.68-.93,4.68s-.83-5.09-1.87-5.61c-1.39-.69-.94.93-2.81.93a39.42,39.42,0,0,1-6.54-.93c-.74,0-.94,1-.94,1.87v5.61s-2.81-1.78-2.81-6.55c0-3.74,1.87-4.67,2.81-5.61s3.27-.93,5.61-.93c.62,0,3.89.07,5.61.93A3.84,3.84,0,0,1,250.09,139Z"/><path class="cls-33" d="M239,155s-6.42,1.26-8,2c-3.54,1.66-8,10-8,10l8,3a50.33,50.33,0,0,0-2,6c-.38,2.37.05,9.59.05,9.59L244,193l13-4,3-7a56.39,56.39,0,0,0-1-7,35.15,35.15,0,0,0-2-4s2.16-1.53,3-2c1-.56,4-2,4-2s-5.18-8.32-8-10c-2.16-1.29-9-2-9-2s1,6-4,6S239,155,239,155Z"/><path class="cls-34" d="M227,176.25v15.5a1.13,1.13,0,0,0,1,1.25H260a1.13,1.13,0,0,0,1-1.25v-15.5a1.13,1.13,0,0,0-1-1.25H228A1.13,1.13,0,0,0,227,176.25Z"/><path class="cls-35" d="M229,203s34.56-4.9,45-10.74c1.45-.81,5.61-3.31,4-7.15-2-4.78-7-2.71-9-2.39-10.89,1.72-41.36,14-41.36,14Z"/><path class="cls-36" d="M210,186.5c0,3.38,6.05,6.88,9,7.75,9.53,2.8,40,7.75,40,7.75l1-4.43s-29.53-14.46-40-15.5C217.32,181.81,210,182.07,210,186.5Z"/><path class="cls-37" d="M213,200.3c0-1.82,1.91-2.35,2.82-2.73,2.74-1.12,11.9-.24,11.9-.24l1.28,4.78s-10,1.72-13.18.91C214.86,202.78,213,202.11,213,200.3Z"/><path class="cls-38" d="M259.91,197.59s9.15-1.32,11.78,0c1.82.9,2.73,1.75,2.73,2.72A2.6,2.6,0,0,1,272.6,203c-3.24,1.12-13.6-1.82-13.6-1.82Z"/><circle class="cls-39" cx="243.5" cy="183.5" r="1.5"/><circle class="cls-40" cx="292.57" cy="105.93" r="14.43"/><circle id="椭圆形" class="cls-41" cx="121.5" cy="194.36" r="8"/></g></g></svg>