<svg xmlns="http://www.w3.org/2000/svg" xmlns:xlink="http://www.w3.org/1999/xlink" viewBox="0 0 400 240"><defs><linearGradient id="37" x1="-1196.91" x2="-1196.91" y1="-2991.92" y2="-2992.42" gradientTransform="matrix(390 0 0 -196 466994.5 -586306)" gradientUnits="userSpaceOnUse"><stop offset="0" stop-color="#a8a8a8" stop-opacity=".15"/><stop offset="1" stop-color="#a8a8a8" stop-opacity="0"/></linearGradient><linearGradient id="10" x1="-1135.7" x2="-1122.27" y1="100.42" y2="100.42" gradientTransform="translate(1420)" gradientUnits="userSpaceOnUse"><stop offset="0" stop-color="#fff7ed"/><stop offset="1" stop-color="#ffebd6"/></linearGradient><linearGradient xlink:href="#10" id="10-2" x1="-1132.83" x2="-1127.03" y1="88.06" y2="88.06"/><linearGradient xlink:href="#10" id="10-3" x1="-900.95" x2="-889.11" y1="158.75" y2="158.75" gradientTransform="translate(1196 10.02)"/><linearGradient id="13" x1="-1126.62" x2="-1140.23" y1="148.8" y2="148.8" gradientTransform="translate(1420)" gradientUnits="userSpaceOnUse"><stop offset="0" stop-color="#8caefb"/><stop offset="1" stop-color="#6894f9"/></linearGradient><linearGradient id="11" x1="-1069.11" x2="-1069.11" y1="-3121.64" y2="-3122.33" gradientTransform="matrix(-16.86 6.29 -6.64 -17.8 -38472.26 -48771.94)" gradientUnits="userSpaceOnUse"><stop offset="0" stop-color="#494983"/><stop offset="1" stop-color="#272557"/></linearGradient><linearGradient id="15" x1="522.73" x2="532.66" y1="178.63" y2="178.63" gradientTransform="matrix(-1 0 0 1 807.09 0)" gradientUnits="userSpaceOnUse"><stop offset="0" stop-color="#1f1e4a"/><stop offset="1" stop-color="#424677"/></linearGradient><linearGradient xlink:href="#13" id="13-2" x1="-1119.57" x2="-1133.08" y1="149.66" y2="149.66"/><linearGradient xlink:href="#15" id="15-2" x1="506.66" x2="516.59" y1="179.78" y2="179.78"/><linearGradient id="12" x1="-1142.63" x2="-1113.97" y1="106.32" y2="106.32" gradientTransform="translate(1420)" gradientUnits="userSpaceOnUse"><stop offset="0" stop-color="#fda457"/><stop offset="1" stop-color="#f96252"/></linearGradient><linearGradient id="93" x1="133.5" x2="199.2" y1="121.27" y2="121.27" gradientTransform="matrix(-1 0 0 1 387 0)" gradientUnits="userSpaceOnUse"><stop offset="0" stop-color="#f2f2f2"/><stop offset=".13" stop-color="#ededed"/><stop offset=".59" stop-color="#e0e0e0"/><stop offset="1" stop-color="#dbdbdb"/></linearGradient><linearGradient id="90" x1="228.35" x2="228.35" y1="168" y2="68.99" gradientTransform="matrix(-1 0 0 1 387 0)" gradientUnits="userSpaceOnUse"><stop offset="0" stop-color="#fafafa"/><stop offset="1" stop-color="#dbdbdb"/></linearGradient><linearGradient id="91" x1="133.5" x2="257.5" y1="74.07" y2="74.07" gradientTransform="matrix(-1 0 0 1 387 0)" gradientUnits="userSpaceOnUse"><stop offset="0" stop-color="#c9c9c9"/><stop offset=".57" stop-color="#dadada"/><stop offset="1" stop-color="#ebebeb"/></linearGradient><linearGradient xlink:href="#90" id="90-2" x1="133.5" x2="222.21" y1="68.99" y2="68.99"/><linearGradient xlink:href="#90" id="90-3" x1="208.91" x2="208.91" y1="92.12" y2="60.7"/><linearGradient id="89" x1="151.59" x2="229.37" y1="71.83" y2="71.83" gradientTransform="matrix(-1 0 0 1 387 0)" gradientUnits="userSpaceOnUse"><stop offset="0" stop-color="#fafafa"/><stop offset="1" stop-color="#ececec"/></linearGradient><linearGradient xlink:href="#89" id="89-2" x1="151.59" x2="168.7" y1="87.02" y2="87.02"/><linearGradient id="73" x1="151.22" x2="213.99" y1="71.53" y2="71.53" gradientTransform="matrix(-1 0 0 1 378.5 0)" gradientUnits="userSpaceOnUse"><stop offset="0" stop-color="#f2f2f2"/><stop offset=".02" stop-color="#f1f1f1"/><stop offset=".36" stop-color="#dbdbdc"/><stop offset=".7" stop-color="#cececf"/><stop offset="1" stop-color="#c9cacb"/></linearGradient><linearGradient id="70" x1="197.8" x2="198.61" y1="85.9" y2="120.51" gradientTransform="matrix(-1 0 0 1 396 0)" gradientUnits="userSpaceOnUse"><stop offset="0" stop-color="#4b82fa" stop-opacity=".3"/><stop offset="1" stop-color="#4b82fa" stop-opacity=".9"/></linearGradient><linearGradient id="41" x1="193.02" x2="193.89" y1="30.71" y2="67.82" gradientTransform="rotate(.36 192.637 18.494)" gradientUnits="userSpaceOnUse"><stop offset="0" stop-color="#4b82fa" stop-opacity="0"/><stop offset="1" stop-color="#4b82fa" stop-opacity=".6"/></linearGradient><linearGradient xlink:href="#41" id="41-2" x1="176.63" x2="177.28" y1="24.85" y2="52.21"/><linearGradient xlink:href="#41" id="41-3" x1="205.62" x2="205.95" y1="26.87" y2="40.78"/><radialGradient id="radial-gradient" cx="190.23" cy="17776.76" r="114.55" gradientTransform="matrix(1 0 0 .15 6.19 -2480.22)" gradientUnits="userSpaceOnUse"><stop offset="0" stop-color="#808083"/><stop offset=".07" stop-color="#9a9a9c"/><stop offset=".17" stop-color="#b9b9ba"/><stop offset=".28" stop-color="#d2d2d4"/><stop offset=".4" stop-color="#e6e6e7"/><stop offset=".53" stop-color="#f4f4f5"/><stop offset=".7" stop-color="#fdfdfd"/><stop offset=".99" stop-color="#fff"/></radialGradient><radialGradient id="35" cx="-989.38" cy="-2906.27" r=".94" gradientTransform="matrix(0 16 17.23 0 50182.32 15891.75)" gradientUnits="userSpaceOnUse"><stop offset="0" stop-color="#fff"/><stop offset="1" stop-color="#d7d7d7"/></radialGradient><radialGradient id="36" cx="-1034.63" cy="-2930.68" r="1.3" gradientTransform="matrix(0 21 22.62 0 66370.27 21872.55)" gradientUnits="userSpaceOnUse"><stop offset="0" stop-color="#fff"/><stop offset="1" stop-color="#c1c1c1"/></radialGradient><style>.cls-7,.cls-8{fill-rule:evenodd}.cls-7{fill:#0075bf}.cls-8{fill:#fddcbd}</style></defs><g style="isolation:isolate"><g id="图层_1" data-name="图层 1"><ellipse cx="195.5" cy="158" rx="114" ry="17" style="opacity:.36;mix-blend-mode:multiply;fill:url(#radial-gradient)"/><ellipse id="背景" cx="199.5" cy="208.36" rx="195" ry="98" style="fill:url(#37)"/><circle id="椭圆形" cx="101" cy="63.86" r="8" style="opacity:.66;fill:url(#35);isolation:isolate"/><path d="M297.38 111s.11-11.42.18-12.25c.27-3.22.41-6.08-1.17-7.39a12.48 12.48 0 0 0-3.32-2.27c-.73-.29-4.22.45-6.33.82-1.71.3-1.89 2-1.71 3.6l-.73 14.25c1.2 3.07 11.34 5.17 13.08 3.24" style="fill:url(#10)"/><path d="m296.89 120.49.05.09V121.22l.08.15v1.21l.05.24V147.76l.08.28.08.28.09.27.08.28.09.28.09.28.17.55.09.28.09.28.07.25.09.28.08.28.08.28V163.34l-.05.23v.46l-.05.23-.05.23-.05.24-.05.23v.23l-.06.23-.05.23-.06.23v.23l-.06.23-.05.23-.06.23-.07.23-.06.23-.06.23-.06.23-.07.23-.06.23-.07.23-.07.23-.06.23-.14.46-.14.46-.08.25-.06.22-.14.46V177.33h-.05v-6.7l.14-.47.06-.21.07-.25.14-.46.13-.46.07-.23.07-.23.06-.23.06-.23.07-.23.06-.23.06-.23.06-.23.06-.23.06-.23.06-.23.05-.23v-.22l.05-.23.06-.23.05-.23v-.23l.05-.23.05-.23.05-.23.05-.23v-.45l.05-.23V152.2l-.08-.28-.09-.28-.08-.27-.08-.25-.09-.28-.08-.27-.18-.56-.09-.27-.09-.28-.09-.28-.08-.28-.09-.28-.08-.28V133.93l.06-.77.05-.77.06-.77.05-.77V121.7l-.07-.15v-.89h.05Z" style="fill-rule:evenodd;fill:#4598e3"/><path d="M286.56 122.64v.06l.05.12.05.11v7.66H289.19l.37.06h1.37-.1.17H287.3V122.7h.05ZM289.06 132.36V134l-.05.21v.2l-.05.21-.05.2-.05.2v.87l-.05.27v.52l-.05.26v.26l-.05.26v.26l-.1.52-.1.52-.11.52-.08.42v.09l-.1.52-.11.52-.1.52-.1.51v.26l-.05.26-.05.26v.52l-.05.26v.26l-.76.32V161.2l-.05.18-.05.18v.17l-.05.18v.18l-.06.18-.05.18-.05.18-.06.17-1.63.2-.06.18v.17l-.06.18-.06.17-.05.18-.12.34-.11.34-.12.34-.11.33-.06.17-.05.16-.06.16-.05.17-.05.17-.05.16v.17l-.05.18-.05.17-.05.17-.05.18v.35l-.05.18v.36l-.05.18v8.61l-.07.07-.07-.07V168.29l.05-.18v-.73l.05-.18v-.18l.05-.17.05-.18.05-.17.05-.18v-.17l.05-.17.05-.17.05-.17.05-.16.06-.17v-.16l.11-.34.12-.33.11-.34.11-.35v-.17l.06-.18.06-.17.05-.18.05-.17.06-.18.05-.17v-.18l.05-.18.05-.18.05-.17.05-.18v-.18l.05-.17v-17.41l.05-.26v-.52l.05-.26.05-.26.06-.26.05-.26.05-.26.11-.52.12-.51.11-.52.11-.52v-.09l.09-.42.12-.52.11-.51.11-.52.06-.26.05-.26v-.25l.05-.26.06-.26.05-.26.05-.26V135.02l.05-.21v-.2l.05-.2.06-.2.05-.21V132.44ZM286.59 131.44h2.43-4.41l-.11-.07.07-.1h2Z" class="cls-7"/><path d="M263.7 94.54c0-.56.1-1.38.1-1.38l.17-.54c.11-.45.2-.32.22-.32.55 0 .37 1 .82 2.09a4.63 4.63 0 0 0 .36.65l.53.3c.11.07 1.17 4.84.47 4.07a5.64 5.64 0 0 0-3.8-1.64 11.28 11.28 0 0 0-2.23.3 15.72 15.72 0 0 1-2.41.59c0-.2.22-.33.37-.42a9.8 9.8 0 0 1 1.79-.93l.63-.23.32-.13h-.35c-.22 0-.44.11-.66.13-.65.06-2.49.62-2.77.58-.07 0-.27 0-.25-.15s1.32-.75 1.68-.87c.74-.23 1.55-.52 1.76-.6 0 0 .2 0 .21-.08s-.18 0-.19 0c-.19 0-3.69.28-3.63.17s.49-.38.77-.48a9.66 9.66 0 0 1 2.27-.41l.78-.1s.27 0 .29-.06-.16 0-.19 0h-.52a13.11 13.11 0 0 0-1.88 0c-.24 0-.91.07-.92 0-.06-.33 2.48-.61 3-.61a21.63 21.63 0 0 1 3.26.07Zm.48-2.1" class="cls-8"/><path d="M285.43 91.29c-3.44 3-7.95 12.19-7.95 12.19s-2-1.69-4-3c-5.11-3.59-8.66-6.58-9.56-5.17-1.18 1.82 12.36 14.52 15.8 12.8 4.33-5.25 9.8-9.59 9.77-13.09.03-1.66-4.06-3.73-4.06-3.73ZM319 94.85a13.11 13.11 0 0 0-.16-1.38c-.07-.2-.19-.5-.2-.53-.13-.44-.21-.31-.24-.31-.54 0-.32 1-.72 2.12a4.22 4.22 0 0 1-.32.68c-.18.1-.36.21-.52.32s-1 4.89-.28 4.1a5.56 5.56 0 0 1 3.67-1.85 10.58 10.58 0 0 1 2.25.19 15.51 15.51 0 0 0 2.45.48c0-.19-.25-.32-.4-.4a9.24 9.24 0 0 0-1.83-.85l-.65-.2-.32-.12h.35c.22 0 .45.09.67.1.65 0 2.52.5 2.79.45.08 0 .28 0 .25-.16s-1.35-.7-1.72-.79c-.76-.2-1.58-.46-1.79-.52 0 0-.2 0-.22-.07s.19 0 .2 0c.18 0 3.7.11 3.64 0-.14-.26-.51-.36-.8-.45a10.89 10.89 0 0 0-2.29-.31l-.81-.05h-.3.71a14.71 14.71 0 0 1 1.88-.12c.25 0 .91 0 .93-.07 0-.33-2.52-.49-3-.47a21.54 21.54 0 0 0-3.22.21Zm-.59-2.08" class="cls-8"/><path d="M298.47 91c3.58 2.88 7.69 13 7.69 13s2.16-1.42 4-2.87c4.93-3.82 8-7.45 9-5.93 1.26 1.77-13 16.26-15.29 12.82-4.57-5-10.14-8.41-10.27-11.91-.06-1.58 4.87-5.11 4.87-5.11Z" class="cls-8"/><path d="M282.84 111.44h.3v1.51h.86v.6l-.06.05h-.72V111.35h.3Z" style="fill:#fff;fill-rule:evenodd"/><path d="M289.76 92.53a4 4 0 0 0 3.24-3.36L291.81 85c-.21-1.21-1.63-1.81-3.05-1.36S287 85.75 287.23 87l.4 4.49c.21 1.18 1.37 1.18 2.13 1.04Z" style="fill:url(#10-2)"/><path d="M295 80.76c.17-2-.2-3.92-1.65-4.85-3.17-2-7.47-.1-8.74 1.67-.69 1-.8 3.2-.07 5.48a10.3 10.3 0 0 0 2.58 4.24c2.05 1.7 4.75 0 5.84-1a6.64 6.64 0 0 0 1.38-2.49 1.46 1.46 0 0 0 1.23-1.06 1.65 1.65 0 0 0-.57-1.99Z" style="fill:url(#10-3)"/><path d="m280.92 122.41-1.15 27.54.58 26.96h4.01l9.02-56.22-12.46 1.72z" style="fill:url(#13)"/><path id="头发" d="M296.17 81.35c-.22 1.76-.93 2.75-2.14 3a16.75 16.75 0 0 0 .84-3.12 1.09 1.09 0 0 0-.53-.82 1.64 1.64 0 0 0-1 0c-.85-1.83-1.58-2.57-2.46-3a5.79 5.79 0 0 0-3.61-.49 9.61 9.61 0 0 0-3.49 2.35 3.34 3.34 0 0 1-.53-2.55 3.68 3.68 0 0 1 1.92-2.84 9.86 9.86 0 0 1 4.71-1.31 5.45 5.45 0 0 1 4.74 2 11 11 0 0 1 1.55 6.78Z" style="fill:url(#11);fill-rule:evenodd"/><path d="M284.36 176.91v3.44H275a.53.53 0 0 1-.3-1 14.74 14.74 0 0 1 5.62-2.46Z" style="fill:url(#15)"/><path d="m300.43 120.69-13.51 2.99 4.33 25.12 5.16 29.83h4.02" style="fill:url(#13-2)"/><path d="M300.43 178.06v3.44H291a.54.54 0 0 1-.3-1 14.88 14.88 0 0 1 5.62-2.45Z" style="fill:url(#15-2)"/><path d="M306 101.38c.08 0-4.55-9.58-8.86-11l-.2-.13a19.11 19.11 0 0 0-3.8-1.25s-2.13 4.8-5.33 3.61c-1.15-.57-.48-2.78-.48-2.78l-.1.06a7.54 7.54 0 0 0-5.73 2.72 22.44 22.44 0 0 0-4.13 8.2 34 34 0 0 0 4.45 5c-.21 4.1-.3 8.49-.45 11.11-.11 2-.23 3.92-.4 5.73 6.44 2.55 12.25-.28 18.81-1.06a.89.89 0 0 0 .48-.16c.26-.22.22-.66.16-1a101.15 101.15 0 0 1-1.37-14.89c.64 1.24 1 2.08 1 2.08s4.65-3.92 5.95-6.24Z" style="fill:url(#12)"/><path d="m253.5 74.54-65.7 17.58V168l61.07-24.06 4.63-69.4z" style="fill:url(#93)"/><path d="m129.5 68.98 58.3 23.14V168l-56.45-25.91-1.85-73.11z" style="fill:url(#90)"/><path d="m186.87 56.03 66.63 18.51-65.7 17.58-58.3-23.14 57.37-12.95z" style="fill:url(#91)"/><path d="m253.5 74.54-26.84 7.4-61.87-21.24 22.08-4.67 66.63 18.51z" style="fill:url(#90-2)"/><path d="M226.66 81.94 187.8 92.12l-58.28-23.14 35.27-8.28 61.87 21.24z" style="fill:url(#90-3)"/><path d="m218.34 84.08-60.71-21.71 12.19-2.79 65.59 19.8-17.07 4.7z" style="fill:url(#89)"/><path d="M235.41 79.38a2.54 2.54 0 0 0 0 .41l-.07 1.08-.11 1.54-.12 1.77L235 86l-.1 1.56-.08 1.12a.86.86 0 0 1-1 .84.54.54 0 0 1-.22-.09c-.07-.06-.12-.14-.18-.2a1 1 0 0 0-.74-.36 1 1 0 0 0-.76.3c-.32.31-.42.79-.75 1.08a1.14 1.14 0 0 1-1.21.19c-.38-.18-.45-.7-.95-.75a.87.87 0 0 0-.72.33 2.88 2.88 0 0 0-.4.73 3.56 3.56 0 0 1-.39.75 1.18 1.18 0 0 1-.68.48 1.09 1.09 0 0 1-1.29-.66.73.73 0 0 0-.64-.49.79.79 0 0 0-.61.27 1.48 1.48 0 0 0-.19.35c-.12.25-.25.51-.38.76a2.7 2.7 0 0 1-1 1.14c-.2.11-.48.15-.62 0a.46.46 0 0 1-.09-.2 2.72 2.72 0 0 0-.51-.89.75.75 0 0 0-.17-.14.73.73 0 0 0-.29 0 1.1 1.1 0 0 0-.65.14 1 1 0 0 0-.2.24 4.31 4.31 0 0 0-.45.85 4.89 4.89 0 0 1-.39.91c-.18.27-.81.83-1 .29a4.5 4.5 0 0 1 0-1.16v-9.31Z" style="fill:url(#89-2)"/><path d="m227.13 81.94-62.47-20.82" style="fill:none;stroke-miterlimit:10;opacity:.53;stroke:url(#73)"/><path d="m195.2 90.11-7.4 14.19v17.43l20.36-35.16-12.96 3.54z" style="fill:url(#70)"/><circle cx="86.57" cy="149.43" r="14.43" style="opacity:.84;fill:url(#36);isolation:isolate"/><path d="m197.7 49.3.06-18.23-8.8 5.01-.06 18.23-4.44 2.53 8.78 12.52 8.91-22.59-4.45 2.53" style="fill:url(#41)"/><path d="m180.23 38.55-.04-13.44-6.46 3.73.03 13.45-3.26 1.88 6.53 9.19 6.47-16.69-3.27 1.88" style="opacity:.5;fill:url(#41-2)"/><path d="m207.45 33.84-.02-6.84-3.29 1.9.02 6.83-1.66.96 3.32 4.67 3.29-8.48-1.66.96" style="opacity:.3;fill:url(#41-3)"/></g></g></svg>