<svg xmlns="http://www.w3.org/2000/svg" xmlns:xlink="http://www.w3.org/1999/xlink" viewBox="0 0 400 240"><defs><style>.cls-1,.cls-20{fill:#fff;}.cls-14,.cls-15,.cls-2{isolation:isolate;}.cls-3{fill:url(#未命名的渐变_3);}.cls-4{opacity:0.36;mix-blend-mode:multiply;fill:url(#radial-gradient);}.cls-5{fill:url(#未命名的渐变_75);}.cls-6{fill:url(#未命名的渐变_38);}.cls-7{fill:url(#未命名的渐变_75-2);}.cls-8{fill:url(#未命名的渐变_40);}.cls-9{fill:url(#未命名的渐变_42);}.cls-10{fill:url(#未命名的渐变_40-2);}.cls-11{fill:url(#未命名的渐变_40-3);}.cls-12{fill:url(#未命名的渐变_20);}.cls-13{fill:url(#未命名的渐变_20-2);}.cls-14{opacity:0.84;fill:url(#未命名的渐变_2);}.cls-15{opacity:0.66;fill:url(#未命名的渐变_16);}.cls-16{fill:url(#未命名的渐变_10);}.cls-17{fill:#4598e3;}.cls-17,.cls-18,.cls-19,.cls-20,.cls-24{fill-rule:evenodd;}.cls-18{fill:#0075bf;}.cls-19{fill:#fddcbd;}.cls-21{fill:url(#未命名的渐变_10-2);}.cls-22{fill:url(#未命名的渐变_10-3);}.cls-23{fill:url(#未命名的渐变_13);}.cls-24{fill:url(#未命名的渐变_11);}.cls-25{fill:url(#未命名的渐变_15);}.cls-26{fill:url(#未命名的渐变_13-2);}.cls-27{fill:url(#未命名的渐变_15-2);}.cls-28{fill:url(#未命名的渐变_12);}.cls-29{clip-path:url(#clip-path);}</style><linearGradient id="未命名的渐变_3" x1="356.59" y1="-2025.55" x2="356.59" y2="-2026.05" gradientTransform="matrix(390, 0, 0, -196, -138873, -396890.5)" gradientUnits="userSpaceOnUse"><stop offset="0" stop-color="#a9a9a9" stop-opacity="0.15"/><stop offset="1" stop-color="#a9a9a9" stop-opacity="0"/></linearGradient><radialGradient id="radial-gradient" cx="322.7" cy="11429.31" r="68.58" gradientTransform="translate(-331.83 -1808) scale(1.64 0.17)" gradientUnits="userSpaceOnUse"><stop offset="0" stop-color="#808184"/><stop offset="0.07" stop-color="#9a9a9d"/><stop offset="0.17" stop-color="#b9b9bb"/><stop offset="0.28" stop-color="#d2d3d4"/><stop offset="0.4" stop-color="#e6e7e7"/><stop offset="0.53" stop-color="#f4f4f5"/><stop offset="0.7" stop-color="#fdfdfd"/><stop offset="0.99" stop-color="#fff"/></radialGradient><linearGradient id="未命名的渐变_75" x1="155" y1="102.2" x2="251.17" y2="102.2" gradientUnits="userSpaceOnUse"><stop offset="0" stop-color="#eee"/><stop offset="0.03" stop-color="#ddd"/><stop offset="1" stop-color="#d8d8d8"/></linearGradient><linearGradient id="未命名的渐变_38" x1="160.83" y1="102.2" x2="257" y2="102.2" gradientUnits="userSpaceOnUse"><stop offset="0" stop-color="#f3f3f3"/><stop offset="1" stop-color="#f4f4f4"/></linearGradient><linearGradient id="未命名的渐变_75-2" x1="184.14" y1="37.36" x2="233.69" y2="37.36" xlink:href="#未命名的渐变_75"/><linearGradient id="未命名的渐变_40" x1="208.91" y1="30.07" x2="208.91" y2="34.91" gradientUnits="userSpaceOnUse"><stop offset="0" stop-color="#dedede"/><stop offset="1" stop-color="#fdfdfd"/></linearGradient><linearGradient id="未命名的渐变_42" x1="199.07" y1="83.26" x2="175.85" y2="83.26" xlink:href="#未命名的渐变_40"/><linearGradient id="未命名的渐变_40-2" x1="217.58" y1="103.66" x2="175.01" y2="103.66" xlink:href="#未命名的渐变_40"/><linearGradient id="未命名的渐变_40-3" x1="217.58" y1="124.06" x2="175.01" y2="124.06" xlink:href="#未命名的渐变_40"/><linearGradient id="未命名的渐变_20" x1="995.09" y1="-201.91" x2="979.61" y2="-201.91" gradientTransform="translate(-761.16 284.44)" gradientUnits="userSpaceOnUse"><stop offset="0" stop-color="#acf"/><stop offset="1" stop-color="#487fff" stop-opacity="0.6"/></linearGradient><linearGradient id="未命名的渐变_20-2" x1="-504.43" y1="-253.56" x2="-519.91" y2="-253.56" gradientTransform="translate(738.36 336.09)" xlink:href="#未命名的渐变_20"/><radialGradient id="未命名的渐变_2" cx="475.56" cy="-2026.5" r="1.3" gradientTransform="matrix(0, 21, 22.62, 0, 46181.34, -9873.45)" gradientUnits="userSpaceOnUse"><stop offset="0" stop-color="#fff"/><stop offset="1" stop-color="#c2c2c2"/></radialGradient><radialGradient id="未命名的渐变_16" cx="509.77" cy="-2033.56" r="0.94" gradientTransform="matrix(0, 16, 17.23, 0, 35171.12, -8066.75)" gradientUnits="userSpaceOnUse"><stop offset="0" stop-color="#fff"/><stop offset="1" stop-color="#d8d8d8"/></radialGradient><linearGradient id="未命名的渐变_10" x1="271.8" y1="132.42" x2="285.23" y2="132.42" gradientUnits="userSpaceOnUse"><stop offset="0" stop-color="#fff7ed"/><stop offset="1" stop-color="#ffebd6"/></linearGradient><linearGradient id="未命名的渐变_10-2" x1="274.67" y1="120.06" x2="280.47" y2="120.06" xlink:href="#未命名的渐变_10"/><linearGradient id="未命名的渐变_10-3" x1="270.53" y1="113.51" x2="282.36" y2="113.51" xlink:href="#未命名的渐变_10"/><linearGradient id="未命名的渐变_13" x1="280.88" y1="180.8" x2="267.27" y2="180.8" gradientUnits="userSpaceOnUse"><stop offset="0" stop-color="#8caefb"/><stop offset="1" stop-color="#6894f9"/></linearGradient><linearGradient id="未命名的渐变_11" x1="483.14" y1="-2103.61" x2="483.14" y2="-2104.3" gradientTransform="matrix(-16.18, 7.89, -8.33, -17.08, -9432.58, -39630.48)" gradientUnits="userSpaceOnUse"><stop offset="0" stop-color="#494983"/><stop offset="1" stop-color="#272557"/></linearGradient><linearGradient id="未命名的渐变_15" x1="2230.23" y1="210.63" x2="2240.16" y2="210.63" gradientTransform="matrix(-1, 0, 0, 1, 2502.09, 0)" gradientUnits="userSpaceOnUse"><stop offset="0" stop-color="#1f1e4a"/><stop offset="1" stop-color="#424677"/></linearGradient><linearGradient id="未命名的渐变_13-2" x1="287.93" y1="181.66" x2="274.42" y2="181.66" xlink:href="#未命名的渐变_13"/><linearGradient id="未命名的渐变_15-2" x1="2214.16" y1="211.78" x2="2224.09" y2="211.78" xlink:href="#未命名的渐变_15"/><linearGradient id="未命名的渐变_12" x1="264.87" y1="138.32" x2="293.53" y2="138.32" gradientUnits="userSpaceOnUse"><stop offset="0" stop-color="#fda457"/><stop offset="1" stop-color="#f96252"/></linearGradient><clipPath id="clip-path"><path class="cls-1" d="M730.34,570.22H726a1.32,1.32,0,0,1-1.32-1.32v-6.15a1.32,1.32,0,1,1,2.64,0v4.83h3.07a1.32,1.32,0,0,1,0,2.64Z"/></clipPath></defs><title>暂无订单</title><g class="cls-2"><g id="图层_1" data-name="图层 1"><ellipse id="背景" class="cls-3" cx="199" cy="215.36" rx="195" ry="98"/><ellipse class="cls-4" cx="197.5" cy="169.27" rx="112.5" ry="11.86"/><rect class="cls-5" x="155" y="35.9" width="96.17" height="132.6" rx="6.14"/><rect class="cls-6" x="160.83" y="35.9" width="96.17" height="132.6" rx="5.19"/><rect class="cls-1" x="169.57" y="51.93" width="80.14" height="109.29" rx="6.57"/><rect class="cls-7" x="184.14" y="32.99" width="49.54" height="8.74" rx="3"/><rect class="cls-8" x="191.43" y="30.07" width="34.97" height="7.29" rx="2.5"/><rect class="cls-9" x="176.86" y="79.61" width="34.97" height="7.29" rx="2.5"/><rect class="cls-10" x="176.86" y="100.01" width="64.11" height="7.29" rx="2.5"/><rect class="cls-11" x="176.86" y="120.41" width="64.11" height="7.29" rx="2.5"/><rect class="cls-12" x="219.11" y="79.61" width="23.31" height="5.83" rx="2.91" transform="translate(125.95 -139.01) rotate(45)"/><rect class="cls-13" x="219.11" y="79.61" width="23.31" height="5.83" rx="2.82" transform="translate(9.23 187.35) rotate(-45)"/><circle class="cls-14" cx="347.57" cy="117.43" r="14.43"/><circle id="椭圆形" class="cls-15" cx="128.5" cy="91.86" r="8"/><path class="cls-16" d="M284.88,143s.11-11.42.18-12.25c.27-3.22.41-6.08-1.17-7.39a12.48,12.48,0,0,0-3.32-2.27c-.73-.29-4.22.45-6.33.82-1.71.3-1.89,2-1.71,3.6l-.73,14.25c1.2,3.07,11.34,5.17,13.08,3.24"/><path class="cls-17" d="M284.39,152.49l0,0h0v0h0l0,0,0,0h0l0,0,0,.05,0,0,.05.09,0,.08V153l0,0,0,0,0,.07,0,.08,0,.07.08.15,0,.08,0,.07h0l0,.08,0,.08,0,0,0,0v0l0,0v0l0,0v0l0,0v.17l0,.24,0,.24,0,.25.05.24,0,.24,0,.24,0,.12,0,.12v.12l0,.12,0,.12v.13l0,.12v.24l0,.12v3.95l0,.39v.39l0,.39,0,.38v.39l0,.77,0,.77,0,.78,0,.77v.38l0,.39,0,.39v.42l0,.35v.39l0,.38v7.55l0,.13v.53l0,.13v.13l0,.13,0,.14v.13l0,.13,0,.13,0,.13,0,.13,0,.14,0,.13,0,.13,0,.13,0,.13,0,.13,0,.14,0,.13,0,.14,0,.14,0,.14,0,.14,0,.14,0,.14,0,.14,0,.14.08.28.08.28.09.27.08.28.09.28.09.28.17.55.09.28.09.28.07.25v0l.09.28.08.28.08.28,0,.14,0,.14,0,.14,0,.14,0,.14,0,.14,0,.14,0,.15,0,.14,0,.14,0,.14,0,.15,0,.14,0,.15,0,.14,0,.14,0,.15,0,.15,0,.14,0,.15,0,.14,0,.15v.15l0,.15,0,.14v3.64l0,.24v.24l0,.24,0,.24,0,.24,0,.23,0,.24,0,.24,0,.23,0,.24,0,.23,0,.24,0,.23,0,.23,0,.24,0,.23,0,.23,0,.24,0,.23-.05.23,0,.23,0,.23-.05.23-.05.23-.05.24-.05.23,0,.23-.06.23-.05.23-.06.23,0,.13,0,.1-.06.23-.05.23-.06.23-.07.23-.06.23-.06.23-.06.23-.07.23-.06.23-.07.23-.07.23-.06.23-.14.46-.14.46-.08.25-.06.22-.14.46,0,.07,0,.08v.07l0,.08,0,.08v.09l0,.09v6.05l-.05,0,0,0v-2.39l0-.47v-.24l0-.24v-2.66l0-.1v-.09l0-.09v-.09l0-.09,0-.08,0-.08,0-.08.14-.47.06-.21.07-.25.14-.46.13-.46.07-.23.07-.23.06-.23.06-.23.07-.23.06-.23.06-.23.06-.23.06-.23.06-.23.06-.23.05-.23,0-.1,0-.12.05-.23.06-.23.05-.23,0-.23.05-.23.05-.23.05-.23.05-.23,0-.22,0-.23.05-.23,0-.23,0-.23,0-.23,0-.23,0-.24,0-.23,0-.23,0-.23,0-.23,0-.24,0-.23,0-.23,0-.24,0-.23v-.23l0-.24,0-.24V188l0-.15v-.14l0-.14v-.15l0-.14,0-.14,0-.15,0-.14,0-.14,0-.14,0-.14,0-.14,0-.14,0-.15,0-.14,0-.14,0-.14,0-.13,0-.14,0-.14,0-.14,0-.14,0-.14,0-.14,0-.14,0-.14,0-.13-.08-.28-.09-.28-.08-.27v0l-.08-.25-.09-.28-.08-.27L286,182l-.09-.27-.09-.28-.09-.28-.08-.28-.09-.28-.08-.28,0-.14,0-.15,0-.14,0-.14,0-.14,0-.14,0-.15,0-.14,0-.14,0-.13,0-.14,0-.13,0-.14,0-.14,0-.13,0-.14,0-.13,0-.14,0-.13,0-.14,0-.14,0-.13,0-.14V177l0-.14V169l0-.39v-.38l0-.39,0-.36v0l0-.39,0-.38,0-.39,0-.39.06-.77.05-.77.06-.77.05-.77,0-.39,0-.38,0-.39,0-.38,0-.39,0-.39v-.38l0-.39v-.38l0-.39v-2.59l0-.12v-.12l0-.12v-.12l0-.12,0-.24,0-.24,0-.24,0-.24,0-.24,0-.24V154l0,0v0l0,0v0l0,0,0-.08,0-.07h0l0-.07,0-.08-.07-.15,0-.08,0-.08,0-.07,0,0V153l0-.08,0-.09,0-.05,0-.05,0,0h0v-.17h0v0h.05Z"/><path class="cls-18" d="M274.06,154.64h0v0h0v0h0v0l0,0,0,0h0l0,.06.05.12.05.11,0,0,0,0v.08l0,.07h0v.2l0,.13v.14l0,.13v3.36h0v1.6l0,.13v.58l0,.06v1.18l0,0v0l0,0v0h0v0h0l0,0h0v0h0l0,0h0l0,0H276l.09,0,.08,0h.18l.09,0h.09l.19,0,.37.06.19,0h.1l.09,0h.1l.09,0,.1,0h.09l.09,0,.1,0,.09,0,.09,0,.09,0h0l.05,0h0l0,0,.05,0,0,0h0l.05,0,0,0,0,0,0,0,0,0,0,0,0,0,0,0-.05,0,0,0,0,0,0,0,0,0h0l-.05,0,0,0h-.08l-.05,0h-.13l0,0-.09,0h-.09l-.09,0-.1,0h-.28l-.09,0h-.47l-.38,0-.19,0h-.46l-.09,0H274.8l0,0h0l0,0h0l0,0,0,0,0,0,0,0,0,0,0,0,0,0,0,0,0,0,0,0,0,0,0,0,0,0,0-.05,0,0h0v-.05l0,0v-1.39l0-.14v-.13l0-.14V158.5l0-.27v-2.85h0v-.06h0v0h0v-.08l0-.05,0-.11,0-.12,0-.06h0v-.25h.05l0,0h0l0,0Z"/><path class="cls-18" d="M276.56,164.36l0,0v.8l0,.11v.1l0,.11,0,.1,0,.1,0,.11,0,.1V166h0l-.05.21,0,.2-.05.21-.05.2-.05.2,0,.1,0,.11,0,.1,0,.1,0,.1,0,.1,0,.26-.05.27,0,.26,0,.26-.05.26,0,.26-.05.26,0,.26-.1.52-.1.52-.11.52-.08.42,0,.09-.1.52-.11.52-.1.52-.1.51,0,.26-.05.26-.05.26,0,.26,0,.26-.05.26v.09l0,.17-.05.26,0,.24,0,.24,0,.25,0,.24,0,.24,0,.24h0l0,.24,0,.24,0,.24,0,.24,0,.25,0,.24,0,.24v.09l0,.16,0,.24v.25l0,.24,0,.24v.49l0,.25v1.22l0,.49,0,.49v.49l0,1,0,.49v.08l0,.41,0,.49v1l0,.25v.24l0,.25v.24l0,.25,0,.24,0,.24,0,.25,0,.24,0,.25,0,.24,0,.24,0,.25,0,.24,0,.24,0,.25,0,.24,0,.24,0,.18,0,.17,0,.18,0,.18,0,.17,0,.18,0,.13v0l0,.18,0,.18-.05.18-.05.18,0,.17-.05.18,0,.18-.06.18-.05.18-.05.18-.06.17-.05.18-.06.18,0,.17-.06.18-.06.17-.05.18-.12.34-.11.34-.12.34-.11.33-.06.17-.05.16-.06.16-.05.17-.05.17-.05.16,0,.17-.05.18-.05.17-.05.17-.05.18,0,.17,0,.18-.05.18,0,.06,0,.12,0,.18-.05.18,0,.18,0,.18,0,.18,0,.19,0,.18,0,.19,0,.18,0,.19,0,.18,0,.19,0,.19,0,.18,0,.19,0,.19,0,.19,0,.19,0,.19,0,.18,0,.19,0,.19,0,.19,0,.19,0,.18,0,.19,0,.19h0l0,.19,0,.18,0,.19,0,.18,0,.19,0,.18,0,.19,0,.18,0,.18,0,.18v.72l0,.18v1.21l-.07.07-.07-.07v-2.49l0-.18v-.19l0-.18v-.19l0-.19,0-.19V205l0-.19h0l0-.19,0-.19,0-.19,0-.19,0-.19,0-.19,0-.19,0-.19,0-.19,0-.19,0-.19,0-.19,0-.19,0-.18,0-.19,0-.19,0-.19,0-.19,0-.18,0-.19,0-.19,0-.18,0-.19,0-.18.05-.18,0-.19,0-.18,0-.12,0-.06,0-.18.05-.18,0-.18.05-.17.05-.18.05-.17.05-.18,0-.17.05-.17.05-.17.05-.17.05-.16.06-.17,0-.16.11-.34.12-.33.11-.34.11-.35,0-.17.06-.18.06-.17.05-.18.05-.17.06-.18.05-.17,0-.18.05-.18.05-.18.05-.17.05-.18,0-.18.05-.17,0-.18,0-.18,0-.17v-.05l0-.13,0-.17,0-.18,0-.17,0-.17,0-.17,0-.17,0-.24,0-.24,0-.24,0-.24,0-.25,0-.24,0-.24,0-.24,0-.24,0-.24,0-.25,0-.24v-.24l0-.25v-.24l0-.24v-1.47l0-.49v-.49l0-.49,0-1v-.49l0-.49v-1.72l0-.25v-.49l0-.25v-.24l0-.25,0-.25v-.24l0-.25,0-.24,0-.25,0-.24,0-.25,0-.25,0-.24h0l0-.25,0-.24,0-.25,0-.24,0-.25,0-.24.05-.26,0-.17,0-.09,0-.26.05-.26.05-.26.06-.26.05-.26.05-.26.11-.52.12-.51.11-.52.11-.52,0-.09.09-.42.12-.52.11-.51.11-.52.06-.26.05-.26,0-.25.05-.26.06-.26.05-.26.05-.26,0-.26,0-.1,0-.11,0-.1,0-.11,0-.1,0-.1.05-.21,0-.2.05-.2.06-.2.05-.21h0l0-.09,0-.1,0-.1,0-.1,0-.1,0-.1,0-.1,0-.1,0-.11V165l0-.1v-.46h0l0,0,0,0Z"/><path class="cls-18" d="M274.09,163.44h1.11l.27,0h.27l.25,0h0l.13,0h.17l.1,0,.07,0,.06,0,0,0,0,0-.06,0h-4.21l-.07,0h-.07l-.11-.07.07-.1.07,0,.07,0,.07,0,.07,0,.08,0h.07l.07,0h.07l.07,0h1.36Z"/><path class="cls-19" d="M251.2,126.54v0c0-.56.1-1.38.1-1.38l.17-.54c.11-.45.2-.32.22-.32.55,0,.37,1,.82,2.09a4.63,4.63,0,0,0,.36.65l.53.3c.11.07,1.17,4.84.47,4.07a5.64,5.64,0,0,0-3.8-1.64,11.28,11.28,0,0,0-2.23.3,15.72,15.72,0,0,1-2.41.59c0-.2.22-.33.37-.42a9.8,9.8,0,0,1,1.79-.93l.63-.23.32-.13-.35.05c-.22,0-.44.11-.66.13-.65.06-2.49.62-2.77.58-.07,0-.27,0-.25-.15s1.32-.75,1.68-.87c.74-.23,1.55-.52,1.76-.6,0,0,.2-.05.21-.08s-.18,0-.19,0c-.19,0-3.69.28-3.63.17s.49-.38.77-.48a9.66,9.66,0,0,1,2.27-.41l.78-.1s.27,0,.29-.06-.16,0-.19,0-.36,0-.52,0a13.11,13.11,0,0,0-1.88,0c-.24,0-.91.07-.92,0-.06-.33,2.48-.61,3-.61A21.63,21.63,0,0,1,251.2,126.54Zm.48-2.1"/><path class="cls-19" d="M272.93,123.29c-3.44,3-7.95,12.19-7.95,12.19s-2-1.69-4-3c-5.11-3.59-8.66-6.58-9.56-5.17-1.18,1.82,12.36,14.52,15.8,12.8,4.33-5.25,9.8-9.59,9.77-13.09C277,125.36,272.93,123.29,272.93,123.29Z"/><path class="cls-19" d="M306.45,126.85v0a13.11,13.11,0,0,0-.16-1.38c-.07-.2-.19-.5-.2-.53-.13-.44-.21-.31-.24-.31-.54,0-.32,1-.72,2.12a4.22,4.22,0,0,1-.32.68c-.18.1-.36.21-.52.32s-1,4.89-.28,4.1a5.56,5.56,0,0,1,3.72-1.82,10.58,10.58,0,0,1,2.25.19,15.51,15.51,0,0,0,2.45.48c0-.19-.25-.32-.4-.4a9.24,9.24,0,0,0-1.83-.85l-.65-.2-.32-.12.35,0c.22,0,.45.09.67.1.65,0,2.52.5,2.79.45.08,0,.28,0,.25-.16s-1.35-.7-1.72-.79c-.76-.2-1.58-.46-1.79-.52,0,0-.2,0-.22-.07s.19,0,.2,0c.18,0,3.7.11,3.64,0-.14-.26-.51-.36-.8-.45a10.89,10.89,0,0,0-2.29-.31l-.78-.06s-.28,0-.3,0,.17,0,.19,0,.36,0,.52,0a14.71,14.71,0,0,1,1.88-.12c.25,0,.91,0,.93-.07,0-.33-2.52-.49-3-.47A21.54,21.54,0,0,0,306.45,126.85Zm-.59-2.08"/><path class="cls-19" d="M286,123c3.58,2.88,7.69,13.05,7.69,13.05s2.16-1.42,4-2.87c4.93-3.82,8-7.45,9-5.93,1.26,1.77-13,16.26-15.29,12.82-4.57-5-10.14-8.41-10.27-11.91C281,126.53,286,123,286,123Z"/><path class="cls-20" d="M270.34,143.44h.3l0,0h0l0,0h0v0h0v0l0,0v0h0v.21l0,.14v.82l0,.06V145l0,.09v.19h0v0h0l0,0v0h.61v0h0l0,0h0l0,0v0h0v0l0,0v.6l0,0h0v0l0,0v0h0v0h0l0,0h-.07l0,0-.06,0,0,0,0,0-.05,0,0,0,0,0,0,0,0,0,0,0,0,0-.05,0h-.62l0,0,0,0,0,0,0,0,0,0,0,0,0,0v0h0l0-.07,0,0,0-.05,0-.06,0-.05,0-.06,0-.06,0-.07,0,0,0,0v0l0,0,0,0v0l0,0v-.75l0-.05v-.06l0-.09v-.2h0v0h0v-.22l0-.13v-.43h0v0l0,0v0h0v0h0l0,0h0l0,0h.3Z"/><path class="cls-21" d="M277.26,124.53a4,4,0,0,0,3.21-3.36L279.31,117c-.21-1.21-1.63-1.81-3.05-1.36s-1.74,2.07-1.53,3.28l.4,4.49C275.34,124.67,276.48,124.67,277.26,124.53Z"/><path class="cls-22" d="M281.54,112.23c0-2-.58-3.88-2.11-4.66-3.34-1.7-7.44.62-8.54,2.5-.59,1-.49,3.27.46,5.46a10.33,10.33,0,0,0,3,4c2.21,1.5,4.73-.48,5.72-1.59a6.68,6.68,0,0,0,1.13-2.61,1.47,1.47,0,0,0,1.12-1.18A1.64,1.64,0,0,0,281.54,112.23Z"/><polygon class="cls-23" points="268.42 154.41 267.27 181.95 267.85 208.91 271.86 208.91 280.88 152.69 268.42 154.41"/><path id="头发" class="cls-24" d="M282.74,112.7c0,1.78-.65,2.84-1.84,3.17a18.15,18.15,0,0,0,.54-3.18,1.09,1.09,0,0,0-.62-.77,1.54,1.54,0,0,0-1,.08c-1-1.75-1.82-2.41-2.73-2.72a5.88,5.88,0,0,0-3.65-.14,9.56,9.56,0,0,0-3.24,2.68,3.38,3.38,0,0,1-.77-2.49,3.68,3.68,0,0,1,1.63-3,9.93,9.93,0,0,1,4.56-1.75,5.47,5.47,0,0,1,4.92,1.52A11.09,11.09,0,0,1,282.74,112.7Z"/><path class="cls-25" d="M271.86,208.91v3.44h-9.39a.53.53,0,0,1-.3-1,14.74,14.74,0,0,1,5.62-2.46Z"/><polyline class="cls-26" points="287.93 152.69 274.42 155.68 278.75 180.8 283.91 210.63 287.93 210.63"/><path class="cls-27" d="M287.93,210.06v3.44h-9.39a.54.54,0,0,1-.3-1,14.88,14.88,0,0,1,5.62-2.45Z"/><path class="cls-28" d="M293.52,133.38c.08,0-4.55-9.58-8.86-11l-.2-.13a19.11,19.11,0,0,0-3.82-1.28s-2.13,4.8-5.33,3.61c-1.15-.57-.48-2.78-.48-2.78l-.1.06a7.54,7.54,0,0,0-5.73,2.72,22.44,22.44,0,0,0-4.13,8.2,34,34,0,0,0,4.45,5c-.21,4.1-.3,8.49-.45,11.11-.11,2-.23,3.92-.4,5.73,6.44,2.55,12.25-.28,18.81-1.06a.89.89,0,0,0,.48-.16c.26-.22.22-.66.16-1a101.15,101.15,0,0,1-1.37-14.89c.64,1.24,1,2.08,1,2.08S292.2,135.7,293.52,133.38Z"/><path class="cls-1" d="M730.34,570.22H726a1.32,1.32,0,0,1-1.32-1.32v-6.15a1.32,1.32,0,1,1,2.64,0v4.83h3.07a1.32,1.32,0,0,1,0,2.64Z"/><g class="cls-29"><rect class="cls-1" x="322.5" y="-516.04" width="528.54" height="1604.98"/></g></g></g></svg>