<svg xmlns="http://www.w3.org/2000/svg" xmlns:xlink="http://www.w3.org/1999/xlink" class="icon" viewBox="0 0 1024 1024">
  <circle cx="513.414" cy="512.707" r="506.343" fill="url(#a)"/>
  <defs>
    <linearGradient id="b">
      <stop offset="0"/>
      <stop offset="1" stop-color="#4b4b4b"/>
    </linearGradient>
    <linearGradient xlink:href="#b" id="a" x1="516.021" x2="519.838" y1="33.567" y2="990.208" gradientUnits="userSpaceOnUse"/>
  </defs>
  <path fill="#fff" d="M709.839 664.013 370.972 876.396c-10.144 10.533-35.205 9.786-45.672-.44-10.468-10.226-9.194-35.878 1.606-45.77l337.866-211.352c10.095-10.736 36.323-10.097 46.88.207 10.557 10.304 9.187 35.12-1.813 44.972z"/>
  <circle cx="747.888" cy="353.591" r="84.883" fill="#fff"/>
  <circle cx="283.552" cy="352.177" r="84.883" fill="#fff"/>
  <path fill="#fff" d="M665.743 878.523 335.377 676.36c-14.144-9.47-18.202-32.218-10.668-45.445 7.243-12.715 32.87-20.967 43.61-14.766l331.366 203.192c14.972 8.644 21.252 35.936 13.876 48.712-8.016 13.884-35.126 17.796-47.818 10.469z"/>
</svg>
