<svg xmlns="http://www.w3.org/2000/svg" xmlns:xlink="http://www.w3.org/1999/xlink" width="1024" height="1024"><defs><linearGradient id="a"><stop offset="0" stop-color="#fcdba2"/><stop offset="1" stop-color="#fdf6d8"/></linearGradient><linearGradient id="e"><stop offset="0" stop-color="#f8b446"/><stop offset="1" stop-color="#fdf4cf"/></linearGradient><linearGradient xlink:href="#a" id="j" x1="523.292" x2="521.856" y1="345.301" y2="627.851" gradientTransform="translate(8.2904476 3.9483139) scale(.96795)" gradientUnits="userSpaceOnUse"/><linearGradient xlink:href="#b" id="f" x1="143.09692" x2="898.33069" y1="164.29646" y2="810.88257" gradientTransform="translate(-.00191063 -.00196486) scale(1.0005)" gradientUnits="userSpaceOnUse"/><linearGradient id="b"><stop offset="0" stop-color="#fbe2c9"/><stop offset="1" stop-color="#eea36b"/></linearGradient><linearGradient xlink:href="#c" id="g" x1="1274.6226" x2="1902.6591" y1="-291.49371" y2="204.04561" gradientTransform="translate(-1063.8611 567.31936) scale(1.0005)" gradientUnits="userSpaceOnUse"/><linearGradient id="c"><stop offset="0" stop-color="#e2a576"/><stop offset="1" stop-color="#f9e7d6"/></linearGradient><linearGradient xlink:href="#d" id="h" x1="-285.41812" x2="285.38971" y1="-257.87775" y2="255.19093" gradientTransform="translate(512.02424 518.02725) scale(1.0005)" gradientUnits="userSpaceOnUse"/><linearGradient id="d"><stop offset="0" stop-color="#facda1"/><stop offset="1" stop-color="#e3814e"/></linearGradient><radialGradient xlink:href="#e" id="i" cx="521.652" cy="617.926" r="257.943" fx="521.652" fy="617.926" gradientTransform="matrix(.9934 .00447 -.0041 .91186 -2.4439201 11.161921)" gradientUnits="userSpaceOnUse"/></defs><circle cx="512" cy="512" r="508" fill="url(#f)"/><circle cx="513.64362" cy="515.61957" r="425.46204" fill="url(#g)"/><circle cx="512.02417" cy="518.02716" r="386.19312" fill="url(#h)"/><path fill="url(#i)" d="M260.93578 362.19446v273.13658c0 31.70185 13.987 57.984 47.47974 57.984h404.12609c23.37369 0 47.64683-21.11456 47.74888-58.93648 0-32.14907-.27014-278.28715-.27014-278.28715l-246.59831 255.5878z"/><path fill="url(#j)" d="M517.23194 291.90631 362.70967 569.71123c-37.86393 67.97299 24.27614 70.95448 24.27614 70.95448h241.41372s66.13307 1.85993 33.10956-68.66634z"/><circle cx="516.09039" cy="286.75574" r="39.223614" fill="#fdf9e1"/></svg>
