<svg xmlns="http://www.w3.org/2000/svg" xmlns:xlink="http://www.w3.org/1999/xlink" width="1024" height="1024"><circle cx="511.746" cy="511.746" r="507.746" style="fill:url(#a)"/><circle cx="513.389" cy="515.364" r="425.249" style="fill:url(#b)"/><circle cx="511.77" cy="517.77" r="386" style="fill:url(#c)"/><defs><linearGradient id="g"><stop offset="0" style="stop-color:#dfd9fb;stop-opacity:1"/><stop offset="1" style="stop-color:#7b74bf;stop-opacity:1"/></linearGradient><linearGradient id="f"><stop offset="0" style="stop-color:#766fb8;stop-opacity:1"/><stop offset="1" style="stop-color:#dbd9f3;stop-opacity:1"/></linearGradient><linearGradient id="e"><stop offset="0" style="stop-color:#dcdaf3;stop-opacity:1"/><stop offset="1" style="stop-color:#8d86d4;stop-opacity:1"/></linearGradient><linearGradient id="d" x1="0" x2="1" y1="0" y2="0" gradientTransform="matrix(1200.85 0 0 -1200.85 10872.1 5348.5)" gradientUnits="userSpaceOnUse" spreadMethod="pad"><stop offset="0" style="stop-opacity:1;stop-color:#7646a7"/><stop offset="1" style="stop-opacity:1;stop-color:#774aaa"/></linearGradient><linearGradient id="i" x1=".017" x2="1.011" y1=".044" y2=".035" gradientTransform="matrix(0 -2490.67 -2490.67 0 14782.2 7118)" gradientUnits="userSpaceOnUse" spreadMethod="pad"><stop offset="0" style="stop-opacity:1;stop-color:#7d74d7"/><stop offset="1" style="stop-opacity:1;stop-color:#383492"/></linearGradient><linearGradient id="k" x1="0" x2=".752" y1="-.009" y2=".29" gradientTransform="matrix(0 -1550.32 -1550.32 0 14760 6177.7)" gradientUnits="userSpaceOnUse" spreadMethod="pad"><stop offset="0" style="stop-opacity:1;stop-color:#998fe4"/><stop offset="1" style="stop-opacity:1;stop-color:#5145a4"/></linearGradient><linearGradient id="m" x1="0" x2="1.498" y1="0" y2="-.015" gradientTransform="matrix(0 -940.355 -940.355 0 14760 7118)" gradientUnits="userSpaceOnUse" spreadMethod="pad"><stop offset="0" style="stop-opacity:1;stop-color:#6d65b6"/><stop offset="1" style="stop-opacity:1;stop-color:#c6bce8"/></linearGradient><linearGradient id="o" x1=".457" x2="1" y1=".436" y2="-.015" gradientTransform="matrix(0 -940.355 -940.355 0 14760 7118)" gradientUnits="userSpaceOnUse" spreadMethod="pad"><stop offset="0" style="stop-opacity:1;stop-color:#b4aef0"/><stop offset="1" style="stop-opacity:1;stop-color:#dfdafa"/></linearGradient><linearGradient id="p" x1="-.002" x2=".685" y1="-.402" y2=".224" gradientTransform="scale(223.40193 198.80753) rotate(90 .402 2.11)" gradientUnits="userSpaceOnUse" spreadMethod="pad"><stop offset="0" style="stop-opacity:1;stop-color:#8e84d6"/><stop offset="1" style="stop-opacity:1;stop-color:#b2a1e4"/></linearGradient><linearGradient id="q" x1=".057" x2=".653" y1=".237" y2="-.115" gradientTransform="scale(368.31247 327.76481) rotate(90 .115 1.509)" gradientUnits="userSpaceOnUse" spreadMethod="pad"><stop offset="0" style="stop-opacity:1;stop-color:#6e5edf"/><stop offset="1" style="stop-opacity:1;stop-color:#40388a"/></linearGradient><linearGradient xlink:href="#e" id="a" x1="143.097" x2="898.331" y1="164.296" y2="810.883" gradientUnits="userSpaceOnUse"/><linearGradient xlink:href="#f" id="b" x1="1274.623" x2="1902.659" y1="-291.494" y2="204.046" gradientTransform="translate(-1063.327 567.038)" gradientUnits="userSpaceOnUse"/><linearGradient xlink:href="#g" id="c" x1="-285.418" x2="285.39" y1="-257.878" y2="255.191" gradientTransform="translate(511.77 517.77)" gradientUnits="userSpaceOnUse"/><clipPath id="h" clipPathUnits="userSpaceOnUse"><path d="M15779.8 7118h-2039.6l-571.8-940.3 1613.8-1550.3 1613.9 1550.3z"/></clipPath><clipPath id="j" clipPathUnits="userSpaceOnUse"><path d="m14782.2 4627.4-1042 1550.3h2039.6z"/></clipPath><clipPath id="l" clipPathUnits="userSpaceOnUse"><path d="M13740.2 6177.7V7118h2039.6v-940.3z"/></clipPath><clipPath id="n" clipPathUnits="userSpaceOnUse"><path d="M13740.2 6177.7 14760 7118l1019.8-940.3Z"/></clipPath></defs><g clip-path="url(#h)" transform="matrix(.20263 0 0 -.21142 -2483.133 1781.498)"><path d="M15687.3 7076.28H13659.7l-568.5-934.79 1604.4-1541.21L16300 6141.49l-612.7 934.79" style="fill:url(#i);fill-opacity:1;fill-rule:nonzero;stroke:none" transform="scale(1.0059)"/></g><g clip-path="url(#j)" transform="matrix(.23757 0 0 -.21142 -2998.804 1781.498)"><path d="m14782.2 4627.4-1042 1550.3h2039.6z" style="fill:url(#k);fill-opacity:1;fill-rule:nonzero;stroke:none"/></g><g clip-path="url(#l)" transform="matrix(.23757 0 0 -.21142 -2998.804 1781.498)"><path d="m13740.2 6177.7 479.039 935.626 1159.972-.292L15779.8 6177.7h-2039.6" style="fill:url(#m);fill-opacity:1;fill-rule:nonzero;stroke:none"/></g><g clip-path="url(#n)" transform="matrix(.23757 0 0 -.21142 -2998.804 1781.498)"><path d="M13740.2 6177.7 14760 7118l1019.8-940.3Z" style="fill:url(#o);fill-opacity:1;fill-rule:nonzero;stroke:none"/></g><path d="m511.085 475.424-3.328-198.796 242.276 198.796z" style="fill:url(#p);fill-opacity:1;fill-rule:nonzero;stroke:none;stroke-width:.224114"/><path d="m513.031 803.184-1.946-327.76h238.948Z" style="fill:url(#q);fill-opacity:1;fill-rule:nonzero;stroke:none;stroke-width:.224114"/></svg>