<?xml version="1.0" encoding="UTF-8" standalone="no"?>
<svg xmlns:svg="http://www.w3.org/2000/svg" xmlns="http://www.w3.org/2000/svg" viewBox="0 0 1024 1024" version="1.1">
   <path d="m 659.04173,671.89524 c -90.41264,0 -163.9505,-75.40322 -163.9505,-168.10926 0,-92.70602 73.53786,-168.10924 163.9505,-168.10924 H 958.10328 V 232.7279 c 0,-70.83158 -55.98614,-128.23756 -125.0652,-128.23756 H 191.9098 c -69.07932,0 -125.065166,57.404 -125.065166,128.23756 v 548.65537 c 0,70.83157 55.986476,128.23756 125.065166,128.23756 h 641.12828 c 69.08003,0 125.0652,-57.40599 125.0652,-128.23756 V 671.95312 H 659.04173 Z" fill="#fc6b2a" />
   <path d="m 659.04173,399.21683 c -56.21128,0 -101.98229,46.9317 -101.98229,104.56915 0,57.63747 45.79618,102.88658 101.98229,104.56917 H 958.10328 V 399.21683 Z m 4.11993,143.10987 c -20.76895,0 -37.58728,-17.24495 -37.58728,-38.54072 0,-21.29576 16.81833,-38.54071 37.58728,-38.54071 20.76894,0 37.58727,17.24495 37.58727,38.54071 0,21.29577 -16.81833,38.54072 -37.58727,38.54072 z" fill="#fc7032" />
   <path d="M 952.57237,399.21683 H 659.04173 c -56.21134,0 -101.98229,46.9317 -101.98229,104.56915 0,57.63747 45.77069,104.56917 101.98229,104.56917 h 203.06158 c 40.52201,-63.36648 71.44968,-133.79297 90.46906,-209.13832 z M 663.16166,542.3267 c -20.76895,0 -37.58728,-17.24495 -37.58728,-38.54072 0,-21.29576 16.81833,-38.54071 37.58728,-38.54071 20.76894,0 37.58727,17.24495 37.58727,38.54071 0,21.29577 -16.81833,38.54072 -37.58727,38.54072 z" fill="#ff7e3e" />
   <path d="m 659.04173,671.89524 c -90.41264,0 -163.9505,-75.40322 -163.9505,-168.10926 0,-92.70602 73.53786,-168.10924 163.9505,-168.10924 H 958.10328 V 232.7279 c 0,-70.82445 -55.98614,-128.23756 -125.0652,-128.23756 H 191.9098 c -69.07932,0 -125.065166,57.40598 -125.065166,128.23756 v 548.65537 c 0,70.83347 55.985846,128.23756 125.065166,128.23756 H 440.57276 C 590.35748,874.43651 721.46144,789.19557 816.33262,671.95312 H 659.04173 Z" fill="#ff8142" />
   <path d="m 191.9098,104.49034 c -69.07931,0 -125.065166,57.40599 -125.065166,128.23757 v 443.3339 c 10.328035,0.46295 20.768945,0.7523 31.209858,0.7523 149.954038,0 288.733468,-49.24648 401.777478,-132.69348 -3.10406,-12.90476 -4.79717,-26.38823 -4.79717,-40.27677 0,-92.70603 73.75719,-168.10925 163.9505,-168.10925 h 28.38797 c 41.31215,-70.02141 70.99819,-148.02874 86.51846,-231.1864 H 191.9098 Z" fill="#ff9654" />
   <path d="m 557.45451,496.55237 c 31.71779,-29.16594 60.78301,-61.34107 86.80064,-96.06242 -46.95588,7.00213 -83.52728,46.87382 -86.80064,96.06242 z" fill="#ff9552" />
   <path d="M 502.99247,104.49034 H 191.9098 c -69.07932,0 -125.065166,57.38622 -125.065166,128.23756 V 412.00586 C 249.1937,372.82859 405.01723,259.63695 502.99247,104.49034 Z" fill="#ffae79" />
</svg>