<?xml version="1.0" encoding="UTF-8" standalone="no"?>
<svg xmlns:svg="http://www.w3.org/2000/svg" xmlns="http://www.w3.org/2000/svg" viewBox="0 0 1024 1024" version="1.1">
   <path d="M 855.34776,170.36629 H 178.33999 c -64.95102,0 -117.564884,52.26845 -117.564884,116.79333 v 55.01654 H 972.91264 v -55.01654 c 0,-64.36964 -52.66906,-116.79333 -117.56488,-116.79333 z" fill="#646bee" />
   <path d="m 60.719782,754.99249 c 0,64.52488 52.669088,116.79333 117.564888,116.79333 h 677.00776 c 64.95226,0 117.56489,-52.26845 117.56489,-116.79333 V 405.87661 H 60.719782 Z M 736.7317,653.69832 H 889.98099 L 834.15842,763.29168 H 680.90913 Z m -110.428,0 h 51.94985 l -55.76726,109.59336 h -51.94984 z m -116.62436,0 h 51.94984 l -55.76724,109.59336 h -51.94986 z" fill="#585fe4" />
   <path d="m 60.775106,405.87661 v 349.11588 c 0,64.52488 52.665714,116.79333 117.564884,116.79333 H 560.79931 C 628.68799,846.31039 691.75943,809.63009 747.35404,763.29168 H 680.96446 L 736.7317,653.69832 H 851.30906 C 906.37282,580.10783 944.79505,495.57497 963.95005,405.87661 Z M 505.80661,763.29168 h -51.94985 l 55.76725,-109.59336 h 51.94985 z m 116.62437,0 h -51.94986 l 55.76725,-109.59336 h 51.94985 z" fill="#646bee" />
   <path d="m 60.775106,678.3211 c 31.369079,4.67174 63.457374,7.09004 96.154254,7.09004 221.2986,0 416.53929,-110.74756 532.61042,-279.53453 H 60.775106 Z M 789.2348,170.36629 H 178.33999 c -64.951,0 -117.564884,52.26845 -117.564884,116.79333 v 55.01654 H 728.10106 c 28.10492,-53.31272 48.96232,-111.02238 61.13374,-171.80987 z" fill="#6b72f2" />
   <path d="M 251.47919,405.87661 H 60.775106 v 49.52037 C 127.93923,448.63671 192.00518,431.54366 251.47919,405.87661 Z M 533.30296,170.36629 H 178.33999 c -64.95113,0 -117.564884,52.26845 -117.564884,116.79333 v 55.01654 H 365.66927 C 431.84559,295.79524 488.70183,237.52257 533.30296,170.36629 Z" fill="#8c91f2" />
</svg>